<svg xmlns="http://www.w3.org/2000/svg" width="648" height="458" fill="none">
  <path stroke="#85D7F5" stroke-linecap="round" stroke-linejoin="round" stroke-width="10.77" d="m250.67 324.48-.88-.28c-.34-.1-.73-.17-1.17-.2-.45-.02-1 .14-1.65.48-.65.34-1.78 1.26-3.39 2.78a38.96 38.96 0 0 0-5.18 6.34c-1.85 2.7-4.58 7.81-8.2 15.31a262.26 262.26 0 0 0-9.09 20.85 215.74 215.74 0 0 0-9.93 34.11 103.34 103.34 0 0 0-1.98 14.42 78.43 78.43 0 0 0-.08 10.33c.2 2.5.67 4.88 1.4 7.12a22.12 22.12 0 0 0 3.05 6.13 21.06 21.06 0 0 0 4.63 4.73c1.76 1.31 4.44 2.38 8.03 3.22 3.58.83 7.84 1.02 12.78.56a84.7 84.7 0 0 0 15.85-3.18 89.2 89.2 0 0 0 18.06-7.83c6.41-3.57 11.14-6.39 14.18-8.47 3.04-2.08 5.79-4.03 8.23-5.85l7.28-5.4c2.4-1.8 7.34-5.79 14.8-11.98a442.37 442.37 0 0 0 17.55-15.18c4.23-3.93 8.29-7.89 12.17-11.89 3.88-4 6.97-7.25 9.27-9.76 2.3-2.5 5.13-5.71 8.5-9.62a499.7 499.7 0 0 0 16.07-19.66c1.41-1.86 3.74-5.18 6.96-9.96A266.98 266.98 0 0 0 405 302.54a220.4 220.4 0 0 0 6.56-14.03c1.78-4.23 3.62-9.32 5.52-15.27a126 126 0 0 0 5.68-27.7c.17-2.58.29-5.63.34-9.15.05-3.53-.27-7.22-.96-11.07a43.84 43.84 0 0 0-2.65-9.54 41.08 41.08 0 0 0-2.72-5.46 22.82 22.82 0 0 0-3.38-3.9 21.4 21.4 0 0 0-5.86-3.87 27.91 27.91 0 0 0-8.73-2.23c-3.43-.38-7.94-.1-13.55.83a99.39 99.39 0 0 0-13.53 3.03c-3.42 1.09-6.35 2.1-8.8 3.06-2.44.94-4.45 1.74-6.03 2.38-1.57.64-5.77 2.57-12.6 5.81a196.61 196.61 0 0 0-20.11 11.05c-6.6 4.14-12.05 7.9-16.37 11.31a429.08 429.08 0 0 0-9.52 7.7c-2.04 1.71-5.72 5.24-11.05 10.58a277.47 277.47 0 0 0-12.18 12.85c-2.8 3.22-5.04 5.84-6.7 7.88-1.67 2.03-3.08 3.8-4.25 5.3l-3.8 4.89a281.84 281.84 0 0 0-8.58 12.3 278.17 278.17 0 0 0-10.44 16.5c-2.62 4.55-5.16 9.6-7.65 15.16a249.16 249.16 0 0 0-5.7 13.6 166.03 166.03 0 0 0-4.09 12.75 387.87 387.87 0 0 0-3.12 11.5"/>
  <path stroke="#85D7F5" stroke-linecap="round" stroke-linejoin="round" stroke-width="10.77" d="m382.25 322.83.88-.27c.34-.11.73-.18 1.17-.2.45-.02 1 .13 1.65.47.65.34 1.78 1.27 3.38 2.78a38.91 38.91 0 0 1 5.19 6.34c1.85 2.7 4.58 7.81 8.2 15.32a263 263 0 0 1 9.09 20.84 215.65 215.65 0 0 1 9.93 34.12 103.11 103.11 0 0 1 1.98 14.41c.26 4.38.28 7.82.08 10.33-.2 2.5-.67 4.88-1.4 7.13a22.11 22.11 0 0 1-3.05 6.13 21.04 21.04 0 0 1-4.63 4.73c-1.77 1.3-4.44 2.38-8.03 3.21-3.58.84-7.84 1.02-12.78.56a84.6 84.6 0 0 1-15.85-3.17 89.21 89.21 0 0 1-18.06-7.83 195.44 195.44 0 0 1-14.18-8.48 262.35 262.35 0 0 1-8.24-5.85l-7.27-5.4c-2.4-1.8-7.34-5.79-14.81-11.98a440.4 440.4 0 0 1-17.54-15.18 327.3 327.3 0 0 1-12.17-11.88c-3.89-4-6.98-7.25-9.27-9.76a455.3 455.3 0 0 1-8.5-9.63 494.96 494.96 0 0 1-16.07-19.66 227.08 227.08 0 0 1-6.96-9.95 266.62 266.62 0 0 1-23.64-43.1 187.87 187.87 0 0 1-5.52-15.26 126.12 126.12 0 0 1-5.68-27.7c-.18-2.58-.3-5.63-.34-9.16-.05-3.53.27-7.22.96-11.07a43.85 43.85 0 0 1 2.65-9.53 41.04 41.04 0 0 1 2.72-5.47 22.78 22.78 0 0 1 3.38-3.9 21.4 21.4 0 0 1 5.86-3.87 27.85 27.85 0 0 1 8.73-2.23c3.42-.37 7.94-.1 13.54.83 5.61.93 10.12 1.94 13.54 3.03 3.42 1.09 6.35 2.11 8.79 3.06 2.44.95 4.45 1.74 6.03 2.38 1.58.64 5.78 2.58 12.6 5.81a196.83 196.83 0 0 1 20.12 11.06c6.6 4.13 12.05 7.9 16.36 11.3 4.32 3.42 7.5 5.98 9.53 7.7 2.04 1.72 5.72 5.24 11.04 10.59 5.33 5.34 9.39 9.62 12.2 12.84 2.8 3.22 5.02 5.85 6.69 7.88a264.5 264.5 0 0 1 4.25 5.3l3.8 4.9c1.38 1.74 4.24 5.84 8.58 12.3a277.96 277.96 0 0 1 10.44 16.5c2.61 4.55 5.16 9.6 7.64 15.15a247.9 247.9 0 0 1 5.7 13.6c1.32 3.52 2.69 7.77 4.1 12.75 1.4 4.98 2.45 8.82 3.11 11.51"/>
  <path stroke="#85D7F5" stroke-linecap="round" stroke-linejoin="round" stroke-width="10.77" d="m360.46 271.1.32-.8c.11-.32.3-.64.54-.99.24-.34.68-.65 1.31-.93s1.98-.56 4.04-.86c2.06-.3 4.62-.33 7.7-.1s8.44 1.22 16.09 2.95a247.28 247.28 0 0 1 20.66 5.55 202.53 202.53 0 0 1 30.94 12.71 97.23 97.23 0 0 1 11.77 7 73.98 73.98 0 0 1 7.64 6 29.74 29.74 0 0 1 4.43 5.21 20.83 20.83 0 0 1 2.72 5.85c.58 2.05.83 4.11.76 6.18-.07 2.07-.86 4.67-2.35 7.8-1.49 3.13-3.85 6.37-7.09 9.73a79.73 79.73 0 0 1-11.63 9.8 84.07 84.07 0 0 1-16.37 8.7 183.4 183.4 0 0 1-14.55 5.46c-3.32 1.01-6.36 1.89-9.13 2.62l-8.26 2.19c-2.72.72-8.56 2-17.5 3.86-8.94 1.86-16.1 3.2-21.46 4-5.37.81-10.67 1.47-15.89 1.99-5.22.5-9.42.87-12.61 1.09-3.2.21-7.22.41-12.07.6a472.03 472.03 0 0 1-23.9.28c-2.2-.04-6-.27-11.41-.71a249.95 249.95 0 0 1-45.58-7.9c-4.16-1.17-8.98-2.8-14.48-4.89-5.49-2.1-10.32-4.28-14.48-6.58a117.6 117.6 0 0 1-9.24-5.5 155 155 0 0 1-6.93-5.12 54.96 54.96 0 0 1-7.58-7.2 41.16 41.16 0 0 1-5.46-7.54c-1.2-2.27-2.02-4-2.43-5.2-.4-1.22-.7-2.8-.89-4.79-.18-1.98.02-4.17.6-6.58a26.22 26.22 0 0 1 3.48-7.73c1.74-2.74 4.59-5.9 8.56-9.48a93.45 93.45 0 0 1 10.17-8.19c2.8-1.87 5.28-3.43 7.41-4.67 2.13-1.24 3.9-2.25 5.3-3.04 1.39-.79 5.28-2.74 11.66-5.86 6.39-3.12 13.03-5.89 19.94-8.32a175.44 175.44 0 0 1 17.93-5.4c5.04-1.17 8.79-2 11.25-2.5 2.46-.49 7.21-1.13 14.27-1.91 7.05-.78 12.59-1.26 16.6-1.43 4.01-.17 7.26-.27 9.73-.3 2.47-.04 4.6-.04 6.4-.02l5.83.07c2.1.02 6.79.32 14.08.9 7.3.59 13.38 1.26 18.27 2 4.88.75 10.1 1.85 15.64 3.28 5.54 1.43 10 2.7 13.35 3.79 3.36 1.09 7.29 2.58 11.78 4.46 4.5 1.89 7.93 3.38 10.3 4.47"/>
  <path stroke="#85D7F5" stroke-linecap="round" stroke-linejoin="round" stroke-width="10.77" d="M309.66 331.52a66.1 66.1 0 0 1-2.61-1.96l-3.61-2.75c-.93-.7-1.73-1.34-2.4-1.9-.66-.55-1.78-1.52-3.34-2.91a35.69 35.69 0 0 1-3.02-2.89 17.06 17.06 0 0 1-3.17-5.94c-.47-1.5-.73-2.99-.77-4.46-.03-1.47.29-3.16.97-5.05.68-1.9 1.42-3.34 2.23-4.34.8-1 2.15-2.14 4.04-3.41 1.9-1.28 4.48-2.37 7.76-3.28a30.8 30.8 0 0 1 8.81-1.27c2.6.06 4.4.17 5.39.33 1 .16 2.6.74 4.82 1.73 2.21 1 3.9 1.94 5.07 2.83a15.2 15.2 0 0 1 3.19 3.37c.96 1.35 1.62 2.5 1.98 3.45.37.95.65 2.24.86 3.86.2 1.62.06 3.29-.44 5.01-.49 1.73-.99 3.06-1.5 3.99-.5.93-1.2 1.9-2.06 2.9-.87 1.02-1.44 1.64-1.7 1.89-.27.25-.76.69-1.5 1.32-.72.63-2.26 1.58-4.62 2.87a26.06 26.06 0 0 1-7.74 2.71c-2.81.52-4.93.75-6.37.7a14.15 14.15 0 0 1-4.22-.84c-1.38-.5-2.54-1.1-3.5-1.81-.94-.7-1.75-1.5-2.41-2.4a14.09 14.09 0 0 1-1.48-2.38c-.33-.7-.63-1.74-.9-3.12-.27-1.38-.25-2.82.07-4.33.32-1.5.7-2.59 1.1-3.26.43-.66.89-1.31 1.4-1.94.5-.63 1.5-1.42 2.95-2.38 1.46-.96 2.8-1.57 4.03-1.86 1.23-.28 2.73-.29 4.51-.02 1.79.27 3.32.8 4.62 1.6 1.3.79 2.5 1.68 3.58 2.69 1.1 1 2.1 2.46 3.05 4.39.94 1.93 1.47 3.5 1.59 4.72a11.4 11.4 0 0 1-.12 3.32c-.2 1-.75 2.1-1.67 3.31a10.39 10.39 0 0 1-3.61 2.97 14.79 14.79 0 0 1-5.32 1.45c-2.05.2-3.96-.03-5.73-.7a11.51 11.51 0 0 1-4.36-2.81 12.1 12.1 0 0 1-3.29-5.93c-.11-.59-.12-1.64-.01-3.17.1-1.52.56-2.92 1.36-4.18.8-1.27 1.68-2.24 2.65-2.94a8.65 8.65 0 0 1 3.56-1.4 9.86 9.86 0 0 1 3.72-.04c1.07.22 2.06.65 2.97 1.3a6.15 6.15 0 0 1 2.7 4.04c.06.51-.1 1.24-.45 2.18a7.79 7.79 0 0 1-1.73 2.65 7.96 7.96 0 0 1-2.84 1.89c-1.1.43-2.05.65-2.87.67a5.22 5.22 0 0 1-1.92-.24c-.45-.18-.86-.63-1.23-1.37a4.95 4.95 0 0 1 .03-4.5c.36-.62.75-1.17 1.19-1.64a4.9 4.9 0 0 1 1.8-1.18 5.17 5.17 0 0 1 1.76-.47c.41 0 .75-.02 1.03-.05.27-.03.74.14 1.4.52a6.8 6.8 0 0 1 1.28.86c.19.2.39.47.58.83.2.37.31.61.34.75.03.14.02.36-.03.67-.05.3-.18.56-.38.77-.2.21-.39.35-.56.42a2 2 0 0 1-.58.12c-.22.02-.44 0-.67-.04-.24-.05-.44-.1-.61-.17l-1.8-.79"/>
  <path stroke="#404040" stroke-linecap="round" stroke-linejoin="round" stroke-width="72" d="M42.6 38.6c-.37-.23-.7.48-.96 2.12-.28 1.65-.23 5.68.15 12.08.37 6.41.75 11.74 1.14 16a67.45 67.45 0 0 0 2.9 15.05M129.36 36.63l-.52 1.91c.06-.2.08-.45.06-.75-.02-.3-.38 2.8-1.1 9.31-.7 6.5-.57 13.4.43 20.66s1.6 11.18 1.85 11.75M207.88 40.05c-.02-.05-.08-.07-.2-.09a.98.98 0 0 1-.38-.15c-.15-.09-.2 3.47-.12 10.68.08 7.2.26 13.38.54 18.53.27 5.15.66 8.9 1.14 11.26.49 2.36.82 3.79 1 4.3M288.84 42.02c.05.01.02-.13-.08-.42s-.32-.31-.66-.06-.09 3.64.76 10.16c.84 6.53 1.74 12 2.68 16.43.95 4.41 1.7 7.68 2.24 9.8.55 2.13.85 3.46.92 4.01M368.36 44.78a3.78 3.78 0 0 0-.13-.23c-.07-.1-.02-.23.16-.38.17-.14.27 2.37.3 7.52.02 5.15-.07 10.01-.26 14.58-.2 4.56-.01 7.98.54 10.25.56 2.28.94 3.69 1.16 4.24M444.65 48.86c.09.13.01-.1-.22-.7-.23-.58-.27-.65-.12-.19.14.46.4 3.55.75 9.27.36 5.72.86 10.64 1.5 14.76.65 4.13 1.34 7.16 2.06 9.12.73 1.95 1.2 3.17 1.42 3.65M525.8 49.58a3.14 3.14 0 0 1-.1-.28c-.06-.14-.13 0-.2.42-.08.42 0 3.78.25 10.1.24 6.32.77 11.25 1.6 14.8.81 3.54 1.3 5.57 1.48 6.07M605.12 45.57a5.13 5.13 0 0 1-.16-.56c-.09-.33-.16-.24-.22.26l-.07.66c.02-.06.05.13.1.58.06.44-.19 3.72-.73 9.82a58.3 58.3 0 0 0 .78 16.89c1.06 5.16 1.7 8 1.95 8.52" opacity=".36"/>
  <path stroke="#85D7F5" stroke-linecap="round" stroke-linejoin="round" stroke-width="9" d="M492.28 50.49c-.16.01-.28-.18-.34-.58-.06-.4-.13-.72-.2-.97-.08-.24-.1-.46-.05-.67.05-.2.08-.3.1-.3l-.01.02.05-.09c.04-.07.13-.18.28-.33.14-.16.29-.24.43-.25.14-.01.04.35-.32 1.08-.36.73-.49 1-.38.84.1-.17.2-.38.25-.64.06-.26.1-.38.08-.38l-.04.05c-.02.04 0 .07.08.08.07.01.29-.1.64-.34.36-.23.56-.26.6-.08.05.18.06.25.04.22-.02-.02-.03.1-.03.4v.35c0-.07.04-.22.14-.45s-.16.65-.8 2.66c-.62 2.01-.78 2.99-.47 2.92.31-.06.42-.1.34-.12-.1 0-.09-.07.02-.18.1-.12.43-.62 1-1.53.55-.9.83-1.25.81-1.04 0 .2.02.2.08 0a52.55 52.55 0 0 0-.91 2.35 11.74 11.74 0 0 0-.5 1.74c-.05.13-.09.3-.13.5-.05.21.7-.6 2.26-2.45a166.2 166.2 0 0 1 2.34-2.75l.06.23c.03.15-.39.82-1.27 2a17.52 17.52 0 0 0-2.13 3.7 36.8 36.8 0 0 0-.78 1.92 10.43 10.43 0 0 0 .48-.47c-.14.16.24-.36 1.13-1.55.9-1.2 1.64-2.36 2.23-3.52l.88-1.73h-.13c-.07 0-.9 1.47-2.48 4.42a98.53 98.53 0 0 0-2.4 4.61c-.03.12.38-.4 1.24-1.58l3.66-5.06c1.6-2.2 2.37-3.17 2.35-2.91-.03.26-.04.37-.05.32v.04c0 .07-.42.78-1.27 2.1a44.5 44.5 0 0 0-2.58 4.58c0 .01.07 0 .2-.07.14-.06.22-.13.24-.2.02-.08-.01-.05-.1.08a103.46 103.46 0 0 0 3.62-4.03 106.23 106.23 0 0 1 2.34-2.72h-.11c-.08 0-.08 0 0-.03.08-.04.05-.03-.1.02a6.08 6.08 0 0 0-1.13.58c.1-.04-.04.05-.42.27l-1.08.63c-.35.2-.54.27-.6.22-.04-.05-.06-.09-.04-.1.02-.03.02-.03 0-.02h-.06s0 0 0 0h.01l-.01-.01h.23-.2c-.09 0-.1-.01-.02-.02h.15l-.16-.01c-.14 0-.16-.01-.07-.02a579.56 579.56 0 0 1 1.2-.13 2.2 2.2 0 0 1 .86.01c-.02-.01-.03 0-.04.01-.01.02.2-.03.63-.17a7.04 7.04 0 0 1 2.54.05c1.27.17 2.28.34 3.03.51.75.17 1.25.25 1.5.24a21.04 21.04 0 0 0 3.37-.58c.72-.18 1.64-.22 2.77-.13 1.13.09 2.02.2 2.66.31a8.29 8.29 0 0 0 2.02.2c.24.02.55 0 .94-.05.38-.04.82-.13 1.31-.26l1.22-.3c.31-.09.55-.13.72-.14l2.16-.23c1.27-.13 2.3-.27 3.1-.41.78-.14 1.48-.33 2.08-.56l2.07-.8c.77-.3 1.28-.48 1.53-.55a100.64 100.64 0 0 0 9.53-4.07 285.66 285.66 0 0 0 2.72-1.37c.05 0 .12-.03.23-.06a3.15 3.15 0 0 1 .7-.13 3.56 3.56 0 0 1 1.02.03c.15.04.34-.04.56-.23.22-.18.41-.34.58-.45a4 4 0 0 0 .4-.33c.1-.1.24-.2.42-.32l.57-.42c.22-.16.29-.23.23-.21-.07.02-.03-.02.09-.1l.4-.28.2-.14a241.93 241.93 0 0 1 .47-.42l.25-.27a3.24 3.24 0 0 1 .33-.34v.02l.16-.23.18-.27c-.02.02-.02.04 0 .05a2.62 2.62 0 0 0 .15-.3l.07-.22c.02-.08.08-.2.16-.37a8.99 8.99 0 0 1 .33-.61 5.48 5.48 0 0 0 .37-.79c0-.03.03-.08.08-.13a4.33 4.33 0 0 0 .19-.2l.11-.15a.44.44 0 0 0 .08-.22c0-.08-.01.02-.04.28l-.05.28c0-.08-.04.02-.13.3l-.1.3c.02-.07 0-.05-.08.07-.07.1-.23.91-.46 2.4-.24 1.5-.45 2.7-.64 3.58a39.4 39.4 0 0 1-.5 2.17l-1.37 5.02c-.75 2.78-1.38 5.15-1.88 7.08-.5 1.94-.84 3.88-1.01 5.81-.18 1.94-.03 3.64.43 5.11.47 1.47.68 2.1.64 1.89-.04-.22.38-2.86 1.25-7.91.88-5.06 1.5-8.97 1.88-11.73.37-2.77.45-4.2.22-4.27-.22-.07-.7 1.22-1.46 3.88a84.05 84.05 0 0 0-2.01 9.54 292 292 0 0 1-2.55 14.05 71.9 71.9 0 0 1-1.15 4.92 119 119 0 0 0-1.45 5.89c-.06.36-.05.48.03.36.07-.12.35-2.2.83-6.27a244 244 0 0 0 1-10.06c.2-2.64.5-4.7.89-6.22.4-1.5.6-2.22.6-2.14.02.08-.08 1.28-.3 3.58l-.6 7.23a46.5 46.5 0 0 1-1.42 8.17c-.76 2.92-1.35 5.12-1.76 6.6a41.96 41.96 0 0 1-1.23 3.77 6.26 6.26 0 0 1-1.04 1.98c-.3.28-.55.41-.78.39-.23-.02-.27-1.36-.11-4.02.15-2.65.33-4.73.53-6.24.2-1.5.33-2.6.4-3.3.06-.69.14-1.35.24-1.96.1-.62.3-1.78.63-3.49.33-1.7.68-3.03 1.06-3.99.38-.96.6-1.39.68-1.29.07.1-.42 2.2-1.48 6.32s-1.95 7.55-2.69 10.3c-.73 2.75-1.4 5.02-2.01 6.8a47.37 47.37 0 0 1-2.15 5.39c-.1.22.2-1.12.85-4.02.66-2.9 1.44-6.42 2.36-10.56a141.2 141.2 0 0 0 1.29-6.05 165.24 165.24 0 0 0-3.32 7.68l-1.6 4.1c-.56 1.4-1.2 2.88-1.94 4.43a45.6 45.6 0 0 1-2.06 3.92c-.64 1.06-1 1.52-1.07 1.37-.08-.14.03-.8.33-1.95l.95-3.63c.33-1.26.67-2.82 1-4.67a25.54 25.54 0 0 1 1.77-6.04c-.02.08-.61 1.68-1.78 4.78-1.18 3.1-2.1 5.48-2.78 7.1a86.33 86.33 0 0 1-1.74 3.97 7.33 7.33 0 0 1-1.03 1.79c-.2.18-.31.2-.32.06 0-.13-.06-.2-.17-.21-.12 0 0-1.29.35-3.85.36-2.56.58-4.53.66-5.91.08-1.38.02-2.09-.18-2.13-.21-.04-.66.59-1.35 1.87a300.6 300.6 0 0 1-1.73 3.17 26.17 26.17 0 0 0-1.6 3.32c-.3.68-.61 1.18-.96 1.48-.34.3-.7.44-1.07.41-.37-.02-.3-1.67.21-4.94.5-3.28.72-4.79.65-4.54-.07.25-.48 1.32-1.2 3.2a86.86 86.86 0 0 1-1.87 4.48c-.5 1.1-.79 1.63-.84 1.58-.06-.06.02-.79.23-2.19.2-1.4.39-2.45.54-3.17.15-.71.22-1.32.2-1.84 0-.51-.05-.91-.15-1.2a1.7 1.7 0 0 0-.31-.6c-.12-.12-.16-.18-.14-.17h-.17c-.14 0-.25.02-.3.08-.07.06-.19.3-.37.74l-.47 1.12c-.13.3-.55 1.17-1.25 2.58-.7 1.41-1.06 2.04-1.07 1.88v-.4c0-.17 0-.24-.01-.22 0 .01.06 0 .18-.06.13-.05-.07-.37-.6-.95-.51-.58-.92-1.06-1.21-1.42-.3-.36-.55-.58-.77-.66a4.89 4.89 0 0 1-1.4-.78l-.77-.57c-.18-.13-.38-.3-.58-.5-.2-.2-.7-.82-1.5-1.84-.8-1.01-1.5-1.78-2.12-2.28-.6-.5-1.05-1.46-1.32-2.87-.27-1.42-.5-2.54-.68-3.37-.19-.83-.46-1.61-.81-2.35-.36-.73-.95-1.62-1.78-2.68a242.14 242.14 0 0 0-3.36-4.19l-.44-.48a4 4 0 0 0-.3-.33c-.1-.09-.12-.13-.08-.14.03 0-.12-.13-.46-.4a6.32 6.32 0 0 1-1.28-1.85c-.5-.97-.9-1.9-1.17-2.79-.27-.88-.46-1.61-.56-2.19-.1-.57-.12-1-.04-1.3.07-.29.21-.61.4-.98l.59-1.06c.2-.35.35-.65.47-.9a4.94 4.94 0 0 1 .73-1.11l.04.1c.02.06-.02.3-.14.71-.11.4 0 1.12.36 2.13.36 1.01.63 1.8.82 2.39.2.58.34 1.16.44 1.76.1.59.4 1.96.9 4.12s.85 3.84 1.06 5.02c.2 1.19.5 2.4.88 3.65.37 1.25.83 2.4 1.38 3.46a10.46 10.46 0 0 0 1.6 2.4 5.1 5.1 0 0 0 2.06 1.28c.87.3 1.57.52 2.1.67.54.16 1 .17 1.4.06.4-.12.6-.26.63-.41.03-.16.1-.33.24-.51.14-.19.3-.9.49-2.14a15.84 15.84 0 0 0-.7-7.55 45.05 45.05 0 0 0-1.9-4.65 86.74 86.74 0 0 0-2.3-4.62 32.28 32.28 0 0 0-1.86-3.1 7.25 7.25 0 0 0-1.35-1.55 6.12 6.12 0 0 0-.88-.58c-.22-.11-.46-.1-.72.04-.27.13-.51.39-.74.77a4.81 4.81 0 0 0-.47 1.9c-.08.9-.11 1.56-.11 1.98 0 .43.03.82.07 1.19.04.36.1.6.16.74.06.13.09.18.08.14-.02-.03-.03-.03-.05 0l-.02.03c0-.02.13-.04.36-.06.23-.02.43-.23.6-.64a80.04 80.04 0 0 1 2.8-5.15c.44-.74.86-1.4 1.25-2 .4-.6.84-1.43 1.31-2.52.48-1.08.73-1.67.75-1.75.03-.08-.6.91-1.89 2.98a51.23 51.23 0 0 1-3.57 5.13c-1.1 1.35-1.74 1.93-1.9 1.7-.15-.21-.13-.85.07-1.9.2-1.06.57-2.02 1.08-2.9.52-.88 1-1.6 1.43-2.16.44-.56.8-.87 1.1-.91.29-.05.51-.1.66-.16.16-.05-.16 1.28-.95 4A79.11 79.11 0 0 0 501 65.6c-.3 1.59-.49 2.38-.55 2.38-.05 0 .1.05.44.16.35.1.91-.2 1.69-.94a15.9 15.9 0 0 0 2.14-2.48c.65-.93 1.15-1.65 1.5-2.18.35-.52 1-1.46 1.97-2.82a12.58 12.58 0 0 0 1.94-3.9c.34-1.23.44-1.78.31-1.66-.13.13-.64.93-1.53 2.41a103.3 103.3 0 0 0-4.66 8.73 121.3 121.3 0 0 1-1.57 3.26c-.4.79-.63 1.42-.72 1.9-.08.47-.02.72.18.75.2.04.86-.9 1.98-2.81a143.77 143.77 0 0 1 6.72-10.4c.35-.5.7-.94 1.06-1.3.35-.37.54-.52.56-.45.02.07-.23.56-.76 1.47-.52.9-1.38 2.6-2.57 5.06l-2.94 6c-.76 1.52-1.2 2.58-1.28 3.17-.1.6-.14.88-.16.86a.83.83 0 0 1 .13.14c.1.11 1.06-1.09 2.88-3.6 1.82-2.5 3.23-4.45 4.24-5.81a29.8 29.8 0 0 0 2.33-3.6 25.62 25.62 0 0 0 1.49-3.4c.45-1.25.7-1.82.78-1.71.07.1-.55 1.42-1.87 3.96a120.2 120.2 0 0 0-3.78 7.96c-1.2 2.76-2.15 4.9-2.88 6.42a13.87 13.87 0 0 0-1.22 3.12c-.08.57 0 .82.25.75.26-.07 1.03-1.2 2.31-3.36 1.29-2.17 2.4-4.14 3.36-5.91a82.86 82.86 0 0 0 3.66-7.63c.13-.3.82-1.7 2.07-4.19a117.3 117.3 0 0 1 1.9-3.73c.03 0 .05-.01.07-.04l-3.53 6.86a1742.39 1742.39 0 0 1-8.25 15.86 9.92 9.92 0 0 0-1 2.4c-.06.44 0 .73.18.88.18.15.72-.46 1.62-1.84.9-1.38 1.89-2.92 2.97-4.62l2.53-4c.6-.97 1.47-2.48 2.58-4.53a76.65 76.65 0 0 1 4.62-7.3c1.96-2.8 2.95-4.17 2.96-4.07 0 .1-.66 1.32-1.99 3.67-1.33 2.34-2.4 4.32-3.2 5.93l-2.84 5.77c-1.1 2.23-2.22 4.46-3.37 6.7a28.03 28.03 0 0 0-2.22 5.21c-.33 1.25-.4 1.95-.2 2.09.2.14.96-.86 2.3-3a612.08 612.08 0 0 0 6.74-11.06c.6-1.04 1.1-1.9 1.48-2.6.39-.7.7-1.3.94-1.8a315.61 315.61 0 0 1 3.77-7.24 18.81 18.81 0 0 1 2.2-3.32c.74-.86 1.11-1.3 1.12-1.29h.13c.09-.01-.85 1.65-2.8 5a166.1 166.1 0 0 0-6.65 12.26c-.44.88-1.35 2.64-2.72 5.28A40.64 40.64 0 0 0 514 83.43c-.01.16.39-.48 1.2-1.91l2.02-3.6c.53-.97 1.02-1.8 1.46-2.5a110.35 110.35 0 0 0 4.53-7.96c1.19-2.23 2.07-3.95 2.65-5.15a43.63 43.63 0 0 1 2.84-5.05 113.57 113.57 0 0 1 2.43-3.65c.06-.08-.72 1.27-2.32 4.05a228.79 228.79 0 0 0-5.62 10.2c-.49.92-.96 1.78-1.42 2.58a607.14 607.14 0 0 0-5.38 9.73 25.8 25.8 0 0 0-1.66 3.68c-.34 1.01-.51 1.5-.52 1.49l.05.14c.04.11.39-.3 1.05-1.25s1.14-1.71 1.44-2.3c.3-.58.86-1.54 1.7-2.87.82-1.33 1.86-2.9 3.1-4.71s2.5-3.74 3.78-5.79a95.71 95.71 0 0 0 2.92-4.88c.65-1.21 1.5-2.7 2.56-4.45a30.04 30.04 0 0 1 2.72-3.98 6.46 6.46 0 0 1 1.35-1.38c.13-.02-.28.82-1.24 2.5l-2.96 5.18a284.02 284.02 0 0 0-2.18 3.84c-.45.8-1.33 2.47-2.66 5.02a240.9 240.9 0 0 0-3.47 6.9c-.98 2.05-1.75 3.72-2.3 5.01a8.56 8.56 0 0 0-.85 2.75c0 .54.06.95.18 1.21.13.27 1.02-.84 2.68-3.33l4.03-6.01a83.78 83.78 0 0 1 2.46-3.52 44.9 44.9 0 0 0 2.24-3.37 63.3 63.3 0 0 0 2.7-4.88 93.53 93.53 0 0 0 2.16-4.58 53.06 53.06 0 0 1 2.52-4.88 30.74 30.74 0 0 1 1.84-3.09c.08-.02-.78 1.4-2.57 4.3-1.8 2.88-3.53 5.95-5.21 9.2a323.2 323.2 0 0 1-3.82 7.25 93.04 93.04 0 0 0-2.53 4.92 23.67 23.67 0 0 0-1.6 4.02c-.23.95-.28 1.55-.13 1.78.15.23 1.32-1.28 3.51-4.52a393 393 0 0 1 5.83-8.44c1.7-2.38 2.97-4.25 3.82-5.63a84.4 84.4 0 0 0 2.27-3.92c.67-1.24 1.2-2.19 1.57-2.84.38-.65.65-1.18.82-1.6a142.34 142.34 0 0 1 3.65-6.32l.1.24c.07.14-.92 1.86-2.98 5.15-2.06 3.3-4.26 7.22-6.62 11.8a1644.39 1644.39 0 0 0-7.75 15.23c-.57 1.14-.91 1.95-1.02 2.44-.1.49-.07.78.1.88.17.1 1.48-1.88 3.94-5.95s4.38-7.3 5.76-9.7c1.38-2.4 2.43-4.28 3.14-5.67a34.18 34.18 0 0 0 1.57-3.38c.33-.86 1.68-3.3 4.06-7.33 2.37-4.02 3.64-5.98 3.81-5.87.18.1-.44 1.22-1.83 3.33-1.4 2.11-2.87 4.58-4.42 7.4-1.55 2.81-2.65 4.9-3.3 6.26-.64 1.36-1.18 2.48-1.62 3.34-.44.86-1.2 2.48-2.27 4.84a394 394 0 0 1-1.7 3.73l2.73-4.92a765.8 765.8 0 0 1 4.73-8.44 113.3 113.3 0 0 0 3.42-6.46 95.33 95.33 0 0 1 2.56-4.96c.7-1.22 1.23-2.77 1.6-4.63.36-1.87.49-2.8.37-2.78-.11.02-1.04 1.18-2.77 3.48a83.03 83.03 0 0 0-6.28 10.37c-2.46 4.6-4.4 8.27-5.83 10.98a48.54 48.54 0 0 0-2.73 5.73 35.5 35.5 0 0 0-.56 1.69l-.02.32c-.01.2.3-.37.93-1.74a1966.65 1966.65 0 0 1 2.95-6.21 1175.36 1175.36 0 0 1 1.2-2.45l.54-1.17.5-1.16.48-1.2.89-2.14c.45-1.1 1.11-3.17 1.97-6.2a68.16 68.16 0 0 1 2.43-7.32 57.21 57.21 0 0 0 1.09-2.68 22.27 22.27 0 0 1-1.8 2.96c-.8 1.18-1.92 2.79-3.34 4.84s-2.5 3.57-3.24 4.54c-.73.98-1.3 1.87-1.69 2.67-.4.8-.63 1.4-.71 1.82-.09.42-.1.67-.04.76.05.09 1-1.16 2.84-3.74 1.84-2.58 3.4-4.65 4.65-6.22 1.25-1.57 2.24-3.01 2.95-4.32a11.67 11.67 0 0 0 1.53-4.71c-.03-.02-.63.88-1.82 2.7a58.7 58.7 0 0 0-6.99 15.15c-.27.87-.6 1.84-.99 2.9a27.73 27.73 0 0 0-1.5 7.28l-.05 2.06c-.02.46.02.82.13 1.07.1.25.37.52.8.8.43.26 1.38-.3 2.85-1.7a40.97 40.97 0 0 0 5.14-5.75c.48-.6.96-1.24 1.44-1.9.48-.67.88-1.18 1.2-1.53.33-.35.47-.42.44-.2-.03.23-.05.34-.07.34a62.37 62.37 0 0 1-1.59 3.02c-.93 1.72-1.89 3.41-2.86 5.08a164.77 164.77 0 0 0-4.35 7.94c-.74 1.45-1.18 2.15-1.3 2.1-.13-.05.31-1.24 1.33-3.6 1.02-2.34 1.84-4.15 2.47-5.42.63-1.27 1.16-2.7 1.6-4.3l.97-3.65c.2-.82.34-1.23.4-1.24.07 0-.46.97-1.58 2.92a71.9 71.9 0 0 0-2.8 5.28 17.63 17.63 0 0 0-1.73 5.46"/>
  <path stroke="#F7F5E9" stroke-linecap="round" stroke-linejoin="round" stroke-width="3.86" d="M498.68 62.26c.17.08.09-.03-.26-.33-.34-.3-.57-.68-.68-1.15a2.37 2.37 0 0 1-.02-1.18c.09-.32.3-.75.63-1.28a7.55 7.55 0 0 1 3.92-2.92 8.6 8.6 0 0 1 2.44-.46c.75-.02 1.37 0 1.87.04.49.05 1.15.46 1.97 1.24a7 7 0 0 1 1.8 2.66l.68 1.86M536.05 58.08c-.1-.04-.2-.2-.35-.49-.14-.28-.09-.72.17-1.3.25-.59.69-1.11 1.3-1.57.62-.46 1.14-.8 1.55-1 .4-.2 1.02-.36 1.83-.45.81-.1 1.56-.03 2.26.18a10.53 10.53 0 0 1 4.39 2.74c.8.78 1.05 1.88.76 3.3a18.2 18.2 0 0 1-.57 2.41M517.25 87.94c-.11.33-.08.69.1 1.06a6 6 0 0 0 1.24 1.73c.17.14.44.4.82.79.38.39 1.03.85 1.97 1.39.94.54 1.83.92 2.67 1.13.83.22 1.46.36 1.88.41a13.3 13.3 0 0 0 3 .05 5.72 5.72 0 0 0 1.83-.62 6.5 6.5 0 0 0 2.3-2.3 19.59 19.59 0 0 0 1.78-3.17 14.27 14.27 0 0 0 1.03-3.34"/>
  <path stroke="#85D7F5" stroke-linecap="round" stroke-linejoin="round" stroke-width="3.86" d="M487.55 42.63a.74.74 0 0 0-.06-.08 793.18 793.18 0 0 1 .9 5.27l1.35 7.77a48.71 48.71 0 0 0 1.62 6.61c.25.82.7 1.98 1.35 3.48.64 1.5 1.43 3.24 2.36 5.22l2.78 5.87c.92 1.94 1.6 3.41 2.05 4.41.44 1 1.06 2.14 1.87 3.42.8 1.28 1.47 2.31 1.98 3.1.52.78 1.3 1.8 2.36 3.09a55.29 55.29 0 0 0 3.7 4.01c1.42 1.4 3.06 2.7 4.94 3.93a43.47 43.47 0 0 0 5.4 3.02 18.84 18.84 0 0 0 8.36 2.06c1.21.02 2.4-.13 3.56-.43 1.16-.3 2.5-.77 4.05-1.42a21.69 21.69 0 0 0 7.57-5.27c.93-1.05 1.74-2 2.43-2.85.68-.85 1.4-1.97 2.16-3.36.76-1.38 1.41-2.7 1.97-3.93l1.8-4.1c.64-1.5 1.32-4.64 2.03-9.45l1.7-11.55c.42-2.9.78-5.06 1.09-6.5.3-1.42.64-3.42 1.03-6 .39-2.57.67-4.56.86-5.98.18-1.41.38-2.8.6-4.16.2-1.36.3-2.34.28-2.93-.01-.6-.03-.76-.05-.5l-.02.27.01.24v.24-.1l.02.01.07.04c.05.02.04.04-.01.06l-.05.02a1.13 1.13 0 0 1 0 0 8.16 8.16 0 0 1-.53.12"/>
  <path stroke="#85D7F5" stroke-linecap="round" stroke-linejoin="round" stroke-width="3.86" d="M487.86 38.56a3.28 3.28 0 0 0-.14-.34 3.7 3.7 0 0 1-.08-.2c0 .01 0 .02-.02 0a.28.28 0 0 1 0-.1c0-.05-.04.02-.11.22a.83.83 0 0 0-.05.5c.04.13.08.24.12.31.04.08.06.1.06.07 0-.04.07.06.2.32.12.25.77.85 1.94 1.8a28.34 28.34 0 0 0 5.79 3.66c.6.26 1.14.48 1.64.64l3 .98c1.49.48 3.6.9 6.35 1.27 2.74.35 5.34.57 7.8.64a52.3 52.3 0 0 0 7.66-.36c2.65-.31 5-.73 7.08-1.26a39.45 39.45 0 0 0 5.7-1.88 95.32 95.32 0 0 0 4.02-1.78c.95-.46 1.6-.75 1.94-.89.35-.14 1.24-.52 2.66-1.16a70.28 70.28 0 0 0 3.43-1.63c.86-.45 1.82-1.13 2.88-2.04 1.06-.92 2-1.77 2.82-2.55.83-.78 1.41-1.4 1.75-1.83.34-.43.6-.85.8-1.26a28.06 28.06 0 0 0 .7-1.53c.02-.04.01-.03-.03.02l-.06.06c0-.02.02-.04.04-.06a16.69 16.69 0 0 0-.33.3c-.24.24-.35.36-.32.37.03 0 .04.03.04.09v.09c.02 0 .03.02.05.04"/>
  <path stroke="#85D7F5" stroke-linecap="round" stroke-linejoin="round" stroke-width="9" d="M415.83 51.35c-.16.02-.27-.17-.33-.57-.06-.4-.13-.73-.2-.97a1.2 1.2 0 0 1-.05-.67c.05-.2.08-.31.09-.3v.02c-.02.01 0-.02.04-.1.05-.06.14-.18.29-.33.14-.15.29-.23.43-.25.14 0 .03.35-.32 1.08-.36.73-.49 1.01-.38.84.1-.16.19-.38.25-.63l.08-.39-.05.06c-.02.04.01.06.08.08.08 0 .3-.1.65-.34.36-.24.56-.27.6-.09.04.18.06.26.04.23-.02-.03-.03.1-.03.4v.34c-.01-.07.04-.22.14-.45s-.17.66-.8 2.67c-.63 2-.78 2.98-.47 2.92.3-.07.42-.1.33-.12-.08-.01-.08-.07.02-.19.1-.11.44-.62 1-1.52s.83-1.25.82-1.05c0 .2.02.21.08.01.06-.2-.03.03-.3.7l-.61 1.65c-.15.43-.27.8-.34 1.1l-.17.64-.13.5c-.04.21.71-.6 2.27-2.45 1.54-1.84 2.32-2.76 2.33-2.76l.07.23c.03.16-.4.82-1.27 2a17.47 17.47 0 0 0-2.13 3.71c-.54 1.3-.8 1.94-.78 1.92a11.21 11.21 0 0 0 .48-.47c-.14.16.24-.36 1.13-1.55.9-1.2 1.63-2.37 2.22-3.52l.88-1.73h-.12c-.07-.01-.9 1.46-2.49 4.42a99.87 99.87 0 0 0-2.4 4.6c-.02.13.4-.4 1.25-1.58l3.66-5.06c1.59-2.2 2.37-3.17 2.35-2.9-.03.26-.04.37-.05.32v.04c0 .07-.43.77-1.27 2.1a44.42 44.42 0 0 0-2.59 4.58c.01 0 .08-.01.22-.07.13-.06.2-.13.23-.2.02-.09-.02-.06-.1.07-.07.13.36-.33 1.32-1.39.95-1.06 1.72-1.94 2.3-2.63a106.59 106.59 0 0 1 2.34-2.73h-.12c-.07.01-.07 0 0-.03l-.09.02a6.09 6.09 0 0 0-1.13.58c.1-.03-.04.06-.42.28l-1.08.62c-.35.2-.55.28-.6.23-.05-.05-.06-.09-.05-.1.02-.03.02-.04 0-.03v.01h-.05s0 0 0 0v-.01s0 0 0 0l.14-.01h.08-.19c-.09 0-.1 0-.03-.01l.16-.01h-.16c-.14 0-.16-.02-.07-.03a639.17 639.17 0 0 1 1.2-.13 2.2 2.2 0 0 1 .86.02c-.02-.02-.03-.01-.04 0-.01.03.2-.03.63-.17a7.04 7.04 0 0 1 2.54.06c1.26.17 2.27.34 3.03.5.75.17 1.25.25 1.5.25a20.92 20.92 0 0 0 3.37-.58c.71-.18 1.63-.23 2.77-.14 1.13.1 2.02.2 2.65.32a8.3 8.3 0 0 0 2.02.2c.25.01.56 0 .94-.05.39-.05.82-.14 1.32-.26l1.21-.31c.32-.08.56-.12.73-.14l2.16-.22c1.27-.14 2.3-.28 3.09-.41.79-.14 1.48-.33 2.1-.57l2.06-.8c.77-.29 1.28-.47 1.53-.55.25-.07.82-.28 1.7-.61a100.34 100.34 0 0 0 7.83-3.45 311.86 311.86 0 0 0 2.72-1.37 3.16 3.16 0 0 1 .94-.19 3.77 3.77 0 0 1 .51-.02c.18 0 .35.01.5.05.15.04.33-.04.56-.23.22-.19.41-.34.58-.46a4 4 0 0 0 .4-.32c.1-.1.24-.2.41-.33l.58-.41c.21-.17.29-.24.22-.22-.06.02-.03-.01.1-.1l.4-.27.2-.14a15.82 15.82 0 0 1 .47-.43l.25-.26a3.4 3.4 0 0 1 .33-.35v.03c-.02.03.04-.04.16-.24l.17-.26v.05c0 .02.03-.01.06-.08l.09-.22.08-.23a7.8 7.8 0 0 1 .5-.98 5.53 5.53 0 0 0 .36-.78c0-.04.02-.08.08-.14a3.61 3.61 0 0 0 .19-.19l.11-.16a.42.42 0 0 0 .08-.21c0-.08-.01.01-.05.28l-.04.28c0-.09-.04.01-.13.29l-.1.3c.02-.06 0-.04-.08.07-.07.11-.23.92-.47 2.41-.23 1.5-.44 2.69-.63 3.58-.18.89-.35 1.61-.5 2.17l-1.37 5.01c-.75 2.79-1.38 5.15-1.88 7.09-.5 1.94-.84 3.87-1.01 5.81-.18 1.94-.03 3.64.43 5.1.46 1.48.68 2.1.64 1.9-.04-.22.37-2.86 1.25-7.92.88-5.05 1.5-8.96 1.88-11.73.37-2.76.44-4.19.22-4.26-.22-.08-.7 1.21-1.46 3.88a84.05 84.05 0 0 0-2.02 9.53 291.27 291.27 0 0 1-2.54 14.05 72.51 72.51 0 0 1-1.16 4.93 115.97 115.97 0 0 0-1.44 5.88c-.06.36-.06.49.02.37s.36-2.21.84-6.28c.47-4.06.8-7.41 1-10.05.2-2.64.5-4.71.89-6.22.39-1.5.6-2.22.6-2.14.02.08-.08 1.27-.3 3.57l-.6 7.23a46.6 46.6 0 0 1-1.43 8.17 405.3 405.3 0 0 1-1.76 6.6 41.31 41.31 0 0 1-1.22 3.77 6.26 6.26 0 0 1-1.05 1.99c-.29.28-.55.4-.78.39-.22-.03-.26-1.36-.1-4.02.15-2.66.33-4.74.53-6.24s.33-2.6.4-3.3c.05-.7.14-1.35.23-1.97.1-.62.31-1.78.64-3.48.32-1.7.68-3.03 1.06-4 .38-.95.6-1.38.68-1.28.07.1-.42 2.2-1.48 6.32-1.06 4.11-1.96 7.54-2.69 10.3-.73 2.74-1.4 5.01-2.02 6.8a47.27 47.27 0 0 1-2.15 5.38c-.08.22.2-1.12.86-4.02l2.35-10.55a140.6 140.6 0 0 0 1.3-6.05 164.98 164.98 0 0 0-3.32 7.68c-.52 1.32-1.06 2.68-1.6 4.09-.56 1.4-1.2 2.89-1.94 4.44a45.57 45.57 0 0 1-2.06 3.92c-.64 1.06-1 1.51-1.07 1.37-.08-.15.03-.8.33-1.95l.95-3.63c.33-1.27.67-2.83 1-4.68a25.64 25.64 0 0 1 1.77-6.03l-1.79 4.78c-1.17 3.1-2.1 5.47-2.77 7.1a84.18 84.18 0 0 1-1.74 3.97 7.35 7.35 0 0 1-1.03 1.78c-.21.18-.32.2-.32.07 0-.14-.06-.2-.18-.22-.11 0 0-1.28.36-3.85.36-2.56.57-4.53.66-5.9.08-1.38.02-2.09-.19-2.13-.2-.04-.65.58-1.35 1.87a300.6 300.6 0 0 1-1.72 3.17 26.02 26.02 0 0 0-1.6 3.31c-.3.69-.62 1.18-.96 1.48-.34.3-.7.44-1.07.42-.37-.03-.3-1.68.2-4.95.51-3.27.73-4.78.66-4.53a87 87 0 0 1-1.21 3.2 85.1 85.1 0 0 1-1.86 4.48c-.5 1.1-.79 1.63-.85 1.57-.05-.05.02-.78.24-2.18.2-1.4.39-2.46.54-3.17a8.5 8.5 0 0 0 .2-1.84c0-.52-.06-.92-.15-1.2a1.7 1.7 0 0 0-.32-.6c-.11-.13-.16-.19-.13-.18.02.01-.03.02-.18 0-.14 0-.24.02-.3.08s-.18.31-.37.75l-.47 1.11c-.13.31-.54 1.17-1.25 2.59-.7 1.41-1.06 2.04-1.06 1.88l-.01-.2v-.21a.9.9 0 0 0 0-.22c0 .02.06 0 .18-.05.13-.05-.07-.37-.6-.95-.52-.59-.92-1.06-1.21-1.42a2 2 0 0 0-.77-.66 4.93 4.93 0 0 1-1.4-.78l-.77-.58c-.19-.13-.38-.3-.59-.5-.2-.2-.7-.81-1.5-1.83s-1.5-1.78-2.1-2.28c-.62-.5-1.06-1.46-1.33-2.88-.27-1.41-.5-2.53-.68-3.37a10.5 10.5 0 0 0-.82-2.34c-.35-.73-.94-1.63-1.77-2.68a242.37 242.37 0 0 0-3.36-4.19 17.45 17.45 0 0 1-.75-.82c-.09-.08-.11-.13-.08-.13.04 0-.11-.14-.45-.4a6.3 6.3 0 0 1-1.28-1.86c-.51-.97-.9-1.9-1.17-2.78-.27-.89-.46-1.62-.56-2.19-.1-.57-.12-1-.05-1.3.08-.29.22-.62.41-.98l.59-1.07c.19-.34.35-.64.47-.9a5.11 5.11 0 0 1 .73-1.1l.04.1c.02.06-.03.3-.14.7-.12.41 0 1.12.36 2.14.36 1 .63 1.8.82 2.38.19.58.33 1.17.43 1.76.1.6.4 1.97.9 4.13s.85 3.83 1.07 5.02c.2 1.19.5 2.4.87 3.65.38 1.25.84 2.4 1.38 3.46a10.5 10.5 0 0 0 1.6 2.4c.52.55 1.21.97 2.07 1.27.87.3 1.56.53 2.1.68.54.15 1 .17 1.4.05.4-.11.6-.25.63-.4.02-.16.1-.33.24-.52.13-.18.3-.9.49-2.14a15.84 15.84 0 0 0-.7-7.54 44.84 44.84 0 0 0-1.9-4.65 86.06 86.06 0 0 0-2.3-4.63 31.89 31.89 0 0 0-1.87-3.1 7.22 7.22 0 0 0-1.34-1.54 6.01 6.01 0 0 0-.89-.59c-.21-.1-.45-.09-.72.04-.26.14-.5.4-.73.77a4.78 4.78 0 0 0-.47 1.9c-.08.9-.12 1.56-.11 1.99 0 .42.02.82.07 1.18.04.36.1.61.16.74l.07.15c0-.03-.02-.03-.04 0l-.02.02c0-.02.12-.03.35-.05.23-.02.44-.24.61-.65a79.86 79.86 0 0 1 2.8-5.15c.44-.73.86-1.4 1.25-2 .4-.59.83-1.43 1.31-2.51.48-1.09.73-1.67.75-1.75.02-.08-.6.91-1.89 2.97a51.05 51.05 0 0 1-3.58 5.13c-1.1 1.36-1.73 1.93-1.89 1.71-.15-.21-.13-.85.07-1.9.2-1.06.56-2.03 1.08-2.9.52-.88 1-1.6 1.43-2.16.43-.57.8-.87 1.1-.92.29-.04.5-.1.66-.15.15-.06-.16 1.27-.95 3.99a78.69 78.69 0 0 0-1.64 6.46c-.31 1.6-.5 2.39-.55 2.39-.05 0 .1.04.44.15.35.1.9-.2 1.69-.93.77-.73 1.49-1.56 2.14-2.49l1.5-2.17c.35-.52 1-1.46 1.97-2.83a12.6 12.6 0 0 0 1.94-3.9c.34-1.22.44-1.78.3-1.65-.12.13-.63.93-1.52 2.4a103.22 103.22 0 0 0-4.67 8.73c-.64 1.39-1.16 2.48-1.56 3.26-.4.8-.64 1.42-.72 1.9-.08.47-.02.72.17.76.2.03.86-.9 2-2.82a145.5 145.5 0 0 1 6.7-10.4c.36-.5.71-.93 1.07-1.3.35-.37.54-.52.56-.44.02.07-.24.56-.76 1.46-.53.91-1.39 2.6-2.58 5.06-1.19 2.47-2.17 4.47-2.93 6a13.4 13.4 0 0 0-1.28 3.18c-.1.6-.14.88-.16.86l.13.14c.1.1 1.06-1.09 2.88-3.6l4.24-5.82c1-1.36 1.78-2.56 2.33-3.6a25.88 25.88 0 0 0 1.49-3.4c.44-1.24.7-1.81.77-1.7.08.1-.54 1.41-1.87 3.95a120.2 120.2 0 0 0-3.77 7.96c-1.2 2.77-2.15 4.91-2.88 6.42a13.89 13.89 0 0 0-1.22 3.13c-.08.56 0 .81.25.74.25-.07 1.02-1.19 2.3-3.36a158.3 158.3 0 0 0 3.36-5.9 82.06 82.06 0 0 0 3.67-7.64c.13-.3.82-1.69 2.07-4.18a116.2 116.2 0 0 1 1.9-3.74c.03 0 .05 0 .06-.03l-3.52 6.86a1734.02 1734.02 0 0 1-8.25 15.86 9.92 9.92 0 0 0-1 2.4c-.06.44 0 .73.18.88.18.15.72-.47 1.62-1.85a6440.41 6440.41 0 0 0 5.5-8.62c.6-.96 1.47-2.47 2.57-4.53a76.42 76.42 0 0 1 4.62-7.3c1.97-2.8 2.96-4.16 2.97-4.06 0 .1-.66 1.32-2 3.66-1.32 2.35-2.39 4.32-3.19 5.94l-2.84 5.76c-1.1 2.23-2.23 4.46-3.38 6.7a28 28 0 0 0-2.22 5.22c-.32 1.25-.39 1.94-.2 2.08.2.14.97-.86 2.3-3A610.22 610.22 0 0 0 443.92 68l1.5-2.6c.38-.7.69-1.3.92-1.8a341.56 341.56 0 0 1 3.77-7.24 18.81 18.81 0 0 1 2.2-3.31c.74-.87 1.12-1.3 1.13-1.3h.13c.08 0-.86 1.66-2.81 5A167.94 167.94 0 0 0 444.1 69c-.44.88-1.35 2.64-2.73 5.28a40.58 40.58 0 0 0-3.81 10.02c-.01.15.39-.49 1.2-1.92l2.02-3.6c.53-.96 1.02-1.8 1.46-2.5a110.62 110.62 0 0 0 4.53-7.95c1.18-2.23 2.07-3.95 2.65-5.15a43.6 43.6 0 0 1 2.83-5.06 123.57 123.57 0 0 1 2.43-3.65c.06-.08-.7 1.27-2.31 4.05a229.6 229.6 0 0 0-5.62 10.2c-.49.93-.96 1.79-1.42 2.59a606.43 606.43 0 0 0-5.38 9.73 25.65 25.65 0 0 0-1.66 3.68l-.52 1.49c0-.02 0 .03.05.14.03.1.38-.3 1.05-1.25.66-.95 1.14-1.72 1.44-2.3.3-.59.86-1.55 1.69-2.88.83-1.33 1.86-2.9 3.1-4.7 1.24-1.82 2.5-3.75 3.79-5.8a95.7 95.7 0 0 0 2.91-4.88c.66-1.2 1.51-2.7 2.56-4.45a30.05 30.05 0 0 1 2.72-3.97 6.48 6.48 0 0 1 1.36-1.38c.13-.02-.28.81-1.24 2.5l-2.96 5.18a295.15 295.15 0 0 0-2.19 3.83c-.44.8-1.33 2.48-2.65 5.03a241.13 241.13 0 0 0-3.47 6.9 134.2 134.2 0 0 0-2.3 5.01 8.55 8.55 0 0 0-.85 2.75c0 .54.06.94.18 1.2.12.27 1.02-.84 2.68-3.32 1.66-2.49 3-4.5 4.03-6.02a83.62 83.62 0 0 1 2.46-3.52c.62-.82 1.36-1.94 2.24-3.36a91.78 91.78 0 0 0 4.86-9.47 53.1 53.1 0 0 1 2.51-4.88 30.66 30.66 0 0 1 1.85-3.08c.08-.03-.78 1.4-2.57 4.29-1.8 2.88-3.53 5.95-5.21 9.21a324.37 324.37 0 0 1-3.82 7.24 93.8 93.8 0 0 0-2.53 4.93 23.65 23.65 0 0 0-1.6 4.01c-.24.96-.28 1.55-.13 1.78.15.23 1.32-1.27 3.5-4.52 2.2-3.24 4.14-6.05 5.84-8.43a103.7 103.7 0 0 0 3.81-5.63 83.5 83.5 0 0 0 2.27-3.93c.67-1.24 1.2-2.18 1.58-2.83.38-.66.65-1.19.81-1.6a135.75 135.75 0 0 1 3.65-6.32c.02.01.05.09.12.23.06.15-.94 1.87-3 5.16-2.05 3.29-4.26 7.22-6.61 11.79a1601.97 1601.97 0 0 0-7.76 15.23c-.57 1.14-.9 1.96-1.01 2.45-.1.49-.08.78.1.88.16.1 1.48-1.88 3.94-5.96 2.45-4.07 4.37-7.3 5.75-9.7 1.38-2.39 2.43-4.28 3.15-5.67a34 34 0 0 0 1.57-3.37c.33-.87 1.68-3.3 4.06-7.33 2.37-4.02 3.64-5.98 3.81-5.87.17.1-.44 1.21-1.83 3.33-1.4 2.1-2.87 4.57-4.42 7.39-1.55 2.82-2.65 4.9-3.3 6.27a157.1 157.1 0 0 1-1.62 3.34c-.44.86-1.2 2.47-2.27 4.84l-1.7 3.73 2.72-4.92a783.7 783.7 0 0 1 4.73-8.44c1.27-2.23 2.42-4.38 3.43-6.46a95.32 95.32 0 0 1 2.56-4.96c.7-1.23 1.22-2.77 1.6-4.64.36-1.86.49-2.79.37-2.77-.12.02-1.04 1.17-2.77 3.48-1.73 2.3-3.83 5.75-6.28 10.36l-5.84 10.98a48.9 48.9 0 0 0-2.72 5.74 34.57 34.57 0 0 0-.56 1.68l-.02.32c-.02.21.3-.37.93-1.73a1225.37 1225.37 0 0 1 2.94-6.22l.62-1.23a68.81 68.81 0 0 0 2.1-4.74l.9-2.14c.45-1.1 1.1-3.17 1.97-6.2a68.16 68.16 0 0 1 2.43-7.32 55.82 55.82 0 0 0 1.08-2.68 22.09 22.09 0 0 1-1.8 2.96l-3.33 4.84c-1.42 2.05-2.5 3.56-3.24 4.54-.74.98-1.3 1.86-1.7 2.66a8.4 8.4 0 0 0-.7 1.83c-.09.42-.1.67-.05.76.06.09 1-1.16 2.85-3.74 1.84-2.58 3.39-4.66 4.65-6.23a30 30 0 0 0 2.95-4.32 11.67 11.67 0 0 0 1.53-4.7c-.03-.02-.64.88-1.82 2.7a58.71 58.71 0 0 0-7 15.14c-.26.88-.6 1.84-.98 2.9a27.72 27.72 0 0 0-1.5 7.28l-.06 2.06c-.02.46.03.82.13 1.08.11.25.38.51.8.79.44.27 1.39-.3 2.85-1.69a40.99 40.99 0 0 0 5.15-5.75c.48-.61.96-1.25 1.44-1.91.48-.67.88-1.18 1.2-1.53.32-.35.47-.41.44-.19-.03.23-.06.34-.07.34a61.07 61.07 0 0 1-1.59 3.02 204.5 204.5 0 0 1-2.86 5.07 165.06 165.06 0 0 0-4.35 7.94c-.75 1.45-1.18 2.15-1.3 2.1-.13-.04.31-1.24 1.33-3.59 1.01-2.34 1.84-4.15 2.46-5.42.63-1.27 1.17-2.7 1.6-4.3.44-1.61.76-2.83.97-3.65.21-.82.35-1.24.42-1.24.06 0-.47.97-1.6 2.91a72.26 72.26 0 0 0-2.8 5.28 17.59 17.59 0 0 0-1.72 5.46"/>
  <path stroke="#F7F5E9" stroke-linecap="round" stroke-linejoin="round" stroke-width="3.86" d="M422.24 63.13c.17.08.08-.03-.26-.33-.34-.3-.57-.69-.68-1.16a2.38 2.38 0 0 1-.03-1.18c.1-.32.3-.74.63-1.28.33-.53.85-1.08 1.55-1.64a8.6 8.6 0 0 1 4.82-1.74c.75-.02 1.37 0 1.86.04.5.05 1.16.47 1.98 1.25a7.01 7.01 0 0 1 1.79 2.66l.68 1.86M459.61 58.95c-.1-.05-.21-.21-.35-.5-.15-.28-.09-.71.17-1.3.25-.58.69-1.1 1.3-1.57.62-.45 1.13-.79 1.54-1 .41-.2 1.02-.35 1.84-.45.8-.09 1.56-.03 2.25.19a10.5 10.5 0 0 1 4.4 2.74c.79.77 1.04 1.87.76 3.3a18.38 18.38 0 0 1-.57 2.4M440.8 88.8c-.1.34-.07.7.1 1.07a6 6 0 0 0 1.25 1.73c.17.13.44.4.82.78.37.4 1.03.86 1.97 1.4.94.53 1.83.91 2.66 1.13.84.22 1.47.35 1.89.41a13.26 13.26 0 0 0 3 .05 5.71 5.71 0 0 0 1.83-.62 6.49 6.49 0 0 0 2.3-2.3 19.52 19.52 0 0 0 1.78-3.18 14.4 14.4 0 0 0 1.03-3.33"/>
  <path stroke="#85D7F5" stroke-linecap="round" stroke-linejoin="round" stroke-width="3.86" d="M411.1 43.5a.87.87 0 0 0-.06-.08 715.23 715.23 0 0 1 .9 5.27l1.36 7.76a49.14 49.14 0 0 0 1.61 6.62c.26.82.71 1.98 1.36 3.48.64 1.5 1.43 3.23 2.36 5.21l2.78 5.88c.92 1.94 1.6 3.4 2.04 4.4.44 1 1.07 2.14 1.87 3.43l1.99 3.1a54.84 54.84 0 0 0 6.07 7.1c1.4 1.4 3.05 2.7 4.92 3.92a43.6 43.6 0 0 0 5.4 3.03c1.73.8 3.25 1.34 4.58 1.62 1.32.29 2.58.43 3.79.44 1.2.01 2.4-.13 3.55-.43 1.16-.3 2.51-.78 4.06-1.42a21.7 21.7 0 0 0 7.56-5.28c.94-1.04 1.75-2 2.43-2.84.69-.86 1.4-1.98 2.17-3.36.76-1.39 1.41-2.7 1.96-3.94.56-1.24 1.15-2.6 1.8-4.1.65-1.5 1.32-4.64 2.03-9.44l1.7-11.56c.42-2.9.79-5.06 1.1-6.49.3-1.42.64-3.42 1.03-6 .38-2.57.67-4.56.86-5.98.18-1.42.38-2.8.59-4.16.21-1.36.3-2.34.3-2.93-.02-.6-.04-.76-.06-.5l-.02.26.01.24V37v-.11l.01.02.08.04c.04.02.04.04-.02.05-.05.02-.07.03-.04.03h-.02.03c.06 0-.01.01-.21.05l-.32.07"/>
  <path stroke="#85D7F5" stroke-linecap="round" stroke-linejoin="round" stroke-width="3.86" d="M411.42 39.42a3.58 3.58 0 0 0-.14-.34l-.05-.14c-.02-.06-.03-.08-.04-.06 0 .02 0 .02 0 0a.3.3 0 0 1-.02-.1c0-.05-.04.03-.1.23a.84.84 0 0 0-.05.5c.04.13.08.23.12.3.04.09.06.1.06.07 0-.04.07.07.2.32.12.25.77.85 1.94 1.8a28.34 28.34 0 0 0 5.79 3.66c.59.27 1.14.48 1.64.65l3 .97c1.49.49 3.6.91 6.34 1.27 2.74.36 5.35.57 7.81.65a52.3 52.3 0 0 0 7.66-.37c2.64-.3 5-.73 7.07-1.25a39.48 39.48 0 0 0 5.7-1.88 95.28 95.28 0 0 0 4.02-1.78c.95-.46 1.6-.76 1.95-.9.35-.13 1.24-.52 2.66-1.16a70.27 70.27 0 0 0 3.43-1.63c.86-.44 1.82-1.12 2.88-2.04 1.06-.91 2-1.76 2.82-2.54.83-.79 1.41-1.4 1.75-1.83.34-.44.6-.86.8-1.27a27.98 27.98 0 0 0 .7-1.53c.02-.03.01-.03-.04.03l-.05.05.03-.06.02-.03-.35.34c-.24.23-.34.35-.31.36.02.01.04.04.03.1 0 .04 0 .07.02.08l.04.04"/>
  <path stroke="#85D7F5" stroke-linecap="round" stroke-linejoin="round" stroke-width="9" d="M263.83 48.35c-.16.02-.27-.17-.33-.57-.06-.4-.13-.73-.2-.97a1.2 1.2 0 0 1-.05-.67c.05-.2.08-.31.09-.3v.02c-.02.01 0-.02.04-.1.05-.06.14-.18.29-.33.14-.15.29-.23.43-.25.14 0 .03.35-.32 1.08-.36.73-.49 1.01-.38.84.1-.16.19-.38.25-.63l.08-.39-.05.06c-.02.04.01.06.08.08.08 0 .3-.1.65-.34.36-.24.56-.27.6-.09.04.18.06.26.04.23-.02-.03-.03.1-.03.4v.34c-.01-.07.04-.22.14-.45s-.17.66-.8 2.67c-.63 2-.78 2.98-.47 2.92.3-.07.42-.1.33-.12-.08-.01-.08-.07.02-.19.1-.11.44-.62 1-1.52s.83-1.25.82-1.05c0 .2.02.21.08.01.06-.2-.03.03-.3.7l-.61 1.65c-.15.43-.27.8-.34 1.1l-.17.64-.13.5c-.04.21.71-.6 2.27-2.45 1.54-1.84 2.32-2.76 2.33-2.76l.07.23c.03.16-.4.82-1.27 2a17.47 17.47 0 0 0-2.13 3.71c-.54 1.3-.8 1.94-.78 1.92a11.21 11.21 0 0 0 .48-.47c-.14.16.24-.36 1.13-1.55.9-1.2 1.63-2.37 2.22-3.52l.88-1.73h-.12c-.07-.01-.9 1.46-2.49 4.42a99.87 99.87 0 0 0-2.4 4.6c-.02.13.4-.4 1.25-1.58l3.66-5.06c1.59-2.2 2.37-3.17 2.35-2.9-.03.26-.04.37-.05.32v.04c0 .07-.43.77-1.27 2.1a44.42 44.42 0 0 0-2.59 4.58c.01 0 .08-.01.22-.07.13-.06.2-.13.23-.2.02-.09-.02-.06-.1.07-.07.13.36-.33 1.32-1.39.95-1.06 1.72-1.94 2.3-2.63a106.59 106.59 0 0 1 2.34-2.73h-.12c-.07.01-.07 0 0-.03l-.09.02a6.09 6.09 0 0 0-1.13.58c.1-.03-.04.06-.42.28l-1.08.62c-.35.2-.55.28-.6.23-.05-.05-.06-.09-.05-.1.02-.03.02-.04 0-.03v.01h-.05s0 0 0 0v-.01s0 0 0 0l.14-.01h.08-.19c-.09 0-.1 0-.03-.01l.16-.01h-.16c-.14 0-.16-.02-.07-.03a639.17 639.17 0 0 1 1.2-.13 2.2 2.2 0 0 1 .86.02c-.02-.02-.03-.01-.04 0-.01.03.2-.03.63-.17a7.04 7.04 0 0 1 2.54.06c1.26.17 2.27.34 3.03.5.75.17 1.25.25 1.5.25a20.92 20.92 0 0 0 3.37-.58c.71-.18 1.63-.23 2.77-.14 1.13.1 2.02.2 2.65.32a8.3 8.3 0 0 0 2.02.2c.25.01.56 0 .94-.05.39-.05.82-.14 1.32-.26l1.21-.31c.32-.08.56-.12.73-.14l2.16-.22c1.27-.14 2.3-.28 3.09-.41.79-.14 1.48-.33 2.1-.57l2.06-.8c.77-.29 1.28-.47 1.53-.55.25-.07.82-.28 1.7-.61a100.34 100.34 0 0 0 7.83-3.45 311.86 311.86 0 0 0 2.72-1.37 3.16 3.16 0 0 1 .94-.19 3.77 3.77 0 0 1 .51-.02c.18 0 .35.01.5.05.15.04.33-.04.56-.23.22-.19.41-.34.58-.46a4 4 0 0 0 .4-.32c.1-.1.24-.2.41-.33l.58-.41c.21-.17.29-.24.22-.22-.06.02-.03-.01.1-.1l.4-.27.2-.14a15.82 15.82 0 0 1 .47-.43l.25-.26a3.4 3.4 0 0 1 .33-.35v.03c-.02.03.04-.04.16-.24l.17-.26v.05c0 .02.03-.01.06-.08l.09-.22.08-.23a7.8 7.8 0 0 1 .5-.98 5.53 5.53 0 0 0 .36-.78c0-.04.02-.08.08-.14a3.61 3.61 0 0 0 .19-.19l.11-.16a.42.42 0 0 0 .08-.21c0-.08-.01.01-.05.28l-.04.28c0-.09-.04.01-.13.29l-.1.3c.02-.06 0-.04-.08.07-.07.11-.23.92-.47 2.41-.23 1.5-.44 2.69-.63 3.58-.18.89-.35 1.61-.5 2.17l-1.37 5.01c-.75 2.79-1.38 5.15-1.88 7.09-.5 1.94-.84 3.87-1.01 5.81-.18 1.94-.03 3.64.43 5.1.46 1.48.68 2.1.64 1.9-.04-.22.37-2.86 1.25-7.92.88-5.05 1.5-8.96 1.88-11.73.37-2.76.44-4.19.22-4.26-.22-.08-.7 1.21-1.46 3.88a84.05 84.05 0 0 0-2.02 9.53 291.27 291.27 0 0 1-2.54 14.05 72.51 72.51 0 0 1-1.16 4.93 115.97 115.97 0 0 0-1.44 5.88c-.06.36-.06.49.02.37s.36-2.21.84-6.28c.47-4.06.8-7.41 1-10.05.2-2.64.5-4.71.89-6.22.39-1.5.6-2.22.6-2.14.02.08-.08 1.27-.3 3.57l-.6 7.23a46.6 46.6 0 0 1-1.43 8.17 405.3 405.3 0 0 1-1.76 6.6 41.31 41.31 0 0 1-1.22 3.77 6.26 6.26 0 0 1-1.05 1.99c-.29.28-.55.4-.78.39-.22-.03-.26-1.36-.1-4.02.15-2.66.33-4.74.53-6.24s.33-2.6.4-3.3c.05-.7.14-1.35.23-1.97.1-.62.31-1.78.64-3.48.32-1.7.68-3.03 1.06-4 .38-.95.6-1.38.68-1.28.07.1-.42 2.2-1.48 6.32-1.06 4.11-1.96 7.54-2.69 10.3-.73 2.74-1.4 5.01-2.02 6.8a47.27 47.27 0 0 1-2.15 5.38c-.08.22.2-1.12.86-4.02l2.35-10.55a140.6 140.6 0 0 0 1.3-6.05 164.98 164.98 0 0 0-3.32 7.68c-.52 1.32-1.06 2.68-1.6 4.09-.56 1.4-1.2 2.89-1.94 4.44a45.57 45.57 0 0 1-2.06 3.92c-.64 1.06-1 1.51-1.07 1.37-.08-.15.03-.8.33-1.95l.95-3.63c.33-1.27.67-2.83 1-4.68a25.64 25.64 0 0 1 1.77-6.03l-1.79 4.78c-1.17 3.1-2.1 5.47-2.77 7.1a84.18 84.18 0 0 1-1.74 3.97 7.33 7.33 0 0 1-1.03 1.78c-.21.18-.32.2-.32.07 0-.14-.06-.2-.18-.21-.11-.01 0-1.3.36-3.86.36-2.56.57-4.53.66-5.9.08-1.38.02-2.09-.19-2.13-.2-.04-.65.58-1.35 1.87a300.6 300.6 0 0 1-1.72 3.17 26.02 26.02 0 0 0-1.6 3.31c-.3.69-.62 1.18-.96 1.48-.34.3-.7.44-1.07.42-.37-.03-.3-1.68.2-4.95.51-3.27.73-4.78.66-4.53a87 87 0 0 1-1.21 3.2 85.1 85.1 0 0 1-1.86 4.48c-.5 1.1-.79 1.63-.85 1.57-.05-.05.02-.78.24-2.18.2-1.4.39-2.46.54-3.17a8.5 8.5 0 0 0 .2-1.84c0-.52-.06-.92-.15-1.2a1.7 1.7 0 0 0-.32-.6c-.11-.13-.16-.19-.13-.18.02.01-.03.02-.18 0-.14 0-.24.02-.3.08s-.18.31-.37.75l-.47 1.11c-.13.31-.54 1.17-1.25 2.59-.7 1.41-1.06 2.04-1.06 1.88l-.01-.2v-.21a.9.9 0 0 0 0-.22c0 .02.06 0 .18-.05.13-.05-.07-.37-.6-.95-.52-.59-.92-1.06-1.21-1.42a2 2 0 0 0-.77-.66 4.93 4.93 0 0 1-1.4-.78l-.77-.58c-.19-.13-.38-.3-.59-.5-.2-.2-.7-.81-1.5-1.83s-1.5-1.78-2.1-2.28c-.62-.5-1.06-1.46-1.33-2.88-.27-1.41-.5-2.53-.68-3.37a10.5 10.5 0 0 0-.82-2.34c-.35-.73-.94-1.63-1.77-2.68a242.37 242.37 0 0 0-3.36-4.19 17.45 17.45 0 0 1-.75-.82c-.09-.08-.11-.13-.08-.13.04 0-.11-.14-.45-.4a6.3 6.3 0 0 1-1.28-1.86c-.51-.97-.9-1.9-1.17-2.78-.27-.89-.46-1.62-.56-2.19-.1-.57-.12-1-.05-1.3.08-.29.22-.62.41-.98l.59-1.07c.19-.34.35-.64.47-.9a5.11 5.11 0 0 1 .73-1.1l.04.1c.02.06-.03.3-.14.7-.12.41 0 1.12.36 2.14.36 1 .63 1.8.82 2.38.19.58.33 1.17.43 1.76.1.6.4 1.97.9 4.13s.85 3.83 1.07 5.02c.2 1.19.5 2.4.87 3.65.38 1.25.84 2.4 1.38 3.46a10.5 10.5 0 0 0 1.6 2.4c.52.55 1.21.97 2.07 1.27.87.3 1.56.53 2.1.68.54.15 1 .17 1.4.05.4-.11.6-.25.63-.4.02-.16.1-.33.24-.52.13-.18.3-.9.49-2.14a15.84 15.84 0 0 0-.7-7.54 44.84 44.84 0 0 0-1.9-4.65 86.06 86.06 0 0 0-2.3-4.63 31.89 31.89 0 0 0-1.87-3.1 7.22 7.22 0 0 0-1.34-1.54 6.01 6.01 0 0 0-.89-.59c-.21-.1-.45-.09-.72.04-.26.14-.5.4-.73.77a4.78 4.78 0 0 0-.47 1.9c-.08.9-.12 1.56-.11 1.99 0 .42.02.82.07 1.18.04.36.1.61.16.74l.07.15c0-.03-.02-.03-.04 0l-.02.02c0-.02.12-.04.35-.05.23-.02.44-.24.61-.65a79.86 79.86 0 0 1 2.8-5.15c.44-.73.86-1.4 1.25-2 .4-.59.83-1.43 1.31-2.51.48-1.09.73-1.67.75-1.75.02-.08-.6.91-1.89 2.97a51.05 51.05 0 0 1-3.58 5.13c-1.1 1.36-1.73 1.93-1.89 1.71-.15-.21-.13-.85.07-1.9.2-1.06.56-2.03 1.08-2.9.52-.88 1-1.6 1.43-2.16.43-.57.8-.87 1.1-.92.29-.04.5-.1.66-.15.15-.06-.16 1.27-.95 3.99a78.69 78.69 0 0 0-1.64 6.46c-.31 1.6-.5 2.39-.55 2.39-.05 0 .1.04.44.15.35.1.9-.2 1.69-.93.77-.73 1.49-1.56 2.14-2.49l1.5-2.17c.35-.52 1-1.46 1.97-2.83a12.6 12.6 0 0 0 1.94-3.9c.34-1.22.44-1.78.3-1.65-.12.13-.63.93-1.52 2.4a103.22 103.22 0 0 0-4.67 8.73c-.64 1.39-1.16 2.48-1.56 3.26-.4.8-.64 1.42-.72 1.9-.08.47-.02.72.17.76.2.03.86-.9 2-2.82a145.5 145.5 0 0 1 6.7-10.4c.36-.5.71-.93 1.07-1.3.35-.37.54-.52.56-.44.02.07-.24.56-.76 1.46-.53.91-1.39 2.6-2.58 5.06-1.19 2.47-2.17 4.47-2.93 6a13.4 13.4 0 0 0-1.28 3.18c-.1.6-.14.88-.16.86l.13.14c.1.1 1.06-1.09 2.88-3.6l4.24-5.82c1-1.36 1.78-2.56 2.33-3.6a25.88 25.88 0 0 0 1.49-3.4c.44-1.24.7-1.81.77-1.7.08.1-.54 1.41-1.87 3.95a120.2 120.2 0 0 0-3.77 7.96c-1.2 2.77-2.15 4.91-2.88 6.42a13.89 13.89 0 0 0-1.22 3.13c-.08.56 0 .81.25.74.25-.07 1.02-1.19 2.3-3.36a158.3 158.3 0 0 0 3.36-5.9 82.06 82.06 0 0 0 3.67-7.64c.13-.3.82-1.69 2.07-4.18a116.2 116.2 0 0 1 1.9-3.74c.03 0 .05 0 .06-.03l-3.52 6.86a1734.02 1734.02 0 0 1-8.25 15.86 9.92 9.92 0 0 0-1 2.4c-.06.44 0 .73.18.88.18.15.72-.47 1.62-1.85a6440.41 6440.41 0 0 0 5.5-8.62c.6-.96 1.47-2.47 2.57-4.53a76.42 76.42 0 0 1 4.62-7.3c1.97-2.8 2.96-4.16 2.97-4.06 0 .1-.66 1.32-2 3.66-1.32 2.35-2.39 4.32-3.19 5.94l-2.84 5.76c-1.1 2.23-2.23 4.46-3.38 6.7a28 28 0 0 0-2.22 5.22c-.32 1.25-.39 1.94-.2 2.08.2.14.97-.86 2.3-3A610.22 610.22 0 0 0 291.92 65l1.5-2.6c.38-.7.69-1.3.92-1.8a341.56 341.56 0 0 1 3.77-7.24 18.81 18.81 0 0 1 2.2-3.31c.74-.87 1.12-1.3 1.13-1.3h.13c.08 0-.86 1.66-2.81 5A167.94 167.94 0 0 0 292.1 66c-.44.88-1.35 2.64-2.73 5.28a40.58 40.58 0 0 0-3.81 10.02c-.01.15.39-.49 1.2-1.92l2.02-3.6c.53-.96 1.02-1.8 1.46-2.5a110.62 110.62 0 0 0 4.53-7.95c1.18-2.23 2.07-3.95 2.65-5.15a43.6 43.6 0 0 1 2.83-5.06 123.57 123.57 0 0 1 2.43-3.65c.06-.08-.7 1.27-2.31 4.05a229.6 229.6 0 0 0-5.62 10.2c-.49.93-.96 1.79-1.42 2.59a606.43 606.43 0 0 0-5.38 9.73 25.65 25.65 0 0 0-1.66 3.68l-.52 1.49c0-.02 0 .03.05.14.03.1.38-.3 1.05-1.25.66-.95 1.14-1.72 1.44-2.3.3-.59.86-1.55 1.69-2.88.83-1.33 1.86-2.9 3.1-4.7 1.24-1.82 2.5-3.75 3.79-5.8a95.7 95.7 0 0 0 2.91-4.88c.66-1.2 1.51-2.69 2.56-4.45a30.05 30.05 0 0 1 2.72-3.97 6.48 6.48 0 0 1 1.36-1.38c.13-.02-.28.81-1.24 2.5l-2.96 5.18a295.15 295.15 0 0 0-2.19 3.83c-.44.8-1.33 2.48-2.65 5.03a241.13 241.13 0 0 0-3.47 6.9 134.2 134.2 0 0 0-2.3 5.01 8.55 8.55 0 0 0-.85 2.75c0 .54.06.94.18 1.2.12.27 1.02-.84 2.68-3.32 1.66-2.49 3-4.5 4.03-6.02a83.62 83.62 0 0 1 2.46-3.52c.62-.82 1.36-1.94 2.24-3.36a91.78 91.78 0 0 0 4.86-9.47 53.1 53.1 0 0 1 2.51-4.88 30.66 30.66 0 0 1 1.85-3.08c.08-.03-.78 1.4-2.57 4.29-1.8 2.88-3.53 5.95-5.21 9.21a324.37 324.37 0 0 1-3.82 7.24 93.8 93.8 0 0 0-2.53 4.93 23.65 23.65 0 0 0-1.6 4.01c-.24.96-.28 1.55-.13 1.78.15.23 1.32-1.27 3.5-4.52 2.2-3.24 4.14-6.05 5.84-8.43a103.7 103.7 0 0 0 3.81-5.63 83.5 83.5 0 0 0 2.27-3.93c.67-1.24 1.2-2.18 1.58-2.83.38-.66.65-1.19.81-1.6a135.75 135.75 0 0 1 3.65-6.32c.02.01.05.09.12.23.06.15-.94 1.87-3 5.16-2.05 3.29-4.26 7.22-6.61 11.79a1601.97 1601.97 0 0 0-7.76 15.23c-.57 1.14-.9 1.96-1.01 2.45-.1.49-.08.78.1.88.16.1 1.48-1.88 3.94-5.96 2.45-4.07 4.37-7.3 5.75-9.7 1.38-2.39 2.43-4.28 3.15-5.67a34 34 0 0 0 1.57-3.37c.33-.87 1.68-3.3 4.06-7.33 2.37-4.02 3.64-5.98 3.81-5.87.17.1-.44 1.21-1.83 3.33-1.4 2.1-2.87 4.57-4.42 7.39-1.55 2.82-2.65 4.9-3.3 6.27a157.1 157.1 0 0 1-1.62 3.34c-.44.86-1.2 2.47-2.27 4.84l-1.7 3.73 2.72-4.92a783.7 783.7 0 0 1 4.73-8.44c1.27-2.23 2.42-4.38 3.43-6.46a95.32 95.32 0 0 1 2.56-4.96c.7-1.23 1.22-2.77 1.6-4.64.36-1.86.49-2.79.37-2.77-.12.02-1.04 1.17-2.77 3.48-1.73 2.3-3.83 5.75-6.28 10.36l-5.84 10.98a48.9 48.9 0 0 0-2.72 5.74 34.57 34.57 0 0 0-.56 1.68l-.02.32c-.02.21.3-.37.93-1.73a1225.37 1225.37 0 0 1 2.94-6.22l.62-1.23a68.81 68.81 0 0 0 2.1-4.74l.9-2.14c.45-1.1 1.1-3.17 1.97-6.2a68.16 68.16 0 0 1 2.43-7.32 55.82 55.82 0 0 0 1.08-2.68 22.09 22.09 0 0 1-1.8 2.96l-3.33 4.84c-1.42 2.05-2.5 3.56-3.24 4.54-.74.98-1.3 1.86-1.7 2.66a8.4 8.4 0 0 0-.7 1.83c-.09.42-.1.67-.05.76.06.09 1-1.16 2.85-3.74 1.84-2.58 3.39-4.66 4.65-6.23a30 30 0 0 0 2.95-4.32 11.67 11.67 0 0 0 1.53-4.7c-.03-.02-.64.88-1.82 2.7a58.71 58.71 0 0 0-7 15.14c-.26.88-.6 1.84-.98 2.9a27.72 27.72 0 0 0-1.5 7.28l-.06 2.06c-.02.46.03.82.13 1.08.11.25.38.51.8.79.44.27 1.39-.3 2.85-1.69a40.99 40.99 0 0 0 5.15-5.75c.48-.61.96-1.25 1.44-1.91.48-.67.88-1.18 1.2-1.53.32-.35.47-.41.44-.19-.03.22-.06.34-.07.34a61.07 61.07 0 0 1-1.59 3.02 204.5 204.5 0 0 1-2.86 5.07 165.06 165.06 0 0 0-4.35 7.94c-.75 1.45-1.18 2.15-1.3 2.1-.13-.04.31-1.24 1.33-3.59 1.01-2.34 1.84-4.15 2.46-5.42.63-1.27 1.17-2.7 1.6-4.3.44-1.61.76-2.83.97-3.65.21-.82.35-1.24.42-1.24.06 0-.47.97-1.6 2.91a72.26 72.26 0 0 0-2.8 5.28 17.59 17.59 0 0 0-1.72 5.46"/>
  <path stroke="#F7F5E9" stroke-linecap="round" stroke-linejoin="round" stroke-width="3.86" d="M270.24 60.13c.17.08.08-.03-.26-.33-.34-.3-.57-.69-.68-1.16a2.38 2.38 0 0 1-.03-1.18c.1-.32.3-.74.63-1.28.33-.53.85-1.08 1.55-1.64a8.6 8.6 0 0 1 4.82-1.74c.75-.02 1.37 0 1.86.04.5.05 1.16.47 1.98 1.25a7.01 7.01 0 0 1 1.79 2.66l.68 1.86M307.61 55.95c-.1-.05-.21-.21-.35-.5-.15-.28-.09-.71.17-1.3.25-.58.69-1.1 1.3-1.57.62-.45 1.13-.79 1.54-1 .41-.2 1.02-.35 1.84-.45.8-.09 1.56-.03 2.25.19a10.5 10.5 0 0 1 4.4 2.74c.79.77 1.04 1.87.76 3.3a18.38 18.38 0 0 1-.57 2.4M288.8 85.8c-.1.34-.07.7.1 1.07a6 6 0 0 0 1.25 1.73c.17.13.44.4.82.78.37.4 1.03.86 1.97 1.4.94.53 1.83.91 2.66 1.13.84.22 1.47.35 1.89.41a13.26 13.26 0 0 0 3 .05 5.71 5.71 0 0 0 1.83-.62 6.49 6.49 0 0 0 2.3-2.3 19.52 19.52 0 0 0 1.78-3.18 14.4 14.4 0 0 0 1.03-3.33"/>
  <path stroke="#85D7F5" stroke-linecap="round" stroke-linejoin="round" stroke-width="3.86" d="M259.1 40.5a.87.87 0 0 0-.06-.08 715.23 715.23 0 0 1 .9 5.27l1.36 7.76a49.14 49.14 0 0 0 1.61 6.62c.26.82.71 1.98 1.36 3.48.64 1.5 1.43 3.23 2.36 5.21l2.78 5.88c.92 1.94 1.6 3.4 2.04 4.4.44 1 1.07 2.14 1.87 3.43l1.99 3.1a54.84 54.84 0 0 0 6.07 7.1c1.4 1.4 3.05 2.7 4.92 3.92a43.42 43.42 0 0 0 5.4 3.03c1.73.8 3.25 1.34 4.58 1.62 1.32.29 2.58.43 3.79.44 1.2.01 2.4-.13 3.55-.43 1.16-.3 2.51-.78 4.06-1.42a21.7 21.7 0 0 0 7.56-5.28c.94-1.04 1.75-2 2.43-2.84.69-.86 1.4-1.98 2.17-3.36.76-1.39 1.41-2.7 1.96-3.94.56-1.24 1.15-2.6 1.8-4.1.65-1.5 1.32-4.64 2.03-9.44l1.7-11.56c.42-2.9.79-5.06 1.1-6.49.3-1.42.64-3.42 1.03-6 .38-2.57.67-4.56.86-5.98.18-1.42.38-2.8.59-4.16.21-1.36.3-2.34.3-2.93-.02-.6-.04-.76-.06-.5l-.02.26.01.24V34v-.11l.01.02.08.04c.04.02.04.04-.02.05-.05.02-.07.03-.04.03h-.02.03c.06 0-.01.01-.21.05l-.32.07"/>
  <path stroke="#85D7F5" stroke-linecap="round" stroke-linejoin="round" stroke-width="3.86" d="M259.42 36.42a3.58 3.58 0 0 0-.14-.34l-.05-.14c-.02-.06-.03-.08-.04-.06 0 .02 0 .02 0 0a.3.3 0 0 1-.02-.1c0-.05-.04.03-.1.23a.84.84 0 0 0-.05.5c.04.13.08.23.12.3.04.09.06.1.06.07 0-.04.07.07.2.32.12.25.77.85 1.94 1.8a28.34 28.34 0 0 0 5.79 3.66c.59.27 1.14.48 1.64.65l3 .97c1.49.49 3.6.91 6.34 1.27 2.74.36 5.35.57 7.81.65a52.3 52.3 0 0 0 7.66-.37c2.64-.3 5-.73 7.07-1.25a39.48 39.48 0 0 0 5.7-1.88 95.28 95.28 0 0 0 4.02-1.78c.95-.46 1.6-.76 1.95-.9.35-.13 1.24-.52 2.66-1.16a70.27 70.27 0 0 0 3.43-1.63c.86-.44 1.82-1.12 2.88-2.04 1.06-.91 2-1.76 2.82-2.54.83-.79 1.41-1.4 1.75-1.83.34-.44.6-.86.8-1.27a27.98 27.98 0 0 0 .7-1.53c.02-.03.01-.03-.04.03l-.05.05.03-.06.02-.03-.35.34c-.24.23-.34.35-.31.36.02.01.04.04.03.1 0 .04 0 .07.02.08l.04.04"/>
  <path stroke="#85D7F5" stroke-linecap="round" stroke-linejoin="round" stroke-width="9" d="M178.83 48.35c-.16.02-.27-.17-.33-.57-.06-.4-.13-.73-.2-.97a1.2 1.2 0 0 1-.05-.67c.05-.2.08-.31.09-.3v.02c-.02.01 0-.02.04-.1.05-.06.14-.18.29-.33.14-.15.29-.23.43-.25.14 0 .03.35-.32 1.08-.36.73-.49 1.01-.38.84.1-.16.19-.38.25-.63l.08-.39-.04.06c-.03.04 0 .06.07.08.08 0 .3-.1.65-.34.36-.24.56-.27.6-.09.04.18.06.26.04.23-.02-.03-.03.1-.03.4v.34c-.01-.07.04-.22.14-.45s-.16.66-.8 2.67c-.63 2-.78 2.98-.47 2.92.3-.07.42-.1.33-.12-.08-.01-.08-.07.02-.19.1-.11.44-.62 1-1.52s.83-1.25.82-1.05c0 .2.02.21.08.01a50.42 50.42 0 0 0-.91 2.35c-.15.43-.27.8-.34 1.1l-.17.64-.13.5c-.04.21.71-.6 2.26-2.45l2.34-2.76.07.23c.03.16-.4.82-1.27 2a17.47 17.47 0 0 0-2.13 3.71c-.54 1.3-.8 1.94-.78 1.92a11.21 11.21 0 0 0 .48-.47c-.14.16.24-.36 1.13-1.55.9-1.2 1.63-2.37 2.22-3.52l.88-1.73h-.12c-.07-.01-.9 1.46-2.48 4.42a99.87 99.87 0 0 0-2.41 4.6c-.02.13.4-.4 1.25-1.58l3.66-5.06c1.59-2.2 2.37-3.17 2.35-2.9-.03.26-.04.37-.05.32v.04c0 .07-.43.77-1.27 2.1a44.42 44.42 0 0 0-2.59 4.58c.01 0 .08-.01.22-.07.13-.06.2-.13.23-.2.01-.09-.02-.06-.1.07-.07.13.36-.33 1.32-1.39.95-1.06 1.72-1.94 2.3-2.63a106.59 106.59 0 0 1 2.34-2.73h-.12c-.07.01-.07 0 0-.03l-.09.02a6.09 6.09 0 0 0-1.13.58c.1-.03-.04.06-.42.28l-1.09.62c-.34.2-.54.28-.59.23-.05-.05-.06-.09-.04-.1v-.03l-.02.01h-.04s0 0 0 0v-.01s0 0 0 0l.13-.01h.1-.2c-.09 0-.1 0-.03-.01l.16-.01h-.16c-.14 0-.16-.02-.07-.03a639.17 639.17 0 0 1 1.2-.13 2.2 2.2 0 0 1 .86.02c-.02-.02-.03-.01-.04 0-.01.03.2-.03.63-.17a7.04 7.04 0 0 1 2.54.06c1.26.17 2.27.34 3.02.5.76.17 1.26.25 1.52.25a20.92 20.92 0 0 0 3.37-.58c.7-.18 1.62-.23 2.76-.14 1.13.1 2.02.2 2.65.32a8.3 8.3 0 0 0 2.02.2c.25.01.56 0 .94-.05.39-.05.82-.14 1.32-.26l1.22-.31c.3-.08.55-.12.72-.14l2.16-.22c1.27-.14 2.3-.28 3.09-.41.79-.14 1.48-.33 2.1-.57l2.06-.8c.77-.29 1.28-.47 1.53-.55.25-.07.82-.28 1.7-.61a100.34 100.34 0 0 0 7.83-3.45 311.86 311.86 0 0 0 2.72-1.37 3.16 3.16 0 0 1 .94-.19 3.77 3.77 0 0 1 .51-.02c.18 0 .35.01.5.05.15.04.33-.04.56-.23.22-.19.41-.34.58-.46a4 4 0 0 0 .4-.32c.1-.1.24-.2.41-.33l.58-.41c.21-.17.29-.24.23-.22-.07.02-.04-.01.09-.1l.4-.27.2-.14a15.82 15.82 0 0 1 .47-.43l.25-.26a3.4 3.4 0 0 1 .33-.35v.03c-.02.03.04-.04.16-.24l.17-.26v.05c0 .02.03-.01.06-.08l.09-.22.08-.23a7.8 7.8 0 0 1 .5-.98 5.53 5.53 0 0 0 .36-.78c0-.04.02-.08.08-.14a3.61 3.61 0 0 0 .19-.19l.11-.16a.42.42 0 0 0 .08-.21c0-.08-.01.01-.05.28l-.04.28c0-.09-.04.01-.13.29l-.1.3c.02-.06 0-.04-.08.07-.07.11-.23.92-.47 2.41-.23 1.5-.44 2.69-.63 3.58-.18.89-.35 1.61-.5 2.17l-1.37 5.01c-.75 2.79-1.38 5.15-1.88 7.09-.5 1.94-.84 3.87-1.01 5.81-.18 1.94-.03 3.64.43 5.1.46 1.48.68 2.1.64 1.9-.04-.22.37-2.86 1.25-7.92.88-5.05 1.5-8.96 1.88-11.73.37-2.76.44-4.19.22-4.26-.22-.08-.7 1.21-1.46 3.88a84.05 84.05 0 0 0-2.02 9.53 291.27 291.27 0 0 1-2.54 14.05 72.51 72.51 0 0 1-1.16 4.93 115.97 115.97 0 0 0-1.44 5.88c-.06.36-.06.49.02.37s.36-2.21.84-6.28c.47-4.06.8-7.41 1-10.05.2-2.64.5-4.71.89-6.22.39-1.5.6-2.22.6-2.14.02.08-.08 1.27-.3 3.57l-.6 7.23a46.6 46.6 0 0 1-1.42 8.17 405.3 405.3 0 0 1-1.77 6.6 41.31 41.31 0 0 1-1.22 3.77 6.26 6.26 0 0 1-1.04 1.99c-.3.28-.56.4-.78.39-.24-.03-.27-1.36-.12-4.02.16-2.66.34-4.74.54-6.24s.33-2.6.4-3.3c.06-.7.14-1.35.24-1.97.1-.62.3-1.78.63-3.48.32-1.7.68-3.03 1.06-4 .38-.95.6-1.38.68-1.28.07.1-.42 2.2-1.48 6.32-1.06 4.11-1.96 7.54-2.69 10.3-.73 2.74-1.4 5.01-2.02 6.8a47.27 47.27 0 0 1-2.15 5.38c-.08.22.2-1.12.86-4.02l2.36-10.55a140.6 140.6 0 0 0 1.28-6.05 164.98 164.98 0 0 0-3.3 7.68l-1.62 4.09c-.55 1.4-1.2 2.89-1.93 4.44a45.57 45.57 0 0 1-2.06 3.92c-.64 1.06-1 1.51-1.07 1.37-.08-.15.03-.8.33-1.95l.95-3.63c.33-1.27.67-2.83 1-4.68a25.64 25.64 0 0 1 1.77-6.03l-1.79 4.78c-1.17 3.1-2.1 5.47-2.77 7.1a84.18 84.18 0 0 1-1.74 3.97 7.33 7.33 0 0 1-1.03 1.78c-.21.18-.32.2-.32.07 0-.14-.06-.2-.18-.21-.11-.01 0-1.3.36-3.86.35-2.56.57-4.53.66-5.9.08-1.38.02-2.09-.19-2.13-.2-.04-.65.58-1.35 1.87a300.6 300.6 0 0 1-1.72 3.17 26.02 26.02 0 0 0-1.6 3.31c-.3.69-.62 1.18-.96 1.48-.34.3-.7.44-1.07.42-.37-.03-.3-1.68.2-4.95.51-3.27.73-4.78.66-4.53a87 87 0 0 1-1.21 3.2 85.1 85.1 0 0 1-1.86 4.48c-.5 1.1-.79 1.63-.85 1.57-.05-.05.02-.78.24-2.18.2-1.4.39-2.46.54-3.17a8.5 8.5 0 0 0 .2-1.84c0-.52-.06-.92-.15-1.2a1.7 1.7 0 0 0-.32-.6c-.11-.13-.16-.19-.13-.18.02.01-.03.02-.18 0-.14 0-.24.02-.3.08s-.18.31-.37.75l-.47 1.11c-.13.31-.54 1.17-1.25 2.59-.7 1.41-1.06 2.04-1.06 1.88l-.01-.2v-.21a.9.9 0 0 0 0-.22c0 .02.06 0 .18-.05.13-.05-.07-.37-.6-.95l-1.22-1.42a2 2 0 0 0-.76-.66 4.93 4.93 0 0 1-1.4-.78l-.77-.58c-.19-.13-.38-.3-.59-.5-.2-.2-.7-.81-1.5-1.83s-1.5-1.78-2.1-2.28c-.62-.5-1.06-1.46-1.33-2.88-.27-1.41-.5-2.53-.68-3.37a10.5 10.5 0 0 0-.82-2.34c-.35-.73-.94-1.63-1.77-2.68a242.37 242.37 0 0 0-3.36-4.19 17.45 17.45 0 0 1-.75-.82c-.09-.08-.11-.13-.08-.13.04 0-.11-.14-.45-.4a6.3 6.3 0 0 1-1.28-1.86c-.51-.97-.9-1.9-1.17-2.78-.27-.89-.46-1.62-.56-2.19-.1-.57-.12-1-.04-1.3.07-.29.2-.62.4-.98l.59-1.07c.19-.34.35-.64.47-.9a5.11 5.11 0 0 1 .73-1.1l.04.1c.02.06-.03.3-.14.7-.12.41 0 1.12.36 2.14.36 1 .63 1.8.82 2.38.19.58.33 1.17.43 1.76.1.6.4 1.97.9 4.13s.85 3.83 1.06 5.02c.22 1.19.5 2.4.88 3.65s.84 2.4 1.38 3.46a10.5 10.5 0 0 0 1.6 2.4c.52.55 1.21.97 2.07 1.27.87.3 1.56.53 2.1.68.54.15 1 .17 1.4.05.4-.11.6-.25.63-.4.02-.16.1-.33.24-.52.13-.18.3-.9.49-2.14a15.84 15.84 0 0 0-.7-7.54 44.84 44.84 0 0 0-1.9-4.65 86.06 86.06 0 0 0-2.3-4.63 31.89 31.89 0 0 0-1.87-3.1 7.22 7.22 0 0 0-1.34-1.54 6.01 6.01 0 0 0-.89-.59c-.21-.1-.45-.09-.72.04-.26.14-.5.4-.73.77a4.78 4.78 0 0 0-.47 1.9c-.08.9-.12 1.56-.11 1.99 0 .42.02.82.07 1.18.04.36.1.61.16.74l.07.15c0-.03-.02-.03-.04 0l-.02.02c0-.02.12-.04.35-.05.23-.02.44-.24.61-.65a79.86 79.86 0 0 1 2.8-5.15c.44-.73.86-1.4 1.25-2 .4-.59.84-1.43 1.31-2.51.48-1.09.73-1.67.75-1.75.03-.08-.6.91-1.89 2.97a51.05 51.05 0 0 1-3.58 5.13c-1.1 1.36-1.73 1.93-1.89 1.71-.15-.21-.13-.85.07-1.9.2-1.06.56-2.03 1.08-2.9.52-.88 1-1.6 1.43-2.16.43-.57.8-.87 1.1-.92.29-.04.5-.1.66-.15.15-.06-.16 1.27-.95 3.99a78.69 78.69 0 0 0-1.64 6.46c-.31 1.6-.5 2.39-.55 2.39-.05 0 .1.04.44.15.35.1.9-.2 1.69-.93.77-.73 1.49-1.56 2.14-2.49l1.5-2.17c.35-.52 1-1.46 1.97-2.83a12.6 12.6 0 0 0 1.94-3.9c.34-1.22.44-1.78.3-1.65-.12.13-.63.93-1.52 2.4a103.22 103.22 0 0 0-4.67 8.73c-.64 1.39-1.16 2.48-1.56 3.26-.4.8-.64 1.42-.72 1.9-.08.47-.02.72.17.76.2.03.86-.9 2-2.82a145.5 145.5 0 0 1 6.7-10.4c.36-.5.71-.93 1.07-1.3.35-.37.54-.52.56-.44.02.07-.24.56-.76 1.46-.53.91-1.39 2.6-2.58 5.06-1.19 2.47-2.17 4.47-2.93 6a13.4 13.4 0 0 0-1.28 3.18c-.1.6-.15.88-.16.86l.13.14c.1.1 1.06-1.09 2.88-3.6l4.24-5.82c1-1.36 1.78-2.56 2.33-3.6a25.88 25.88 0 0 0 1.49-3.4c.44-1.24.7-1.81.78-1.7.07.1-.55 1.41-1.88 3.95a120.2 120.2 0 0 0-3.77 7.96c-1.2 2.77-2.15 4.91-2.88 6.42a13.89 13.89 0 0 0-1.22 3.13c-.09.56 0 .81.25.74.25-.07 1.02-1.19 2.3-3.36a158.3 158.3 0 0 0 3.36-5.9 82.06 82.06 0 0 0 3.67-7.64c.13-.3.82-1.69 2.07-4.18a116.2 116.2 0 0 1 1.9-3.74c.03 0 .05 0 .06-.03l-3.52 6.86a1734.02 1734.02 0 0 1-8.25 15.86 9.92 9.92 0 0 0-1 2.4c-.06.44 0 .73.18.88.18.15.72-.47 1.62-1.85a6440.41 6440.41 0 0 0 5.5-8.62c.6-.96 1.47-2.47 2.58-4.53a76.42 76.42 0 0 1 4.61-7.3c1.97-2.8 2.96-4.16 2.97-4.06 0 .1-.66 1.32-2 3.66-1.32 2.35-2.39 4.32-3.19 5.94l-2.84 5.76c-1.1 2.23-2.23 4.46-3.38 6.7a28 28 0 0 0-2.22 5.22c-.32 1.25-.39 1.94-.2 2.08.2.14.97-.86 2.3-3A610.22 610.22 0 0 0 206.92 65l1.5-2.6c.38-.7.69-1.3.93-1.8.23-.5.73-1.49 1.5-2.98l2.26-4.26a18.81 18.81 0 0 1 2.2-3.31c.74-.87 1.12-1.3 1.13-1.3h.13c.08 0-.85 1.66-2.81 5A167.94 167.94 0 0 0 207.1 66c-.45.88-1.35 2.64-2.73 5.28a40.58 40.58 0 0 0-3.81 10.02c-.01.15.39-.49 1.2-1.92l2.02-3.6c.53-.96 1.02-1.8 1.46-2.5a110.62 110.62 0 0 0 4.53-7.95c1.18-2.23 2.07-3.95 2.65-5.15a43.6 43.6 0 0 1 2.83-5.06 123.57 123.57 0 0 1 2.43-3.65c.06-.08-.7 1.27-2.31 4.05a229.6 229.6 0 0 0-5.62 10.2c-.49.93-.96 1.79-1.42 2.59a606.43 606.43 0 0 0-5.38 9.73 25.65 25.65 0 0 0-1.66 3.68l-.52 1.49c0-.02 0 .03.05.14.03.1.38-.3 1.05-1.25.66-.95 1.14-1.72 1.44-2.3.3-.59.86-1.55 1.69-2.88.83-1.33 1.86-2.9 3.1-4.7 1.24-1.82 2.5-3.75 3.79-5.8a95.7 95.7 0 0 0 2.91-4.88c.66-1.2 1.51-2.69 2.56-4.45a30.05 30.05 0 0 1 2.72-3.97 6.48 6.48 0 0 1 1.35-1.38c.14-.02-.27.81-1.23 2.5l-2.96 5.18a295.15 295.15 0 0 0-2.19 3.83c-.44.8-1.33 2.48-2.65 5.03a241.13 241.13 0 0 0-3.47 6.9 134.2 134.2 0 0 0-2.3 5.01 8.55 8.55 0 0 0-.85 2.75c0 .54.06.94.18 1.2.12.27 1.02-.84 2.68-3.32 1.66-2.49 3-4.5 4.03-6.02a83.62 83.62 0 0 1 2.46-3.52c.62-.82 1.36-1.94 2.24-3.36a91.78 91.78 0 0 0 4.85-9.47 53.1 53.1 0 0 1 2.52-4.88 30.66 30.66 0 0 1 1.85-3.08c.08-.03-.78 1.4-2.57 4.29-1.8 2.88-3.53 5.95-5.21 9.21a324.37 324.37 0 0 1-3.82 7.24 93.8 93.8 0 0 0-2.53 4.93 23.65 23.65 0 0 0-1.6 4.01c-.24.96-.28 1.55-.13 1.78.15.23 1.32-1.27 3.5-4.52 2.2-3.24 4.14-6.05 5.84-8.43a103.7 103.7 0 0 0 3.81-5.63 83.5 83.5 0 0 0 2.27-3.93c.67-1.24 1.2-2.18 1.58-2.83.38-.66.65-1.19.81-1.6a135.75 135.75 0 0 1 3.66-6.32l.1.23c.07.15-.93 1.87-2.99 5.16-2.05 3.29-4.26 7.22-6.61 11.79a1601.97 1601.97 0 0 0-7.76 15.23c-.57 1.14-.9 1.96-1.01 2.45-.1.49-.08.78.1.88.17.1 1.48-1.88 3.94-5.96 2.45-4.07 4.37-7.3 5.75-9.7 1.39-2.39 2.43-4.28 3.15-5.67a34 34 0 0 0 1.57-3.37c.33-.87 1.68-3.3 4.06-7.33 2.37-4.02 3.64-5.98 3.81-5.87.17.1-.44 1.21-1.83 3.33-1.4 2.1-2.87 4.57-4.42 7.39-1.55 2.82-2.65 4.9-3.3 6.27a157.1 157.1 0 0 1-1.62 3.34c-.44.86-1.2 2.47-2.27 4.84l-1.7 3.73 2.72-4.92a783.7 783.7 0 0 1 4.73-8.44c1.27-2.23 2.41-4.38 3.43-6.46a95.32 95.32 0 0 1 2.56-4.96c.7-1.23 1.22-2.77 1.6-4.64.36-1.86.49-2.79.37-2.77-.12.02-1.04 1.17-2.77 3.48-1.73 2.3-3.83 5.75-6.28 10.36l-5.84 10.98a48.9 48.9 0 0 0-2.72 5.74 34.57 34.57 0 0 0-.56 1.68l-.02.32c-.02.21.3-.37.93-1.73a1225.37 1225.37 0 0 1 2.94-6.22l.62-1.23a68.81 68.81 0 0 0 2.1-4.74l.9-2.14c.45-1.1 1.1-3.17 1.97-6.2a68.16 68.16 0 0 1 2.43-7.32 55.82 55.82 0 0 0 1.08-2.68 22.09 22.09 0 0 1-1.8 2.96l-3.33 4.84c-1.42 2.05-2.5 3.56-3.24 4.54-.74.98-1.3 1.86-1.7 2.66a8.4 8.4 0 0 0-.7 1.83c-.09.42-.1.67-.05.76.06.09 1-1.16 2.85-3.74 1.84-2.58 3.39-4.66 4.64-6.23a30 30 0 0 0 2.96-4.32 11.67 11.67 0 0 0 1.53-4.7c-.03-.02-.64.88-1.82 2.7a58.71 58.71 0 0 0-7 15.14c-.26.88-.6 1.84-.98 2.9a27.72 27.72 0 0 0-1.5 7.28l-.06 2.06c-.01.46.03.82.13 1.08.11.25.38.51.8.79.44.27 1.39-.3 2.85-1.69a40.99 40.99 0 0 0 5.15-5.75c.48-.61.96-1.25 1.44-1.91.48-.67.88-1.18 1.2-1.53.32-.35.47-.41.44-.19-.03.22-.06.34-.07.34a61.07 61.07 0 0 1-1.59 3.02 204.5 204.5 0 0 1-2.86 5.07 165.06 165.06 0 0 0-4.35 7.94c-.75 1.45-1.18 2.15-1.3 2.1-.13-.04.31-1.24 1.33-3.59 1.01-2.34 1.84-4.15 2.46-5.42.63-1.27 1.17-2.7 1.6-4.3.44-1.61.76-2.83.97-3.65.21-.82.35-1.24.42-1.24.06 0-.47.97-1.6 2.91a72.26 72.26 0 0 0-2.8 5.28 17.59 17.59 0 0 0-1.72 5.46"/>
  <path stroke="#F7F5E9" stroke-linecap="round" stroke-linejoin="round" stroke-width="3.86" d="M185.24 60.13c.17.08.08-.03-.26-.33-.34-.3-.57-.69-.68-1.16a2.38 2.38 0 0 1-.03-1.18c.1-.32.3-.74.63-1.28.33-.53.84-1.08 1.55-1.64a8.6 8.6 0 0 1 4.82-1.74c.75-.02 1.37 0 1.86.04.5.05 1.16.47 1.98 1.25a7.01 7.01 0 0 1 1.79 2.66l.68 1.86M222.61 55.95c-.1-.05-.21-.21-.35-.5-.15-.28-.09-.71.17-1.3.25-.58.69-1.1 1.3-1.57.62-.45 1.13-.79 1.54-1 .41-.2 1.02-.35 1.84-.45.8-.09 1.56-.03 2.25.19a10.5 10.5 0 0 1 4.4 2.74c.79.77 1.04 1.87.76 3.3a18.38 18.38 0 0 1-.57 2.4M203.8 85.8c-.1.34-.07.7.1 1.07a6 6 0 0 0 1.25 1.73c.17.13.44.4.82.78.37.4 1.03.86 1.97 1.4.94.53 1.83.91 2.66 1.13.84.22 1.47.35 1.89.41a13.26 13.26 0 0 0 3 .05 5.71 5.71 0 0 0 1.83-.62 6.49 6.49 0 0 0 2.3-2.3 19.52 19.52 0 0 0 1.78-3.18 14.4 14.4 0 0 0 1.03-3.33"/>
  <path stroke="#85D7F5" stroke-linecap="round" stroke-linejoin="round" stroke-width="3.86" d="M174.1 40.5a.87.87 0 0 0-.06-.08 715.23 715.23 0 0 1 .9 5.27l1.36 7.76a49.14 49.14 0 0 0 1.61 6.62c.26.82.71 1.98 1.36 3.48.64 1.5 1.43 3.23 2.36 5.21l2.78 5.88c.92 1.94 1.6 3.4 2.04 4.4.44 1 1.07 2.14 1.87 3.43l1.99 3.1a54.84 54.84 0 0 0 6.07 7.1c1.4 1.4 3.05 2.7 4.92 3.92a43.42 43.42 0 0 0 5.4 3.03c1.73.8 3.26 1.34 4.58 1.62 1.32.29 2.58.43 3.79.44 1.2.01 2.4-.13 3.55-.43 1.16-.3 2.51-.78 4.06-1.42a21.7 21.7 0 0 0 7.56-5.28c.94-1.04 1.75-2 2.43-2.84.69-.86 1.4-1.98 2.17-3.36.75-1.39 1.41-2.7 1.96-3.94.56-1.24 1.16-2.6 1.8-4.1.65-1.5 1.33-4.64 2.03-9.44l1.7-11.56c.42-2.9.79-5.06 1.1-6.49.3-1.42.64-3.42 1.03-6 .38-2.57.67-4.56.85-5.98.19-1.42.39-2.8.6-4.16.21-1.36.3-2.34.3-2.93-.02-.6-.04-.76-.06-.5l-.02.26.01.24V34v-.11l.01.02.08.04c.05.02.04.04-.02.05-.05.02-.07.03-.04.03h-.02.03c.06 0-.01.01-.21.05l-.32.07"/>
  <path stroke="#85D7F5" stroke-linecap="round" stroke-linejoin="round" stroke-width="3.86" d="M174.42 36.42a3.58 3.58 0 0 0-.14-.34l-.05-.14-.03-.06c0 .02-.01.02-.02 0a.3.3 0 0 1 0-.1c-.01-.05-.05.03-.12.23a.84.84 0 0 0-.04.5c.04.13.08.23.12.3.04.09.06.1.06.07 0-.04.07.07.2.32.12.25.77.85 1.94 1.8a28.34 28.34 0 0 0 5.79 3.66c.59.27 1.14.48 1.64.65l3 .97c1.49.49 3.6.91 6.34 1.27 2.74.36 5.35.57 7.81.65a52.3 52.3 0 0 0 7.66-.37c2.64-.3 5-.73 7.07-1.25a39.48 39.48 0 0 0 5.7-1.88 95.28 95.28 0 0 0 4.02-1.78c.95-.46 1.6-.76 1.95-.9.35-.13 1.24-.52 2.66-1.16a70.27 70.27 0 0 0 3.43-1.63c.86-.44 1.82-1.12 2.88-2.04 1.06-.91 2-1.76 2.82-2.54.83-.79 1.41-1.4 1.75-1.83.34-.44.6-.86.8-1.27a27.98 27.98 0 0 0 .7-1.53c.02-.03.01-.03-.04.03l-.05.05.03-.06.02-.03-.35.34c-.24.23-.34.35-.31.36.03.01.04.04.03.1 0 .04 0 .07.02.08l.04.04"/>
  <path stroke="#85D7F5" stroke-linecap="round" stroke-linejoin="round" stroke-width="9" d="M12.83 46.35c-.16.02-.27-.17-.33-.57-.06-.4-.13-.73-.2-.97-.09-.25-.1-.47-.05-.67.05-.2.08-.31.09-.3v.02c-.02.01 0-.02.04-.1.05-.06.14-.18.29-.33.14-.15.29-.23.43-.25.14 0 .03.35-.32 1.08-.36.73-.49 1.01-.38.84.1-.16.19-.38.25-.63l.08-.39-.04.06c-.03.04 0 .06.07.08.08 0 .3-.1.65-.34.36-.24.56-.27.6-.09.04.18.06.26.04.23-.02-.03-.03.1-.03.4v.34c-.01-.07.04-.22.14-.45s-.17.66-.8 2.67c-.62 2-.78 2.98-.47 2.92.3-.07.42-.1.33-.12-.08-.01-.08-.07.02-.19.1-.11.44-.62 1-1.52s.83-1.25.82-1.05c0 .2.02.21.08.01a51.99 51.99 0 0 0-.91 2.35 11.68 11.68 0 0 0-.5 1.74c-.05.13-.1.3-.14.5-.04.21.71-.6 2.26-2.45l2.34-2.76.07.23c.03.16-.4.82-1.27 2a17.48 17.48 0 0 0-2.13 3.71c-.54 1.3-.8 1.94-.78 1.92a10.73 10.73 0 0 0 .48-.47c-.14.16.24-.36 1.13-1.55a24.6 24.6 0 0 0 2.22-3.52L18.8 47h-.12c-.08-.01-.9 1.46-2.48 4.42a99.68 99.68 0 0 0-2.41 4.6c-.02.13.4-.4 1.25-1.58l3.66-5.06c1.59-2.2 2.37-3.17 2.35-2.9-.03.26-.04.37-.05.32v.04c0 .07-.43.77-1.27 2.1a44.69 44.69 0 0 0-2.59 4.58c.01 0 .08-.01.22-.07.13-.06.2-.13.23-.2.01-.09-.02-.06-.1.07-.07.13.36-.33 1.32-1.39.95-1.06 1.72-1.94 2.3-2.63a106.66 106.66 0 0 1 2.34-2.73h-.12c-.07.01-.07 0 0-.03l-.09.02a6.13 6.13 0 0 0-1.13.58c.1-.03-.04.06-.42.28l-1.09.62c-.34.2-.54.28-.59.23-.05-.05-.06-.09-.05-.1.02-.03.02-.04 0-.03v.01h-.05s0 0 0 0v-.01s0 0 0 0l.13-.01h.1-.2c-.09 0-.1 0-.03-.01l.16-.01h-.16c-.14 0-.16-.02-.07-.03a305.02 305.02 0 0 1 1.2-.13 2.2 2.2 0 0 1 .86.02c-.02-.02-.03-.01-.04 0-.01.03.2-.03.63-.17a7.04 7.04 0 0 1 2.54.06c1.26.17 2.27.34 3.03.5.75.17 1.25.25 1.5.25a20.92 20.92 0 0 0 3.37-.58c.71-.18 1.63-.23 2.77-.14 1.13.1 2.02.2 2.65.32a8.3 8.3 0 0 0 2.02.2c.25.01.56 0 .94-.05.39-.05.82-.14 1.32-.26l1.21-.31c.32-.08.56-.12.73-.14l2.16-.22c1.27-.14 2.3-.28 3.09-.41.79-.14 1.48-.33 2.1-.57l2.06-.8c.77-.29 1.28-.47 1.53-.55.25-.07.82-.28 1.7-.61a100.14 100.14 0 0 0 7.83-3.45 303.85 303.85 0 0 0 2.72-1.37l.22-.07a3.15 3.15 0 0 1 .71-.12 3.77 3.77 0 0 1 .52-.02c.18 0 .35.01.5.05.15.04.33-.04.55-.23l.59-.46c.16-.12.3-.22.4-.32.1-.1.24-.2.41-.33l.58-.41c.21-.17.29-.24.22-.22-.06.02-.03-.01.1-.1a120.83 120.83 0 0 0 .6-.41 33.49 33.49 0 0 1 .47-.43l.25-.26a3.4 3.4 0 0 1 .32-.32 11.24 11.24 0 0 1 .34-.5v.05c0 .02.03-.01.06-.08l.09-.22.08-.23a8.46 8.46 0 0 1 .5-.98 5.37 5.37 0 0 0 .36-.78c0-.04.02-.08.08-.14a3.82 3.82 0 0 0 .19-.19l.11-.16a.43.43 0 0 0 .08-.21c0-.08-.01.01-.05.28l-.04.28c0-.09-.04.01-.13.29l-.1.3c.02-.06 0-.04-.08.07-.07.11-.23.92-.47 2.41-.23 1.5-.44 2.69-.63 3.58-.18.89-.35 1.61-.5 2.17l-1.37 5.01c-.76 2.79-1.38 5.15-1.88 7.09a36.5 36.5 0 0 0-1.01 5.81c-.18 1.94-.03 3.64.43 5.1a12 12 0 0 0 .64 1.9c-.04-.22.37-2.86 1.25-7.92.88-5.05 1.5-8.96 1.88-11.73.37-2.76.44-4.19.22-4.26-.22-.08-.7 1.21-1.46 3.88a84.13 84.13 0 0 0-2.02 9.53 289.1 289.1 0 0 1-2.54 14.05 72.22 72.22 0 0 1-1.16 4.93 117.1 117.1 0 0 0-1.44 5.88c-.07.36-.06.49.02.37s.36-2.21.84-6.28c.47-4.06.8-7.41 1-10.05.2-2.64.5-4.71.89-6.22.39-1.5.6-2.22.6-2.14.02.08-.08 1.27-.3 3.57l-.6 7.23a46.53 46.53 0 0 1-1.42 8.17c-.77 2.92-1.35 5.12-1.77 6.6a41.57 41.57 0 0 1-1.22 3.77 6.25 6.25 0 0 1-1.05 1.99c-.29.28-.55.4-.78.39-.22-.03-.26-1.36-.1-4.02.15-2.66.33-4.74.53-6.24s.33-2.6.4-3.3c.05-.7.14-1.35.23-1.97.1-.62.31-1.78.64-3.48.32-1.7.68-3.03 1.06-4 .38-.95.6-1.38.68-1.28.07.1-.42 2.2-1.48 6.32-1.06 4.11-1.96 7.54-2.69 10.3-.73 2.74-1.4 5.01-2.02 6.8a47.22 47.22 0 0 1-2.15 5.38c-.08.22.2-1.12.86-4.02l2.36-10.55c.91-4.14 1.34-6.16 1.28-6.05a164.98 164.98 0 0 0-3.3 7.68l-1.62 4.09c-.55 1.4-1.2 2.89-1.93 4.44a45.52 45.52 0 0 1-2.06 3.92c-.64 1.06-1 1.51-1.07 1.37-.08-.15.03-.8.33-1.95l.95-3.63c.33-1.27.67-2.83 1-4.68a25.64 25.64 0 0 1 1.77-6.03L53.7 82.5a251.4 251.4 0 0 1-2.77 7.1 84.81 84.81 0 0 1-1.74 3.97 7.31 7.31 0 0 1-1.03 1.78c-.21.18-.32.2-.32.07 0-.14-.06-.2-.18-.21-.11-.01 0-1.3.36-3.86.35-2.56.57-4.53.66-5.9.08-1.38.02-2.09-.19-2.13-.2-.04-.65.58-1.35 1.87l-1.72 3.17a26.21 26.21 0 0 0-1.6 3.31c-.3.69-.62 1.18-.96 1.48-.34.3-.7.44-1.07.42-.37-.03-.3-1.68.2-4.95.51-3.27.73-4.78.66-4.53-.08.25-.48 1.31-1.21 3.2a85.88 85.88 0 0 1-1.86 4.48c-.5 1.1-.79 1.63-.85 1.57-.05-.05.02-.78.24-2.18.2-1.4.39-2.46.54-3.17.15-.71.22-1.33.2-1.84 0-.52-.05-.92-.15-1.2-.1-.28-.2-.48-.32-.6-.11-.13-.16-.19-.13-.18.02.01-.03.02-.17 0-.15 0-.25.02-.3.08-.07.06-.2.31-.38.75l-.47 1.11c-.13.31-.54 1.17-1.25 2.59-.7 1.41-1.06 2.04-1.06 1.88a2.06 2.06 0 0 1 0-.41c0-.16 0-.23-.01-.22 0 .02.06 0 .18-.05.13-.05-.07-.37-.6-.95a39.1 39.1 0 0 1-1.21-1.42c-.3-.36-.55-.58-.77-.66a4.9 4.9 0 0 1-1.4-.78l-.77-.58c-.19-.13-.38-.3-.58-.5-.2-.2-.71-.81-1.5-1.83a15 15 0 0 0-2.12-2.28c-.61-.5-1.05-1.46-1.32-2.88-.27-1.41-.5-2.53-.68-3.37-.19-.83-.46-1.6-.82-2.34-.35-.73-.94-1.63-1.77-2.68a238.7 238.7 0 0 0-3.36-4.19 16.07 16.07 0 0 1-.75-.82c-.09-.08-.11-.13-.08-.13.04 0-.11-.14-.45-.4a6.32 6.32 0 0 1-1.28-1.86c-.51-.97-.9-1.9-1.17-2.78a20.4 20.4 0 0 1-.56-2.19c-.1-.57-.12-1-.04-1.3.07-.29.2-.62.4-.98l.59-1.07c.19-.34.35-.64.47-.9a5.05 5.05 0 0 1 .73-1.1l.04.1c.02.06-.03.3-.14.7-.12.41 0 1.12.36 2.14.36 1 .63 1.8.82 2.38.19.58.33 1.17.43 1.76.1.6.4 1.97.9 4.13s.85 3.83 1.06 5.02c.22 1.19.5 2.4.88 3.65s.84 2.4 1.38 3.46a10.5 10.5 0 0 0 1.6 2.4 5.1 5.1 0 0 0 2.07 1.27c.87.3 1.57.53 2.1.68.54.15 1 .17 1.4.05.4-.11.6-.25.63-.4.02-.16.1-.33.24-.52.13-.18.3-.9.49-2.14a15.81 15.81 0 0 0-.7-7.54 44.94 44.94 0 0 0-1.9-4.65 86.2 86.2 0 0 0-2.3-4.63 32.12 32.12 0 0 0-1.87-3.1 7.24 7.24 0 0 0-1.34-1.54 6.04 6.04 0 0 0-.89-.59c-.21-.1-.45-.09-.72.04-.26.14-.5.4-.73.77a4.8 4.8 0 0 0-.47 1.9c-.08.9-.12 1.56-.11 1.99 0 .42.02.82.07 1.18.04.36.1.61.16.74l.07.15c0-.03-.02-.03-.04 0l-.02.02c0-.02.12-.04.35-.05.23-.02.44-.24.61-.65a80.14 80.14 0 0 1 2.8-5.15c.44-.73.86-1.4 1.25-2 .4-.59.83-1.43 1.31-2.51.48-1.09.73-1.67.75-1.75.02-.08-.6.91-1.89 2.97a51.1 51.1 0 0 1-3.58 5.13c-1.1 1.36-1.73 1.93-1.89 1.71-.15-.21-.13-.85.07-1.9.2-1.06.56-2.03 1.08-2.9.52-.88 1-1.6 1.43-2.16.43-.57.8-.87 1.1-.92.29-.04.5-.1.66-.15.15-.06-.16 1.27-.95 3.99a78.81 78.81 0 0 0-1.64 6.46c-.31 1.6-.5 2.39-.55 2.39-.05 0 .1.04.44.15.35.1.9-.2 1.69-.93.77-.73 1.49-1.56 2.14-2.49l1.5-2.17c.35-.52 1-1.46 1.97-2.83a12.6 12.6 0 0 0 1.94-3.9c.34-1.22.44-1.78.3-1.65-.12.13-.63.93-1.52 2.4a103.44 103.44 0 0 0-4.67 8.73c-.64 1.39-1.16 2.48-1.56 3.26-.4.8-.64 1.42-.72 1.9-.08.47-.02.72.17.76.2.03.86-.9 2-2.82a144.36 144.36 0 0 1 6.7-10.4c.36-.5.71-.93 1.07-1.3.35-.37.54-.52.56-.44.02.07-.24.56-.76 1.46-.53.91-1.39 2.6-2.58 5.06-1.19 2.47-2.17 4.47-2.93 6-.77 1.53-1.2 2.59-1.28 3.18-.1.6-.15.88-.16.86a.78.78 0 0 1 .13.14c.1.1 1.06-1.09 2.88-3.6l4.24-5.82a29.9 29.9 0 0 0 2.33-3.6 25.75 25.75 0 0 0 1.49-3.4c.44-1.24.7-1.81.78-1.7.07.1-.55 1.41-1.88 3.95a120.3 120.3 0 0 0-3.77 7.96c-1.2 2.77-2.15 4.91-2.88 6.42a13.9 13.9 0 0 0-1.22 3.13c-.09.56 0 .81.25.74.25-.07 1.02-1.19 2.3-3.36 1.3-2.16 2.41-4.13 3.36-5.9A82.76 82.76 0 0 0 36.98 56c.13-.3.82-1.69 2.07-4.18a116.5 116.5 0 0 1 1.9-3.74c.02 0 .05 0 .06-.03l-3.52 6.86a1765.25 1765.25 0 0 1-8.25 15.86 9.93 9.93 0 0 0-1 2.4c-.06.44 0 .73.18.88.18.15.72-.47 1.62-1.85a455.08 455.08 0 0 0 5.5-8.62c.6-.96 1.47-2.47 2.57-4.53a76.55 76.55 0 0 1 4.62-7.3c1.97-2.8 2.96-4.16 2.97-4.06 0 .1-.66 1.32-2 3.66a121.3 121.3 0 0 0-3.19 5.94l-2.84 5.76c-1.1 2.23-2.23 4.46-3.38 6.7a28.02 28.02 0 0 0-2.22 5.22c-.32 1.25-.39 1.94-.2 2.08.2.14.97-.86 2.3-3A606.75 606.75 0 0 0 40.92 63l1.5-2.6c.38-.7.69-1.3.92-1.8a330.06 330.06 0 0 1 3.77-7.24 18.8 18.8 0 0 1 2.2-3.31 38.1 38.1 0 0 1 1.13-1.3h.13c.08 0-.85 1.66-2.81 5A167.34 167.34 0 0 0 41.1 64c-.45.88-1.35 2.64-2.73 5.28a40.66 40.66 0 0 0-3.81 10.02c-.01.15.39-.49 1.2-1.92a456.8 456.8 0 0 0 2.02-3.6c.53-.96 1.02-1.8 1.46-2.5a108.48 108.48 0 0 0 4.53-7.95c1.18-2.23 2.07-3.95 2.65-5.15a43.63 43.63 0 0 1 2.84-5.06 120.13 120.13 0 0 1 2.42-3.65c.06-.08-.7 1.27-2.32 4.05a231.23 231.23 0 0 0-5.61 10.2c-.49.93-.96 1.79-1.42 2.59a598.5 598.5 0 0 0-5.38 9.73 25.68 25.68 0 0 0-1.66 3.68l-.52 1.49c0-.02 0 .03.05.14.03.1.38-.3 1.05-1.25.66-.95 1.14-1.72 1.44-2.3.3-.59.86-1.55 1.69-2.88.83-1.33 1.86-2.9 3.1-4.7 1.24-1.82 2.5-3.75 3.79-5.8a95.38 95.38 0 0 0 2.91-4.88c.66-1.2 1.51-2.69 2.56-4.45a30.02 30.02 0 0 1 2.72-3.97 6.46 6.46 0 0 1 1.36-1.38c.13-.02-.28.81-1.24 2.5l-2.96 5.18a297.3 297.3 0 0 0-2.19 3.83c-.44.8-1.33 2.48-2.65 5.03a240.8 240.8 0 0 0-3.47 6.9 135.6 135.6 0 0 0-2.3 5.01 8.56 8.56 0 0 0-.85 2.75c0 .54.06.94.18 1.2.12.27 1.02-.84 2.68-3.32 1.66-2.49 3-4.5 4.03-6.02a83.62 83.62 0 0 1 2.46-3.52c.62-.82 1.36-1.94 2.24-3.36a63.02 63.02 0 0 0 2.7-4.89 92.54 92.54 0 0 0 2.16-4.58 53.2 53.2 0 0 1 2.51-4.88 30.63 30.63 0 0 1 1.85-3.08c.08-.03-.78 1.4-2.57 4.29-1.8 2.88-3.53 5.95-5.21 9.21A323.71 323.71 0 0 1 49 69.23a93.5 93.5 0 0 0-2.53 4.93 23.68 23.68 0 0 0-1.6 4.01c-.24.96-.28 1.55-.13 1.78.15.23 1.32-1.27 3.5-4.52 2.2-3.24 4.14-6.05 5.84-8.43 1.7-2.38 2.97-4.26 3.81-5.63.85-1.38 1.6-2.69 2.27-3.93.67-1.24 1.2-2.18 1.58-2.83.38-.66.65-1.19.81-1.6a138.66 138.66 0 0 1 3.65-6.32c.02.01.05.09.11.23.07.15-.93 1.87-2.98 5.16a165.8 165.8 0 0 0-6.62 11.79 1593.18 1593.18 0 0 0-7.76 15.23c-.57 1.14-.9 1.96-1.01 2.45-.1.49-.08.78.1.88.17.1 1.48-1.88 3.94-5.96 2.45-4.07 4.37-7.3 5.75-9.7 1.38-2.39 2.43-4.28 3.15-5.67a34.13 34.13 0 0 0 1.57-3.37c.33-.87 1.68-3.3 4.06-7.33 2.37-4.02 3.64-5.98 3.81-5.87.17.1-.44 1.21-1.83 3.33-1.4 2.1-2.87 4.57-4.42 7.39-1.55 2.82-2.65 4.9-3.3 6.27-.64 1.36-1.19 2.47-1.62 3.34-.44.86-1.2 2.47-2.27 4.84l-1.7 3.73 2.72-4.92c1.89-3.4 3.46-6.22 4.73-8.44 1.27-2.23 2.41-4.38 3.43-6.46a95.8 95.8 0 0 1 2.56-4.96c.7-1.23 1.22-2.77 1.6-4.64.36-1.86.49-2.79.37-2.77-.12.02-1.04 1.17-2.77 3.48-1.73 2.3-3.83 5.75-6.28 10.36L55.7 66.06a48.86 48.86 0 0 0-2.72 5.74 35.3 35.3 0 0 0-.57 1.68v.32c-.03.21.28-.37.92-1.73a1449.1 1449.1 0 0 1 2.94-6.22 1197.81 1197.81 0 0 1 1.2-2.45l.55-1.17c.14-.3.3-.69.49-1.16l.49-1.19.89-2.14c.45-1.1 1.1-3.17 1.97-6.2a68.17 68.17 0 0 1 2.43-7.32 56.26 56.26 0 0 0 1.08-2.68 22.1 22.1 0 0 1-1.8 2.96l-3.33 4.84c-1.42 2.05-2.5 3.56-3.24 4.54-.74.98-1.3 1.86-1.7 2.66-.38.8-.62 1.41-.7 1.83-.09.42-.1.67-.05.76.06.09 1-1.16 2.85-3.74 1.84-2.58 3.39-4.66 4.65-6.23 1.25-1.57 2.24-3 2.95-4.32a11.69 11.69 0 0 0 1.53-4.7c-.03-.02-.64.88-1.82 2.7a58.69 58.69 0 0 0-7 15.14c-.26.88-.6 1.84-.98 2.9a27.8 27.8 0 0 0-1.5 7.28l-.06 2.06c-.02.46.03.82.13 1.08.11.25.38.51.8.79.44.27 1.39-.3 2.85-1.69a40.94 40.94 0 0 0 5.15-5.75c.48-.61.96-1.25 1.44-1.91.48-.67.88-1.18 1.2-1.53.33-.35.47-.41.44-.19-.03.22-.06.34-.07.34a61.77 61.77 0 0 1-1.59 3.02c-.94 1.71-1.89 3.4-2.86 5.07a166.94 166.94 0 0 0-4.35 7.94c-.75 1.45-1.18 2.15-1.3 2.1-.13-.04.31-1.24 1.33-3.59 1.01-2.34 1.84-4.15 2.46-5.42.63-1.27 1.17-2.7 1.6-4.3.44-1.61.76-2.83.97-3.65.21-.82.35-1.24.42-1.24.06 0-.47.97-1.6 2.91a72.23 72.23 0 0 0-2.8 5.28 17.64 17.64 0 0 0-1.72 5.46"/>
  <path stroke="#F7F5E9" stroke-linecap="round" stroke-linejoin="round" stroke-width="3.86" d="M19.24 58.13c.17.08.08-.03-.26-.33-.34-.3-.57-.69-.68-1.16a2.38 2.38 0 0 1-.03-1.18c.1-.32.3-.74.63-1.28.33-.53.84-1.08 1.55-1.64a8.6 8.6 0 0 1 4.82-1.74c.75-.02 1.37 0 1.86.04.5.05 1.15.47 1.98 1.25a7 7 0 0 1 1.79 2.66l.68 1.86M56.61 53.95c-.1-.05-.21-.21-.35-.5-.15-.28-.09-.71.17-1.3.25-.58.69-1.1 1.3-1.57.62-.45 1.13-.79 1.54-1 .41-.2 1.02-.35 1.84-.45.8-.09 1.56-.03 2.25.19a10.51 10.51 0 0 1 4.4 2.74c.79.77 1.04 1.87.76 3.3a18.25 18.25 0 0 1-.57 2.4M37.8 83.8c-.1.34-.07.7.1 1.07a6 6 0 0 0 1.25 1.73c.17.13.44.4.82.78.37.4 1.03.86 1.97 1.4.94.53 1.83.91 2.66 1.13.84.22 1.47.35 1.89.41a13.27 13.27 0 0 0 3 .05 5.71 5.71 0 0 0 1.83-.62 6.5 6.5 0 0 0 2.3-2.3 19.6 19.6 0 0 0 1.78-3.18 14.34 14.34 0 0 0 1.03-3.33"/>
  <path stroke="#85D7F5" stroke-linecap="round" stroke-linejoin="round" stroke-width="3.86" d="M8.1 38.5a.74.74 0 0 0-.06-.08 756.52 756.52 0 0 1 .9 5.27l1.36 7.76a49 49 0 0 0 1.61 6.62c.26.82.71 1.98 1.36 3.48.64 1.5 1.43 3.23 2.36 5.21l2.78 5.88c.92 1.94 1.6 3.4 2.04 4.4.44 1 1.07 2.14 1.87 3.43l1.99 3.1a55.06 55.06 0 0 0 6.07 7.1 31 31 0 0 0 4.92 3.92 43.5 43.5 0 0 0 5.4 3.03c1.73.8 3.26 1.34 4.58 1.62 1.32.28 2.58.43 3.79.44 1.2.01 2.4-.13 3.55-.43a30.9 30.9 0 0 0 4.05-1.42 21.7 21.7 0 0 0 7.58-5.28c.93-1.04 1.74-2 2.42-2.84.69-.86 1.4-1.98 2.17-3.36.76-1.39 1.41-2.7 1.96-3.94.56-1.24 1.16-2.6 1.8-4.1.65-1.5 1.32-4.64 2.03-9.44l1.7-11.56c.42-2.9.79-5.06 1.1-6.49.3-1.42.64-3.42 1.03-6 .38-2.57.67-4.56.85-5.98.2-1.42.39-2.8.6-4.16.21-1.36.3-2.34.3-2.93-.02-.6-.04-.76-.06-.5l-.02.26.01.24V32v-.11l.01.02.08.04c.04.02.04.04-.02.05-.05.02-.07.03-.04.03h-.02.03c.06 0-.01.01-.21.05l-.32.07"/>
  <path stroke="#85D7F5" stroke-linecap="round" stroke-linejoin="round" stroke-width="3.86" d="M8.42 34.42a3.32 3.32 0 0 0-.2-.48c-.01-.06-.02-.08-.03-.06 0 .02 0 .02 0 0a.28.28 0 0 1-.02-.1c0-.05-.04.03-.1.23a.83.83 0 0 0-.05.5c.04.13.08.23.12.3.04.09.06.1.06.07 0-.04.07.07.2.32.12.25.77.85 1.94 1.8a28.33 28.33 0 0 0 5.79 3.66c.59.27 1.14.48 1.64.65l3 .97c1.49.49 3.6.91 6.34 1.27 2.74.36 5.35.57 7.81.65a52.3 52.3 0 0 0 7.66-.37c2.64-.3 5-.73 7.07-1.25a39.48 39.48 0 0 0 5.7-1.88 95.43 95.43 0 0 0 4.02-1.78c.95-.46 1.6-.76 1.95-.9.35-.13 1.24-.52 2.66-1.16a70.27 70.27 0 0 0 3.43-1.63c.86-.44 1.82-1.12 2.88-2.04 1.05-.91 2-1.76 2.82-2.54.83-.79 1.41-1.4 1.75-1.83.34-.44.6-.86.8-1.27a27.75 27.75 0 0 0 .7-1.53c.02-.03.01-.03-.03.03l-.06.05.03-.06.03-.03-.36.34c-.24.23-.34.35-.31.36.02.01.04.04.03.1 0 .04 0 .07.02.08l.04.04"/>
</svg>
