<svg xmlns="http://www.w3.org/2000/svg" width="667.7" height="543" stroke-linecap="round" stroke-linejoin="round" class="tl-container tl-theme__force-sRGB tl-theme__light" data-color-mode="light" style="background-color:transparent" viewBox="1497.3 249.1 667.7 543">
  <path fill="#1d1d1d" d="m1629.7 288.2-.3-2.1-.9-2.8-.5-.6a2.8 2.8 0 0 1 4.6-3.1l1 1.6 1.3 3.8.4 2.3a2.8 2.8 0 0 1-5.6 1Zm1.6-4.5-.5.3-.5.2a2.8 2.8 0 0 1-2-5.3l.4-.2.6-.2a2.8 2.8 0 0 1 2 5.2Zm.6-1.4-.3 1.3-.5 3.4-.2 5.5.1 7.8.6 9.8 1 11.6 1.3 13.4 1.3 15.1 1.4 21.7 1.4 25.8 1.3 28.4 2 34.5 2.6 32.3 2.3 25.9 2.2 21.6 2 18.5 2.5 18.6 2.4 17.8 1.9 16.4 1.3 15 .7 11.3.3 8.3v7.2l.2 3.7a3 3 0 0 1-6 .3l-.2-3.8-.5-7.1-.6-8.2-.8-11.1-1.3-14.9-1.8-16.2-2.5-17.8-2.4-18.7-2.1-18.6-2.1-21.7-2.4-26-2.5-32.4-2-34.6-1.3-28.4-1.3-25.7-1.4-21.5-1.1-15.1-1.2-13.5-1-11.8-.4-10.1.1-8.2.5-6.1.7-4 .4-1.3a2.8 2.8 0 0 1 5.4 1.6ZM1657.2 668.2l.4-1.4 1.5-2.8 2.7-2.3 4.9-1.4 6.5-.7 7.3-.3h24.2l19.7-.4 19.4-.5 19.8-.7 20.7-.8 21.7-.9 22.9-1 30.1-1.7 34.2-1.9 36.6-1.9 36.5-1.6 28-1.2 22.4-.6h21.7l20.4.6 15.8 1 12.4.8 9.8.7 8.8.6 7.7.3 6.1.2h5l4-.4 2.5-.9.7-.5a2.9 2.9 0 0 1 2.8 5l-1.5.9-3.8 1.1-4.6.5h-5.2l-6.2-.1-7.8-.3-9-.5-9.7-.7-12.4-.7-15.6-.8-20.2-.6H2017l-22.3.7-28 1-36.5 1.7-36.6 1.9-34.1 1.9-30.2 1.6-23 1-21.7.9-20.7.7-19.9.7-19.4.5-19.8.3h-31l-5.5.3-3.8.9-1.7 2-.3 1.2a2.7 2.7 0 0 1-5.2-1.4Zm473-17-.1-.7-.1-.8a3 3 0 0 1 5.8-.4v.8l.1.8a2.9 2.9 0 0 1-5.8.4Zm1 .7-1-.7-2.5-1.3-3.6-1.1-6.4-2-7.9-1.9-6.7-1.4-6-1.3-4.8-1.1-1.8-.5a3 3 0 0 1 1.7-6l1.6.5 4.5 1.1 6 1.4 7 1.5 8.1 2 6.7 2 4.4 1.7 3 1.5 1 .8a3 3 0 0 1-3.2 4.8Zm-40-17.4 3.7-.2h7.2l7 .8 7 1.3 7.2 2 6.9 3.1 4 4.9-.7 6-4.1 5.5-7.4 5.4-10 6.2-5.3 3.2a3.1 3.1 0 0 1-3.3-5.2l5-3.4 9.5-6.2 6.3-4.7 3.3-3.2-.4-3-5.4-2.6-6.8-2-6.5-1.2-6.6-.8h-6.8l-3.4.3a3 3 0 0 1-.5-6.2Z"/>
  <path fill="#1d1d1d" d="m1603.3 317.8 3.1-2.7 6-5.7 7-7 6.7-7.7 4.8-6 4-5 3.3-3.5 1.4-1a3.3 3.3 0 0 1 4 5.4l-1 .5-2.6 2.7-4 4.9-5 6.3-7 7.9-7.2 7.2-6.3 5.7-3.2 2.7a3 3 0 0 1-4-4.7Zm41-37.8 1.8 2.6 2.7 4.8 2.2 4.3 3 5 4 6 2.1 3.2a2.7 2.7 0 0 1-4.3 3.2l-2.5-3-4.8-6-3.6-5.4-2.4-4.8-2.4-4.3-1.3-1.9a3.3 3.3 0 0 1 5.6-3.7ZM1769.5 657l-.6-.2-.6-.3a2.6 2.6 0 0 1 2.2-4.6l.6.4.6.3a2.5 2.5 0 0 1-2.2 4.5Zm2.3-1.9-.3.7.5 4.7 1.6 9.2.8 5.1a2.1 2.1 0 0 1-4.1.8l-1-5.1-2-10.3-.7-6 .4-.9a2.6 2.6 0 0 1 4.8 1.8ZM1891.5 641.8l.8.7 1.7 2.3 1.6 3.5 1.1 3.8.8 4.6.7 5.5.4 2.9a2.6 2.6 0 0 1-5.1.9l-.6-2.8-1.3-5.3-1-4.2-1-4-1.2-3-.7-.7a2.8 2.8 0 0 1 3.8-4.2ZM2017.4 638.2l.5 2 1 4 2 4.8 2.1 5.7 2.2 5.7 1.2 3a2.4 2.4 0 0 1-4.3 2l-1.6-2.8-3-5.6-2.7-5.8-2-5.4-1-4.2-.5-2a3.2 3.2 0 0 1 6.1-1.4ZM1767 723.6l-.2 2.6-.2 5-.1 4.8v4.8l.4 5.3.2 3a2.5 2.5 0 0 1-5 .6l-.5-2.9-1-5.6-.7-5.3v-5l.4-5.1.2-2.6a3.2 3.2 0 0 1 6.5.4ZM1876.7 723.5l1.4-.8 3.2-1.7 4.4-1.6 5.6-1 5 .6 3.6 2.3 1.6 4.4-1.8 6-3.6 5.3-3.5 4.2-3.2 4.3-2.1 3.8 1.4 1.9 3.7.4h4.7l5.9-.3 3.2-.2a2.3 2.3 0 0 1 .6 4.6l-3.2.5-6.2 1.2-5.7.7-5-.6-3.9-2.3-2-3.8.6-4.8 2.8-5 3.5-4.5 3.4-3.8 3-3.8.7-3.6-2.7-1.6-4.4.5-3.6 1.2-2.8 1.6-1.4.9a3 3 0 0 1-3.2-5ZM2002.5 722.6l1.4-1.4 4.5-2.6 5.7-2 4.8-.8h4.4l4.4 2.2 2.9 3.9.3 4-1.8 3.8-2 2.4-.2.6a3 3 0 0 1-5.3-3.2l.7-1.1 1.8-2.9-.6-2.9-3.6-.9-4.1.7-4.4 1.2-3.5 2-1.4 1.3a3 3 0 0 1-4-4.3Zm23.5 6 1 .8 4.6 2.7 5.3 3 3.6 3.1 3 4.6.8 5-1.4 4.8-3 3.9-4 3.1-4.6 2.4-5.2 1.4h-4.6l-3.3-.7-1.5-.3a3 3 0 0 1 .8-6.1l2.5.1 4.4-.1 3.8-.9 3.5-1.5 3.1-2 2.7-3 1-3.7-1.4-3.1-2.8-2.6-3.7-2-3.4-1.5-3-1.4-1.7-1a3 3 0 0 1 3.5-5ZM1623.3 568l2.1-.3 5.1-.5h6.4l7.6.7 8.9 1 4.6.5a2.4 2.4 0 0 1-.3 4.9l-4.7-.2-8.8-.3-7.3-.2h-5.8l-4.7.3-2.1.3a3.1 3.1 0 0 1-1-6.2ZM1611.1 475.3l1.3-1.3 5.5-2.3 8.2-1.5 9.3-.4h16.4a2.4 2.4 0 0 1 .1 4.7l-5.6.3-10.6.6-8.7.7-6.7.7-4 1.5-1.2 1a2.9 2.9 0 0 1-4-4ZM1596.7 386.2l1.6-1.3 7-2.5 10.6-2 13-1.2 17-1 8.7-.5a2.5 2.5 0 0 1 .4 5l-8.7.8-16.6 1.7-12.7 1.7-9.1 1.4-5.6 1.7-1.3 1.2a3.3 3.3 0 0 1-4.3-5ZM1570.6 570.6l.8 2.6 1.7 5.8 2 7 1 3.6a2.3 2.3 0 0 1-4.4 1.5l-1.3-3.6-2.6-6.8-2-5.8-.7-2.6a2.9 2.9 0 0 1 5.5-1.7ZM1552.1 470.8l2.5-1.2 5-1.7h5.2l3.7 2.7 1 4.2-.9 4-1.6 3.2-1.7 2.8-1.5 2.7-.4 1.8.4.5a3.2 3.2 0 0 1-6.4 1v-2l.9-4 2.5-4.3 2-5-1.4-2.1-4.3 1.5-2.4 1.2a3 3 0 0 1-2.6-5.3Zm10.3 16.8 1 .6 3.8.6h5.3l5.1-.1 2.8-.1a2.4 2.4 0 0 1 .4 4.8l-2.8.4-5.3.7-7 .2-5.7-1-1.2-.7a3.2 3.2 0 0 1 3.6-5.4ZM1528.3 375l1.6-.5 4.6-.9 5.3-.3 5.5 1.4 4 3.9.2 4.4-.7 2.5v.4a3.4 3.4 0 0 1-6.8-.9v-2.5l-2-2.5-4.1.1-4 .7-1.6.6a3.3 3.3 0 0 1-2-6.3Zm18.4 7.2 1.6.7 3.8 1.4 4.3 1.8 3.4 2.5 1.3 1.1a3.4 3.4 0 0 1-4.8 4.8l-.7-.8-1.9-1.6-3.1-1.4-4.2-1.3-2.2-.7a3.4 3.4 0 0 1 2.5-6.5Zm15.3 10.1v1.6l-1.2 3.7-4.3 4.3-5.8 3.3-5.3 2-5.4 1.1h-4.6l-3.2-1-1.4-.4a3.3 3.3 0 0 1 1.2-6.4l2.3.2h4.3l4.3-.7 4.5-1.5 5-2.4 2.8-2.9.1-1.3a3.4 3.4 0 0 1 6.7.4Z"/>
  <path fill="#1d1d1d" d="m1644.2 564.8 1.7-1.4 3.9-1.4 3.5.7 2.9 2.2 2.2 3.3.6 3.7-1.7 3.5-4 2.2-4.6-.3-4-2.8-1.5-4.7 1.9-5 4.1-3 4.2-.5 3.9 1.6 2.9 3.7.7 5-2.2 4.6-3.8 2.4-2 .4a3.2 3.2 0 0 1-.3-6.3l.4.3 1.4-1 .2-3-2.1-1.7-2.8 1.2-.2 2.5 2.2.2-.4-2.6-2.2-.6-.6 1a3 3 0 0 1-4.3-4.2Zm6 13-.8-1.1-1.3-3.4-.5-2.2a3.2 3.2 0 0 1 6.3-.8v.9l.6 1.8.7.9a3.2 3.2 0 0 1-5 3.9Zm-1.9-9.1.5-.7.6-.6a3.2 3.2 0 0 1 5 4l-.6.6-.5.7a3.2 3.2 0 0 1-5-4Zm6.6-.1.3 1.4.9 2.4.5 1a3 3 0 0 1-5.1 2.7l-.5-.8-1.1-2-1-2.3-.2-.9a3.2 3.2 0 0 1 6.2-1.5ZM1760 479.3l-2.5-.4-3.9-1.7-1.3-1.3a3.3 3.3 0 0 1 5.5-3.6l-.2.4 1.3.3 1.5-.2a3.2 3.2 0 0 1-.3 6.5Zm-7-7.8 1.8-1.4 4-1.8h4.3l3.7 2 2 4-.3 4.9-2.2 4.4-3.5 3.2-4.4 1.2-4-1.2-2.7-3.2-1-4 1.2-4.2 2.7-3.7 4-1.5 4.7 1.3 2.6 3.2.6 1.7a3.5 3.5 0 0 1-6.9 1.6v-1l-1 .2-.8 2.8 2 .6 2.4-3.4-1.2-2.3-2.9.9-1 .9a3.3 3.3 0 0 1-4.1-5.2Zm12.9 7.8-.6.9-3.8 2.2-5.5.8-3.7-1.8-1.3-1a3.6 3.6 0 0 1 4.7-5.3l1.6.8h2.3l.7-.8a3.5 3.5 0 0 1 5.6 4.2Zm-15.8-3 .6-1 2.5-2.4 3.3-1.8 1.4-.6a3 3 0 0 1 2.9 5.2l-1.9 1-2 1.7-.3.8a3.6 3.6 0 0 1-6.5-2.8ZM1885.3 375.6l-1.6.7-3.4 1-2 .2a3 3 0 0 1-.4-6.1h1l2.3-.6 1.5-.7a3 3 0 0 1 2.6 5.5Zm-9.3 1-.7-.6-.7-.6a3 3 0 0 1 4.2-4.5l.7.6.7.7a3 3 0 0 1-4.2 4.5Zm-2.4-3.5V371.8a3 3 0 0 1 6.2 0v1.4a3 3 0 0 1-6.2-.1Zm1.5-3.8 1-.7 3-1.2h3.9l3.1 1 1.1.7a3 3 0 0 1-3 5.3l-1.8-.7h-3l-1 .7a3 3 0 0 1-3.3-5.1Zm13.7 2 .2 1.6-.8 4-3.3 4-5 2.3h-4l-1.5-.5a3.2 3.2 0 0 1 2.2-6l1.3.3 3.4-1 1.7-2.5-.3-1.3a3 3 0 0 1 6-1Zm-16.5 8.5v-1.2l1-3.2 3.2-3.5 4.8-2 4.8.7 2.7 2.7.7 1.4a3.3 3.3 0 0 1-6 2.3l-.7-.6-2.5.5-1.7 1.8.1.8a3.2 3.2 0 0 1-6.4.3Zm16.7-1.8-1 1-2.7 2-3.3.7-3.3-1-2.8-2.2-1.3-3-.4-3.1v-1.2a3.3 3.3 0 0 1 6.7-.2l.8 2.3 1.5 1.4.8-1a3.3 3.3 0 0 1 5 4.3ZM2011.8 472.8l-1.6-.7-2.8-1.9-1.7-3.2.5-3.6 3.6-3 4.6-1.6 4.2.1 3.7 1.4 1.3 1a3 3 0 0 1-4.5 4l-1.1-.4-2.6-.3-2.8.8.1 1.3 1.5.7a3 3 0 0 1-2.4 5.4Zm12.4-8.4-.3.8-1.3 2-2.3 2.2-3.8 1.7-5 .8-5-2-2.3-4.4 1.3-4.5 3-3.5 3.6-2 4.3-.1 3.9 2.4 1.7 2a3.3 3.3 0 0 1-5.4 3.6l-.6-1-2.3-.5-3 2.4.1 1.7 4.3-1.1 3.2-1.9.3-.7a3 3 0 0 1 5.6 2.1Zm-2.2-1-.7 1-2.7 2.6-4.2 2.2-4 .3-1.9-.4a3.3 3.3 0 0 1 2.3-6.2l.2.3 2.2-.5 2.7-2 .6-1a3.3 3.3 0 0 1 5.5 3.7Zm-15.7 2.3v-.6l.1-.5a3.3 3.3 0 0 1 6.7.6v.6l-.1.5a3.3 3.3 0 0 1-6.7-.6Zm1.7-3.7.9-.5 2.7-.8 1.9-.3a3.3 3.3 0 0 1 .5 6.7l-.6-.1-1.2.3-.7.4a3.3 3.3 0 0 1-3.5-5.7Zm8.3-.4.8.9 1.7 2 .9 1a3.4 3.4 0 0 1-5.2 4.4l-.8-1-1.7-2-.8-1a3.3 3.3 0 0 1 5.1-4.3Z"/>
  <path fill="#1d1d1d" d="m1762 477.6-2 1.1-3.3 2.1-3 2.2-3 2.4-3.2 2.9-3.5 3.2-3.8 3.4-5 4.5-5.7 5.2-6.7 6-7.7 6.5-7 5.7-6.8 5.5-6.4 5-6.2 4.7-6 4.4-5.5 4.3-5.2 4-4.8 3.9-4.7 4.1-4.5 4.2-4.1 4-2.2 2.1a2.7 2.7 0 0 1-3.8-3.8l2-2.2 4.1-4.3 4.6-4.4 5-4.3 4.8-3.9 5.3-4 5.6-4.3 5.9-4.4 6.1-4.6 6.4-5 6.7-5.4 7-5.7 7.6-6.3 6.8-5.9 5.7-5.2 5-4.5 3.9-3.3 3.6-3.2 3.4-3 3.3-2.6 3.2-2.2 3.5-2.2 1.9-1.1a2.6 2.6 0 0 1 2.6 4.4ZM1872.1 381.3l-2 2.3-3.6 4.2-3.3 3.7-3.2 3.5-3.1 3.4-4.1 4.4-4.9 5.3-4.8 5.1-4.6 4.7-4.7 4.5-4.6 4.3-5.5 5-6 5.5-5.3 4.8-6.1 5.6-7.6 6.8-7 6.2-5.3 4.6-4.4 3.7-3.6 3-3.4 3-3.5 3.2-2 1.7a2.6 2.6 0 0 1-3.6-3.8l2-1.8 3.5-3.5 3.4-3 3.6-3 4.3-3.7 5.4-4.6 6.9-6 7.5-7 6.2-5.5 5.3-4.8 6-5.4 5.4-5 4.6-4.2 4.6-4.5 4.6-4.5 4.8-5 5-5.3 4-4.3 3.3-3.4 3.1-3.4 3.3-3.6 3.8-4.1 2-2.3a2.4 2.4 0 0 1 3.6 3.2ZM1885.6 375.7l1.7 1 3.6 3 3.3 3.5 3.3 3 3.4 2.7 3.4 2.5 4 3.2 3.7 3.3 3.3 3 3.1 2.4 3.2 2.2 3.2 2.2 3 1.8 3 1.6 3.1 1.6 4 2 4.3 2.5 3.7 2 3.5 1.8 3.4 1.6 3.2 1.4 3.1 1.3 3.3 1.7 3.2 1.8 3.5 2.6 4 3 3.8 2.8 3.3 2.2 3 1.8 3.1 2 3.3 2 3.6 2.4 3.7 3.5 3 3.6 2.9 3.4 1.6 1.8a2.5 2.5 0 0 1-3.7 3.3l-1.7-1.8-3-3.4-2.7-3.2-2.9-2.9-3.6-2.3-3.3-2-3-2-3.1-1.9-3.5-2.3-4-2.8-3.9-3-3-2.3-3-1.7-3-1.5-3-1.3-3.4-1.5-3.6-1.7-3.6-1.8-3.8-2-4.2-2.4-3.9-2-3.1-1.7-3.3-1.7-3.3-2-3.3-2.2-3.3-2.5-3.3-2.6-3.3-2.9-3.6-3.2-3.8-3.1-3.5-2.7-3.5-3-3.4-3.3-3-3.1-3-2.7-1.7-1a2.3 2.3 0 0 1 2.5-4Z"/>
  <path fill="#e03131" d="M1642.3 572a9.8 9.8 0 1 1 19.6 0 9.8 9.8 0 1 1-19.6 0M1750.9 473.8a11.6 11.6 0 1 1 23.3 0 11.6 11.6 0 1 1-23.3 0M1864.6 378.5a8.1 8.1 0 1 1 16.2 0 8.1 8.1 0 1 1-16.2 0M1996 464.4a9.7 9.7 0 1 1 19.4 0 9.7 9.7 0 1 1-19.4 0"/>
  <path fill="#e03131" d="m1638.2 567.7.7-3 .8-2.9a9.5 9.5 0 0 1 18.3 4.7l-.7 2.9-.8 3a9.4 9.4 0 0 1-18.3-4.7Zm18.4-9 2.6 4.8.9 10.2-5.5 8-9.9 2.2-6.1-.3a9.7 9.7 0 0 1 4.2-19v2.8l-.8 2.4-1-.2a9.5 9.5 0 0 1 15.6-10.9Zm-25.2 12.6.2-.7.3-.7a9.7 9.7 0 0 1 18.5 5.5l-.2.8-.2.7a9.7 9.7 0 0 1-18.6-5.6Zm13-7.8 2.4 1 2.4.8a9.6 9.6 0 0 1-6.4 18.1l-2.4-.8-2.5-.8a9.7 9.7 0 0 1 6.4-18.3ZM1750.9 487l-1.8-2.5-2.6-7.3 3.8-10.8 11.9-4.5 8.8 9.2-3.2 12.6-11.1 5.4-6.4.6a9.8 9.8 0 0 1 .9-19.7l1.4 1.6 5.8 1.3 5.8 1.2 1.3 1.3A9.3 9.3 0 0 1 1751 487Zm-1.1-17 3.6-.2 3.7-.3a9.7 9.7 0 0 1 1.8 19.3l-3.6.4-3.6.5a9.8 9.8 0 0 1-2-19.6ZM1868.3 367.9l4.4-3.3 4.4-3.3a10 10 0 0 1 11.7 16l-4.5 3.3-4.4 3.2a9.8 9.8 0 0 1-11.6-16Zm22.2 7.9-3 3.5-3 3.6a10 10 0 0 1-15.2-13l3-3.5 3.1-3.5a10 10 0 0 1 15 12.9Zm-22.7 4.6-1.4-6.4 1.8-10 7.7-4.1 8.6 1.4 6 6.2.7 10.9-1.5 6.8a10 10 0 0 1-18.8-6.3l2.4-.3 6.2-3 5.1-3 1.4-.2a10 10 0 0 1-18.2 8ZM2003.6 463.4l3.2-5 3.2-4.9a10.5 10.5 0 0 1 17.8 11.3l-3.1 5-3 5a10.6 10.6 0 0 1-18-11.4Zm24.8-8.8 2.2 6.1-.4 11.8-11.8 7.2-13.3-2-4-3.7a10.5 10.5 0 0 1 17.2-12l-3.3 1.9-4.4.8-1.2-1a10.5 10.5 0 0 1 19-9Zm-21.6 3.3 2.7-.8 2.6-.7a10.5 10.5 0 0 1 5.8 20.1l-2.6.8-2.7.8a10.5 10.5 0 0 1-5.8-20.2Zm17.5 3.6 1.3 2.5 1.4 2.5a10.5 10.5 0 0 1-18.6 10l-1.3-2.6-1.3-2.5a10.5 10.5 0 0 1 18.5-9.9Z"/>
</svg>
