<svg xmlns="http://www.w3.org/2000/svg" width="662.1" height="474.7" stroke-linecap="round" stroke-linejoin="round" class="tl-container tl-theme__force-sRGB tl-theme__light" data-color-mode="light" style="background-color:transparent" viewBox="1505.8 1034.5 662.1 474.7">
  <path fill="#1d1d1d" d="m1648.6 1089.6-2.4-4.7-2.5-5-.1-.6v-.6l.2-.7.3-.6.4-.4.6-.4.6-.2.6-.1h.7l.6.3.5.4.5.5 1.2 5 1.4 7.7 1.2 8 2.6 16.6 3.7 23.3 3.6 23.8 3.5 24.5 4.2 31 4.7 38.2 3.9 33.4 2.4 24 1.6 17 1.4 10.7 1.6 5.5.7 1.7a3.6 3.6 0 0 1-6.6 3l-1-2.5-2-6.6-1.5-11.2-1.5-16.9-2.4-23.8-3.8-33.4-4.6-38.1-4-31-3.4-24.5-3.4-23.8-3.4-23.3-2.4-17-.8-9-.9-6.7-.9-3.1-.1-.7v-.6l.2-.7.3-.6.4-.4.6-.4.6-.2.6-.1h.7l.6.3.5.4.5.5 2.5 5 2.4 4.7a2.7 2.7 0 0 1-4.9 2.4Zm30.8 260.2v-3.9l.2-6.5.3-2.7a2.6 2.6 0 0 1 5.2.2l.1 2.7.8 6.1.6 3.3a3.6 3.6 0 0 1-7.2.8Z"/>
  <path fill="#1d1d1d" d="m1622 1100.5 1-3 2-6.2 4-9.6 6.3-12 6.4-5.8 5.4 1.8 5.5 5.8 5.8 6.2 6 4.8 7.6 5.3 4.2 3a2.9 2.9 0 0 1-3 4.8l-4.5-2.6-8.6-5-7.2-5.3-5.8-6.5-4.6-5.5-3.5 2.7-4.6 10.6-4.1 9.2-2.3 5.9-1 3a2.6 2.6 0 0 1-5-1.6ZM1683.1 1365l2.4-.5 5.6-.8 7.4-.7 9.2-.5 20.8-.4 29.4-.3 34-.5 38-.7 34-.8 32.2-.7 31.4-.5 37.2-.5 43.7-1 37.8-1.2 27-1 19.1-.6 13.8.7 9.5 3 4 4.7.5 2.5a3.6 3.6 0 0 1-7.2 0l-1-1-6.3-2.1-13-.7-19.2.6-27 1-37.8 1.2-43.8.9-37.2.4-31.4.4-32.2.6-34 .7-38 .6-34 .4-29.4.2-20.5.2-9 .5-7.1.6-5.5.7-2.3.4a3 3 0 0 1-1-5.9Zm429.8.1.1-1.6.8-3 2.3-3.8 1.5-2.9-.1-.3a3.6 3.6 0 0 1 7.2.8l-.4 1.7-2.3 4.5-2 3.9v1a3.6 3.6 0 0 1-7.1-.3Zm5.4-8.9-.6-.7-2.5-1.2-4.5-.7-5-.4-5.3-.5-4.8-1-2-.8a3.7 3.7 0 0 1 3-6.8l1 .5 3.5.8 5.2.5 5.8.6 5.1 1 3.7 1.6 2.3 1.7.7.8a3.6 3.6 0 0 1-5.6 4.6Zm-26.9-8.5v-1.1a3.7 3.7 0 0 1 7.3-.4v.5l.1.6a3.7 3.7 0 0 1-7.4.4Zm2-4.6 1.1-.5 5.4-1 9.7.4 9.7 1.9 7.6 2.3 6.5 3.2 4.4 4.2 1.5 2.1a4 4 0 0 1-6.8 4l-.4-1-2.4-2.6-5-2.7-7-2.2-8.5-1.8-7.6-.7-4 .5-1 .5a3.7 3.7 0 0 1-3.2-6.6Zm46.1 16.1-.7 1.5-5 4.2-8.1 4.4-9.5 4.1-12 5.2-6.3 2.8a3 3 0 0 1-2.5-5.3l6-3.2 11.7-6.2 9.1-4.5 6.5-2.8 3.2-2.1.4-1a4 4 0 0 1 7.2 3Z"/>
  <path fill="#1d1d1d" d="m1788.4 1349.5.2 3.4.4 8 .4 8.3.5 7.7.4 4.2a2.3 2.3 0 0 1-4.7.5l-.6-4.1-1.2-8-.7-8.4-.2-8v-3.4a2.8 2.8 0 0 1 5.5-.2ZM1909.2 1346l1 1.4 3.4 6.8 3.9 10.3 3 10.3 1.7 5.4a2.6 2.6 0 0 1-4.8 1.6l-2-5.2-3.7-9.8-4-9.4-3-6.3-1-1.5a3.3 3.3 0 0 1 5.5-3.7ZM2038.5 1345.6v12.8l-.3 8.2v4.3a2.3 2.3 0 0 1-4.7 0l-.1-4.3-.3-8.1-.2-8.3v-4.5a2.8 2.8 0 0 1 5.6-.1ZM1781.5 1435.7l-.3 2.6v4.6l1.1 4.7 2 6 1.1 3.3a2.4 2.4 0 0 1-4.5 1.7l-1.4-3.2-2.7-6.6-1.6-6 .4-5.3.5-2.6a2.8 2.8 0 0 1 5.4.8ZM1907 1433.7l2-1 7.4-.9 7.1 3.7 1.6 7.7-1.3 7.6-2.1 6.1-1.7 5.2.8 3 3.6.4 5-.2 5.5-.6 5.6-.7 3-.4a2.5 2.5 0 0 1 1 4.8l-3 .8-5.7 1.5-6 1.3-6.6.3-6.1-1.7-3.5-4.6v-6l2-5.4 2-5.2 1.6-5.6-.4-5.6-3-2-4.1 1.7-2 1a3 3 0 0 1-2.6-5.2ZM2037.8 1434l2.5-.6 6.8 1 6 5 2.3 5.7 2 4 1.4 2a2.2 2.2 0 0 1-3.3 2.7l-1-1.1-2.3-2.6-1.6-3.3-1.3-4.3-3.3-3.6-4.7-.6-2.2.7a2.6 2.6 0 0 1-1.3-5ZM2071.2 1454.4l-.2 3-1.6 5.7-6.8 6.2-11.1 6.7-5.6 3.2a2.3 2.3 0 0 1-2.4-4l5.4-3.5 9.8-6.2 5.4-4.4 1.6-4.6.6-2.8a2.5 2.5 0 0 1 5 .7ZM1651.6 1271.6l4.2-.6 12.3.1 16.9 1.2 8.8.5a2.5 2.5 0 0 1-.3 5l-8.8-.2-16.5-.4-11.8.1-4.2.3a3 3 0 0 1-.6-6ZM1640.5 1187.7h2.5l10.2-.1 13.2-.2h11.6l6-.1a2.4 2.4 0 0 1 .2 4.7l-6 .4-11.6.7-13.4.7-10.5.2-2.5-.1a3.1 3.1 0 0 1 .3-6.2ZM1623.7 1121.5l.4-1.6 1.8-3 3.6-2.4 9.7-.7 13.5.6 12.9 1 6.7.6a2.3 2.3 0 0 1-.3 4.5l-6.7-.2-12.8-.4-12.6-.3-8.5.2-2 1.5-.2 1.2a2.8 2.8 0 0 1-5.5-1ZM1594.6 1271.3l.6 3.4 1.7 8.3 2.7 10.7 1.4 5.7a2.4 2.4 0 0 1-4.5 1.3l-1.8-5.7-3.4-10.9-2-8.6-.4-3.4a2.9 2.9 0 0 1 5.7-.8ZM1568.3 1180.4l3-1.2 5.6-.7 4 2.5 1 4.2-1.5 4.1-3 4.2-1 4 2.6 1.8 4.6.6 6.7.7 3.6.4a2.5 2.5 0 0 1-.3 5h-3.7l-7.1-.2-6-.6-4.2-1.8-2.8-3.3v-5l2.9-5 2.3-4.6-2-1.2-2.5 1.2a2.8 2.8 0 0 1-2.2-5.1ZM1535.7 1103.7l1.3-1 3-2.2 6.5-1 7.4 1.4 3.7 3.6.3 4.6.8 3.9 3.8 3.1 4 4 2 4.4-.7 4.4-4 3.9-5.9 3-4.8 1.1-3.4.1h-1.5a3.6 3.6 0 0 1-.3-7.1l2.4-.1 4.8-.8 4.8-2 1.6-2.5-2.8-2.7-4.4-3.1-3.3-3.6-.7-5.5-3.8-3.2-5.3 1.3-1.3 1a3.3 3.3 0 0 1-4.2-5Z"/>
  <path fill="#1d1d1d" d="M1671 1270.6v-2.7l2.8-4.7 5.3-2.6 4.7 1 2.3 4-1 4.4-2.5 3.2-1.4 1.2a3.3 3.3 0 0 1-3.8-5.4l1.1-1.2-1.1-.3-1.5 1.2.9.2a3 3 0 0 1-5.8 1.7Zm7 4.2-1.2-.7-2.7-3-1.4-2.5a3.4 3.4 0 0 1 6.2-2.6l.1 1.2.8 1.3.7.2a3.3 3.3 0 0 1-2.4 6Zm-3.2-10.7.8-.3 2.3-.4 4.4-.6 3-.3a3.4 3.4 0 0 1 .9 6.7l-1.6.2-3.9.4-3 .5-.9.2a3.4 3.4 0 0 1-2-6.4ZM1789.8 1201.1l-1.7-.7-3.8-1.8-3.9-3.8-1-4.8 2-3.7 4-2 4.5-.2 3.9 1.3 3.2 3.5 1.3 5.5-2.2 5-4.4 2.3h-3.9l-1.4-.2a3.5 3.5 0 0 1 1.7-6.8l1.9.3 1.7-1.4-1.6-2.4h-3.2l.2 1.7 3.6 1.6 1.6.7a3.2 3.2 0 0 1-2.5 5.9Zm-6-2.9v-2.3l1.6-4.3 3.9-3.2 4.6-1.5 2.4-.1a3.5 3.5 0 0 1-.4 7l-.8-.3-2.7 1-1.9 2.3.2 1.1a3.5 3.5 0 0 1-7 .3Zm15.4-6.4-.7 1.4-1.4 3.1-.8 1.6a3.5 3.5 0 0 1-6.3-3l.8-1.6 1.4-3 .7-1.5a3.5 3.5 0 0 1 6.3 3ZM1914 1128.8l-2.4-1-4.6-3.2-3-5 .3-4.8 3-3.7 4.7-1.6 5.1 1.5 3.8 4 1.3 5-.9 4.3-2.8 3.6-4.2 2.6-4.9 1-4.7-2-2.4-4.7 1-5.3 3-4.2 3.9-2 2-.3a3.5 3.5 0 0 1-.1 7l-.8.2-1.2 2.5 2.1 1.2 3.2-2.6-.5-3.6-2.9-2-2.1 1.5.6 3 3.2 2.4 2.3.8a2.8 2.8 0 0 1-2 5.4Zm.7-14.6.6.6.5.6a3.5 3.5 0 0 1-5.2 4.6l-.6-.6-.5-.7a3.5 3.5 0 0 1 5.2-4.5Zm2 4-.2 1-1 3-2.5 3.7-3 3.1-3.1 4.2-1.7 2.6a3.6 3.6 0 0 1-6-4l1-1.5 2.3-3.3 2.4-2.9 3-3 1.7-2.8.1-1a3.5 3.5 0 0 1 7 .8Z"/>
  <path fill="#1d1d1d" d="m1677.5 1264.6 1.7-1.2 3-2.2 2.7-2.2 4-3 5-3.3 4.7-3 4.8-2.7 5.5-3.4 7.2-4.8 7.2-5.1 6.1-4.6 5.6-4.1 5.3-3.8 5-3.5 4.9-3.5 5-3.5 4.8-3.5 4.7-3.7 4.8-3.7 5.9-4.4 6.3-4.5 6.1-4 5.9-3.7 4.6-3 4.2-2.5 4-2.3 4-2.3 4-2.2 4.1-2.3 4.1-2.3 5-3 5.4-3.4 4.8-3.2 4.4-2.7 4-2.4 3.4-2 3.3-1.7 3.2-1.8 3.4-1.8 4.6-2.4 5.3-3.2 5-3 5-3.3 5.6-3.5 5.2-3.2 3.7-2.3 3.3-2.1 3.8-2.2 4.4-1.7 4.1-.9 1.9-.3a3.7 3.7 0 0 1 1.3 7.3l-3 .5-5 1.6-3.5 2-3.3 2-3.8 2.5-5.1 3-5.6 3.6-5 3.3-5.2 3.2-5.6 3.3-4.5 2.4-3.5 1.8-3.2 1.7-3 1.7-3.4 2-3.8 2.2-4.3 2.7-4.9 3.2-5.6 3.5-5.1 3-4.2 2.4-4 2.3-4 2.2-4 2.2-3.8 2.3-4.1 2.5-4.7 3-5.6 3.4-6 4-6.1 4.4-5.8 4.3-4.8 3.7-5 3.8-5 3.6-4.8 3.4-5 3.5-5 3.5-5.1 3.7-5.7 4.1-6.2 4.6-7.4 5.2-7.5 5-5.7 3.4-4.5 2.5-4.6 3-4.7 3-3.8 2.7-3 2.3-3.3 2.5-1.7 1.1a3.4 3.4 0 0 1-3.8-5.7Z"/>
  <path fill="#e03131" d="m1670.4 1271.9 1.1-3.7 1.1-3.6a9.1 9.1 0 0 1 17.2 6.2l-1.5 3.5-1.4 3.5a8.7 8.7 0 0 1-16.5-6Zm18.7.4-2.4 3.8-9.3 5.7-12.4-4.4-3-12 7-7.6h9.9l5 1.5a10.2 10.2 0 0 1-10.2 17.8l2.6-2.4-.6-5.8-2.8-4.7.4-1a9.1 9.1 0 0 1 15.8 9Zm-5.6 5-.9.5-.8.5a10.3 10.3 0 0 1-9.4-18.4l1-.4.8-.4a10.2 10.2 0 0 1 9.3 18.2Zm-16.6-10 .5-1.5.4-1.6a10 10 0 0 1 19.7 3.3l-.1 1.7-.1 1.6a10.3 10.3 0 0 1-20.4-3.4ZM1782.2 1185.4l1.8-.1 1.8-.1a10.5 10.5 0 0 1 1 20.9h-3.6a10.4 10.4 0 0 1-1-20.7Zm12.5 4 .3.3.3.4a10.5 10.5 0 0 1-17 12.5l-.2-.4-.2-.4a10.5 10.5 0 0 1 16.8-12.4ZM1783 1206l-5.9-4-4.6-11.2 4.8-10 11.3-1.8 10.4 4.4 2.3 9-5.5 10-5 4.6a11.2 11.2 0 0 1-11.3-19.2l1.7.5 4.6 5.3 3.6.3 1-5.9.3-1.5a10.5 10.5 0 0 1-7.7 19.5Zm-7.3-2.7-.6-.9-.5-.8a11.2 11.2 0 0 1 19-11.8l.5.8.5.9a11.2 11.2 0 0 1-19 11.8Zm-.6-14.3 1.3-1.8 1.4-2a11.3 11.3 0 0 1 18.1 13.5l-1.4 1.8-1.4 1.9a11.2 11.2 0 0 1-18-13.4Zm19-5.6 2.2 2 2.1 2.1a11 11 0 0 1-14.2 16.6l-2.4-1.8-2.3-1.7a11.3 11.3 0 0 1 14.7-17.2ZM1894.5 1124.8l1-3.3 3.6-7.7 7.6-7.2 5-3a11.4 11.4 0 0 1 8.9 21l-1-.1-1.7 3.1-.8 3.3a11.7 11.7 0 0 1-22.6-6Zm33-9.2-1.7 6.1-9 9.5-14.5.7-9.9-10 1.9-14 9.4-7.2 10 1.1 9.6 9.2 2.1 13.3-7.7 8.7-5.3 2.7a11.7 11.7 0 0 1-5-22.9l-.3 5.3-.6.6-1-5.4-.7-.7a11.4 11.4 0 0 1 22.7 3Zm-29 5.8.9-2.2.8-2.1a11.2 11.2 0 0 1 21.7 5.3l-.3 2.3-.3 2.3a11.7 11.7 0 0 1-22.7-5.6Z"/>
</svg>
