<svg xmlns="http://www.w3.org/2000/svg" direction="ltr" width="1449.1306980451548" height="623.2322129197198" viewBox="1448.4216848899057 1108.5929303226494 1449.1306980451548 623.2322129197198" stroke-linecap="round" stroke-linejoin="round" data-color-mode="light" class="tl-container tl-theme__force-sRGB tl-theme__light" style="background-color: transparent; font-family: '__Inter_a184c8', '__Inter_Fallback_a184c8';"><defs><style>
	</style></defs><g transform="matrix(1, 0, 0, 1, 1558.3275, 1288.0281)" opacity="1"><text font-size="44" font-family="'tldraw_draw', sans-serif" font-style="normal" font-weight="normal" dominant-baseline="mathematical" alignment-baseline="mathematical" stroke="rgb(249, 250, 251)" stroke-width="2" fill="rgb(249, 250, 251)"><tspan alignment-baseline="mathematical" x="0" y="22.5" unicode-bidi="plaintext">heap</tspan></text><text font-size="44" font-family="'tldraw_draw', sans-serif" font-style="normal" font-weight="normal" dominant-baseline="mathematical" alignment-baseline="mathematical" fill="#9fa8b2"><tspan alignment-baseline="mathematical" x="0" y="22.5" unicode-bidi="plaintext">heap</tspan></text></g><g transform="matrix(1, 0, 0, 1, 1557.2124, 1390.701)" opacity="1"><text font-size="44" font-family="'tldraw_draw', sans-serif" font-style="normal" font-weight="normal" dominant-baseline="mathematical" alignment-baseline="mathematical" stroke="rgb(249, 250, 251)" stroke-width="2" fill="rgb(249, 250, 251)"><tspan alignment-baseline="mathematical" x="0" y="22.30078125" unicode-bidi="plaintext">linear</tspan><tspan alignment-baseline="mathematical" x="135.515625" y="22.30078125" unicode-bidi="plaintext">  </tspan><tspan alignment-baseline="mathematical" x="0" y="81.69921875">
	</tspan><tspan alignment-baseline="mathematical" x="0" y="81.69921875" unicode-bidi="plaintext">search</tspan></text><text font-size="44" font-family="'tldraw_draw', sans-serif" font-style="normal" font-weight="normal" dominant-baseline="mathematical" alignment-baseline="mathematical" fill="#9fa8b2"><tspan alignment-baseline="mathematical" x="0" y="22.30078125" unicode-bidi="plaintext">linear</tspan><tspan alignment-baseline="mathematical" x="135.515625" y="22.30078125" unicode-bidi="plaintext">  </tspan><tspan alignment-baseline="mathematical" x="0" y="81.69921875">
	</tspan><tspan alignment-baseline="mathematical" x="0" y="81.69921875" unicode-bidi="plaintext">search</tspan></text></g><g transform="matrix(1, 0, 0, 1, 1557.1239, 1542.4071)" opacity="1"><text font-size="44" font-family="'tldraw_draw', sans-serif" font-style="normal" font-weight="normal" dominant-baseline="mathematical" alignment-baseline="mathematical" stroke="rgb(249, 250, 251)" stroke-width="2" fill="rgb(249, 250, 251)"><tspan alignment-baseline="mathematical" x="0" y="22.5" unicode-bidi="plaintext">b-search</tspan></text><text font-size="44" font-family="'tldraw_draw', sans-serif" font-style="normal" font-weight="normal" dominant-baseline="mathematical" alignment-baseline="mathematical" fill="#9fa8b2"><tspan alignment-baseline="mathematical" x="0" y="22.5" unicode-bidi="plaintext">b-search</tspan></text></g><g transform="matrix(1, 0, 0, 1, 1865.6886, 1148.484)" opacity="1"><text font-size="44" font-family="'tldraw_draw', sans-serif" font-style="normal" font-weight="normal" dominant-baseline="mathematical" alignment-baseline="mathematical" stroke="rgb(249, 250, 251)" stroke-width="2" fill="rgb(249, 250, 251)"><tspan alignment-baseline="mathematical" x="0" y="22.5" unicode-bidi="plaintext">Time</tspan><tspan alignment-baseline="mathematical" x="105.375" y="22.5" unicode-bidi="plaintext"> </tspan><tspan alignment-baseline="mathematical" x="120.46875" y="22.5" unicode-bidi="plaintext">complexity</tspan></text><text font-size="44" font-family="'tldraw_draw', sans-serif" font-style="normal" font-weight="normal" dominant-baseline="mathematical" alignment-baseline="mathematical" fill="#9fa8b2"><tspan alignment-baseline="mathematical" x="0" y="22.5" unicode-bidi="plaintext">Time</tspan><tspan alignment-baseline="mathematical" x="105.375" y="22.5" unicode-bidi="plaintext"> </tspan><tspan alignment-baseline="mathematical" x="120.46875" y="22.5" unicode-bidi="plaintext">complexity</tspan></text></g><g transform="matrix(1, 0, 0, 1, 2395.0249, 1140.5929)" opacity="1"><text font-size="44" font-family="'tldraw_draw', sans-serif" font-style="normal" font-weight="normal" dominant-baseline="mathematical" alignment-baseline="mathematical" stroke="rgb(249, 250, 251)" stroke-width="2" fill="rgb(249, 250, 251)"><tspan alignment-baseline="mathematical" x="0" y="22.5" unicode-bidi="plaintext">Space</tspan><tspan alignment-baseline="mathematical" x="128.875" y="22.5" unicode-bidi="plaintext"> </tspan><tspan alignment-baseline="mathematical" x="143.9609375" y="22.5" unicode-bidi="plaintext">complexity</tspan></text><text font-size="44" font-family="'tldraw_draw', sans-serif" font-style="normal" font-weight="normal" dominant-baseline="mathematical" alignment-baseline="mathematical" fill="#9fa8b2"><tspan alignment-baseline="mathematical" x="0" y="22.5" unicode-bidi="plaintext">Space</tspan><tspan alignment-baseline="mathematical" x="128.875" y="22.5" unicode-bidi="plaintext"> </tspan><tspan alignment-baseline="mathematical" x="143.9609375" y="22.5" unicode-bidi="plaintext">complexity</tspan></text></g><g transform="matrix(1, 0, 0, 1, 1884.1301, 1268.7971)" opacity="0.75"><text font-size="44" font-family="'tldraw_draw', sans-serif" font-style="normal" font-weight="normal" dominant-baseline="mathematical" alignment-baseline="mathematical" stroke="rgb(249, 250, 251)" stroke-width="2" fill="rgb(249, 250, 251)"><tspan alignment-baseline="mathematical" x="0" y="22.5" unicode-bidi="plaintext">O(n</tspan><tspan alignment-baseline="mathematical" x="75.3671875" y="22.5" unicode-bidi="plaintext"> </tspan><tspan alignment-baseline="mathematical" x="90.4609375" y="22.5" unicode-bidi="plaintext">*</tspan><tspan alignment-baseline="mathematical" x="112.59375" y="22.5" unicode-bidi="plaintext"> </tspan><tspan alignment-baseline="mathematical" x="127.6875" y="22.5" unicode-bidi="plaintext">logk)</tspan></text><text font-size="44" font-family="'tldraw_draw', sans-serif" font-style="normal" font-weight="normal" dominant-baseline="mathematical" alignment-baseline="mathematical" fill="#f1ac4b"><tspan alignment-baseline="mathematical" x="0" y="22.5" unicode-bidi="plaintext">O(n</tspan><tspan alignment-baseline="mathematical" x="75.3671875" y="22.5" unicode-bidi="plaintext"> </tspan><tspan alignment-baseline="mathematical" x="90.4609375" y="22.5" unicode-bidi="plaintext">*</tspan><tspan alignment-baseline="mathematical" x="112.59375" y="22.5" unicode-bidi="plaintext"> </tspan><tspan alignment-baseline="mathematical" x="127.6875" y="22.5" unicode-bidi="plaintext">logk)</tspan></text></g><g transform="matrix(1, 0, 0, 1, 2388.3215, 1271.6689)" opacity="0.75"><text font-size="44" font-family="'tldraw_draw', sans-serif" font-style="normal" font-weight="normal" dominant-baseline="mathematical" alignment-baseline="mathematical" stroke="rgb(249, 250, 251)" stroke-width="2" fill="rgb(249, 250, 251)"><tspan alignment-baseline="mathematical" x="0" y="22.5" unicode-bidi="plaintext">O(logk)</tspan></text><text font-size="44" font-family="'tldraw_draw', sans-serif" font-style="normal" font-weight="normal" dominant-baseline="mathematical" alignment-baseline="mathematical" fill="#f1ac4b"><tspan alignment-baseline="mathematical" x="0" y="22.5" unicode-bidi="plaintext">O(logk)</tspan></text></g><g transform="matrix(1, 0, 0, 1, 1878.4794, 1397.0243)" opacity="0.75"><text font-size="44" font-family="'tldraw_draw', sans-serif" font-style="normal" font-weight="normal" dominant-baseline="mathematical" alignment-baseline="mathematical" stroke="rgb(249, 250, 251)" stroke-width="2" fill="rgb(249, 250, 251)"><tspan alignment-baseline="mathematical" x="0" y="22.5" unicode-bidi="plaintext">O(n</tspan><tspan alignment-baseline="mathematical" x="75.3671875" y="22.5" unicode-bidi="plaintext"> </tspan><tspan alignment-baseline="mathematical" x="90.4609375" y="22.5" unicode-bidi="plaintext">or</tspan><tspan alignment-baseline="mathematical" x="139.5625" y="22.5" unicode-bidi="plaintext"> </tspan><tspan alignment-baseline="mathematical" x="154.65625" y="22.5" unicode-bidi="plaintext">n^2</tspan><tspan alignment-baseline="mathematical" x="241.0703125" y="22.5" unicode-bidi="plaintext"> </tspan><tspan alignment-baseline="mathematical" x="256.1640625" y="22.5" unicode-bidi="plaintext">or</tspan><tspan alignment-baseline="mathematical" x="305.265625" y="22.5" unicode-bidi="plaintext"> </tspan><tspan alignment-baseline="mathematical" x="320.359375" y="22.5" unicode-bidi="plaintext">...)</tspan></text><text font-size="44" font-family="'tldraw_draw', sans-serif" font-style="normal" font-weight="normal" dominant-baseline="mathematical" alignment-baseline="mathematical" fill="#f1ac4b"><tspan alignment-baseline="mathematical" x="0" y="22.5" unicode-bidi="plaintext">O(n</tspan><tspan alignment-baseline="mathematical" x="75.3671875" y="22.5" unicode-bidi="plaintext"> </tspan><tspan alignment-baseline="mathematical" x="90.4609375" y="22.5" unicode-bidi="plaintext">or</tspan><tspan alignment-baseline="mathematical" x="139.5625" y="22.5" unicode-bidi="plaintext"> </tspan><tspan alignment-baseline="mathematical" x="154.65625" y="22.5" unicode-bidi="plaintext">n^2</tspan><tspan alignment-baseline="mathematical" x="241.0703125" y="22.5" unicode-bidi="plaintext"> </tspan><tspan alignment-baseline="mathematical" x="256.1640625" y="22.5" unicode-bidi="plaintext">or</tspan><tspan alignment-baseline="mathematical" x="305.265625" y="22.5" unicode-bidi="plaintext"> </tspan><tspan alignment-baseline="mathematical" x="320.359375" y="22.5" unicode-bidi="plaintext">...)</tspan></text></g><g transform="matrix(1, 0, 0, 1, 2387.6622, 1382.6032)" opacity="0.75"><text font-size="44" font-family="'tldraw_draw', sans-serif" font-style="normal" font-weight="normal" dominant-baseline="mathematical" alignment-baseline="mathematical" stroke="rgb(249, 250, 251)" stroke-width="2" fill="rgb(249, 250, 251)"><tspan alignment-baseline="mathematical" x="0" y="22.5" unicode-bidi="plaintext">O(1)</tspan></text><text font-size="44" font-family="'tldraw_draw', sans-serif" font-style="normal" font-weight="normal" dominant-baseline="mathematical" alignment-baseline="mathematical" fill="#f1ac4b"><tspan alignment-baseline="mathematical" x="0" y="22.5" unicode-bidi="plaintext">O(1)</tspan></text></g><g transform="matrix(1, 0, 0, 1, 1881.0684, 1553.5776)" opacity="0.75"><text font-size="44" font-family="'tldraw_draw', sans-serif" font-style="normal" font-weight="normal" dominant-baseline="mathematical" alignment-baseline="mathematical" stroke="rgb(249, 250, 251)" stroke-width="2" fill="rgb(249, 250, 251)"><tspan alignment-baseline="mathematical" x="0" y="22.5" unicode-bidi="plaintext">O(logn)</tspan></text><text font-size="44" font-family="'tldraw_draw', sans-serif" font-style="normal" font-weight="normal" dominant-baseline="mathematical" alignment-baseline="mathematical" fill="#f1ac4b"><tspan alignment-baseline="mathematical" x="0" y="22.5" unicode-bidi="plaintext">O(logn)</tspan></text></g><g transform="matrix(1, 0, 0, 1, 2396.2555, 1534.3713)" opacity="0.75"><text font-size="44" font-family="'tldraw_draw', sans-serif" font-style="normal" font-weight="normal" dominant-baseline="mathematical" alignment-baseline="mathematical" stroke="rgb(249, 250, 251)" stroke-width="2" fill="rgb(249, 250, 251)"><tspan alignment-baseline="mathematical" x="0" y="22.30078125" unicode-bidi="plaintext">O(1)</tspan><tspan alignment-baseline="mathematical" x="85.265625" y="22.30078125" unicode-bidi="plaintext"> </tspan><tspan alignment-baseline="mathematical" x="100.359375" y="22.30078125" unicode-bidi="plaintext">for</tspan><tspan alignment-baseline="mathematical" x="167.109375" y="22.30078125" unicode-bidi="plaintext"> </tspan><tspan alignment-baseline="mathematical" x="182.203125" y="22.30078125" unicode-bidi="plaintext">iterative</tspan><tspan alignment-baseline="mathematical" x="374.53125" y="22.30078125" unicode-bidi="plaintext"> </tspan><tspan alignment-baseline="mathematical" x="0" y="81.69921875">
	</tspan><tspan alignment-baseline="mathematical" x="0" y="81.69921875" unicode-bidi="plaintext">O(logn)</tspan><tspan alignment-baseline="mathematical" x="166.0546875" y="81.69921875" unicode-bidi="plaintext"> </tspan><tspan alignment-baseline="mathematical" x="181.140625" y="81.69921875" unicode-bidi="plaintext">for</tspan><tspan alignment-baseline="mathematical" x="247.890625" y="81.69921875" unicode-bidi="plaintext"> </tspan><tspan alignment-baseline="mathematical" x="262.984375" y="81.69921875" unicode-bidi="plaintext">recursive</tspan></text><text font-size="44" font-family="'tldraw_draw', sans-serif" font-style="normal" font-weight="normal" dominant-baseline="mathematical" alignment-baseline="mathematical" fill="#f1ac4b"><tspan alignment-baseline="mathematical" x="0" y="22.30078125" unicode-bidi="plaintext">O(1)</tspan><tspan alignment-baseline="mathematical" x="85.265625" y="22.30078125" unicode-bidi="plaintext"> </tspan><tspan alignment-baseline="mathematical" x="100.359375" y="22.30078125" unicode-bidi="plaintext">for</tspan><tspan alignment-baseline="mathematical" x="167.109375" y="22.30078125" unicode-bidi="plaintext"> </tspan><tspan alignment-baseline="mathematical" x="182.203125" y="22.30078125" unicode-bidi="plaintext">iterative</tspan><tspan alignment-baseline="mathematical" x="374.53125" y="22.30078125" unicode-bidi="plaintext"> </tspan><tspan alignment-baseline="mathematical" x="0" y="81.69921875">
	</tspan><tspan alignment-baseline="mathematical" x="0" y="81.69921875" unicode-bidi="plaintext">O(logn)</tspan><tspan alignment-baseline="mathematical" x="166.0546875" y="81.69921875" unicode-bidi="plaintext"> </tspan><tspan alignment-baseline="mathematical" x="181.140625" y="81.69921875" unicode-bidi="plaintext">for</tspan><tspan alignment-baseline="mathematical" x="247.890625" y="81.69921875" unicode-bidi="plaintext"> </tspan><tspan alignment-baseline="mathematical" x="262.984375" y="81.69921875" unicode-bidi="plaintext">recursive</tspan></text></g><g transform="matrix(1, 0, 0, 1, 1514.5017, 1371.5796)" opacity="1"><g transform="scale(1)"><path d="M1.3433,-3.176 T2.8924,-3.1517 7.1662,-3.1158 11.338,-3.1109 15.3398,-3.1413 20.3721,-3.1865 25.4606,-3.2238 30.888,-3.2509 36.7858,-3.3131 43.2601,-3.3965 50.2615,-3.4931 57.7826,-3.5964 65.7926,-3.6584 74.2632,-3.6942 85.6593,-3.7194 98.8402,-3.7392 110.9381,-3.6859 122.6885,-3.5231 134.4041,-3.2561 146.2441,-2.9416 161.4017,-2.6935 178.6624,-2.6303 197.7204,-2.9112 218.228,-3.4231 236.6026,-4.0301 258.3538,-5.0376 282.4618,-6.2603 304.1941,-7.3152 324.9355,-8.3884 345.5804,-9.5314 366.6074,-10.6858 388.2266,-11.8892 410.7368,-13.1429 434.1816,-14.2469 464.7078,-15.3787 499.5488,-16.5235 530.9195,-17.3441 560.8565,-17.9402 590.4474,-18.4505 620.2799,-18.9149 658.5272,-19.4059 701.8711,-19.8716 740.6166,-20.1523 785.1922,-20.3888 840.8377,-21.0718 901.2315,-22.4551 955.2056,-23.9272 997.3795,-25.1373 1032.3357,-26.2034 1062.2591,-27.0318 1092.6037,-27.4489 1121.1709,-27.3942 1142.3077,-26.8839 1161.3722,-26.1404 1171.4058,-25.7774 A1.9079,1.9079 0 0 1 1171.3142,-21.9626 T1161.2748,-22.0812 1142.2502,-22.2515 1121.1832,-22.2307 1092.6889,-22.0099 1062.4074,-21.5284 1032.4982,-20.7325 997.5311,-19.7215 955.3464,-18.5879 901.3491,-17.2106 840.8996,-15.8793 785.2216,-15.1902 740.6577,-14.9232 701.9318,-14.5896 658.6037,-14.0511 620.3729,-13.4712 590.549,-12.918 560.9713,-12.3409 531.0679,-11.7084 499.7345,-10.8706 464.9208,-9.7125 434.4495,-8.5746 411.0529,-7.4719 388.5425,-6.2168 366.9178,-5.0113 345.891,-3.8653 325.2236,-2.7437 304.4623,-1.7005 282.7418,-0.6783 258.6018,0.5236 236.7827,1.5141 218.3633,2.0954 197.7918,2.5819 178.6438,2.8491 161.3013,2.7765 146.098,2.5156 134.2809,2.1965 122.6113,1.9343 110.9091,1.7662 98.8429,1.6941 85.6661,1.6877 74.2786,1.6878 65.8234,1.7001 57.8446,1.7295 50.3206,1.7993 43.3134,1.8609 36.8214,1.9071 30.8873,1.9293 25.4592,1.9008 20.3696,1.861 15.3329,1.8107 11.3222,1.7708 7.1224,1.7352 2.8258,1.6943 1.2767,1.676 A2.4263,2.4263 0 0 1 1.3433,-3.176 Z" stroke-linecap="round" fill="#9fa8b2"/></g></g><g transform="matrix(1, 0, 0, 1, 1480.4217, 1540.0108)" opacity="1"><g transform="scale(1)"><path d="M-0.252,-2.2973 T2.1633,-2.5567 6.762,-3.0153 11.1904,-3.344 15.9065,-3.6131 21.2089,-3.8516 29.4971,-4.0278 40.2836,-4.1633 54.475,-4.3561 75.6856,-4.7502 98.968,-5.2853 120.4663,-6.0233 147.3855,-7.3106 178.193,-9.0358 206.5021,-10.7259 234.1489,-12.4445 262.011,-14.3521 290.4235,-16.1842 319.4564,-17.9984 349.307,-20.0008 380.046,-21.9484 411.6647,-23.8238 452.2922,-26.0369 498.216,-28.1602 539.4337,-29.7025 578.416,-30.8268 616.3745,-31.6193 654.0154,-32.1214 691.5898,-32.4757 729.2342,-32.7984 766.9759,-33.2126 804.8569,-33.8096 842.9128,-34.5044 881.0529,-35.3423 919.1233,-36.3505 965.5168,-37.6276 1015.7441,-38.9739 1058.8513,-39.9977 1105.4902,-40.5408 1159.2331,-40.4907 1205.4692,-40.1435 1239.2241,-39.7773 1266.4349,-39.3382 1288.0236,-38.8828 1305.8737,-38.419 1324.1999,-37.7646 1340.6923,-37.0066 1352.8613,-36.2393 1362.0851,-35.3619 1370.0905,-34.4638 1374.3038,-34.0268 A2.2015,2.2015 0 0 1 1374.0162,-29.6332 T1369.7818,-29.7493 1361.7572,-29.9008 1352.5478,-30.1208 1340.4107,-30.5921 1323.9753,-31.2598 1305.7048,-31.8839 1287.8856,-32.3383 1266.3292,-32.7813 1239.1532,-33.2035 1205.42,-33.547 1159.2275,-33.8734 1105.572,-33.9258 1059.0041,-33.4066 1015.9171,-32.4148 965.6935,-31.1122 919.2913,-29.885 881.1923,-28.9146 843.0289,-28.0984 804.9574,-27.4134 767.0457,-26.8194 729.2884,-26.4098 691.6501,-26.0936 654.1007,-25.7383 616.507,-25.235 578.5984,-24.4516 539.6697,-23.3397 498.5059,-21.8144 452.6407,-19.7144 412.035,-17.5307 380.4403,-15.6854 349.7219,-13.768 319.8407,-11.7932 290.8184,-10.0099 262.4278,-8.2106 234.5251,-6.3331 206.8606,-4.648 178.5287,-2.9938 147.6592,-1.3169 120.6588,-0.0979 99.0892,0.5542 75.7691,0.9785 54.5126,1.229 40.304,1.2542 29.5565,1.2003 21.3514,1.1789 16.108,1.2341 11.4937,1.3519 7.2108,1.5867 2.6661,2.0269 0.252,2.2973 A2.3111,2.3111 0 0 1 -0.252,-2.2973 Z" stroke-linecap="round" fill="#9fa8b2"/></g></g><g transform="matrix(1, 0, 0, 1, 1798.4711, 1156.0551)" opacity="1"><g transform="scale(1)"><path d="M2.6794,-0.0338 T2.7624,3.5298 3.0034,11.5885 3.3343,25.7226 3.6261,45.0881 3.8346,65.5226 4.0422,88.3757 4.2828,114.1405 4.4826,142.7142 4.6077,173.609 4.6612,206.1686 4.6764,239.8917 4.687,282.1061 4.686,327.9108 4.8117,366.5411 5.089,400.596 5.4338,431.5353 5.8375,463.6225 6.1837,494.2811 6.3226,516.193 6.4011,534.2117 6.4784,543.71 A2.3592,2.3592 0 0 1 1.7616,543.83 T1.3555,534.3401 0.5166,516.328 -0.3504,494.4053 -1.1589,463.7323 -1.7707,431.6233 -2.1771,400.6585 -2.4816,366.5676 -2.6162,327.9101 -2.6084,282.1045 -2.581,239.8883 -2.5339,206.1709 -2.5008,173.6229 -2.4952,142.7423 -2.5221,114.1759 -2.5501,88.401 -2.5203,65.5488 -2.4783,45.1378 -2.5027,25.8249 -2.6013,11.6934 -2.6725,3.5983 -2.6794,0.0338 A2.6796,2.6796 0 0 1 2.6794,-0.0338 Z" stroke-linecap="round" fill="#9fa8b2"/></g></g><g transform="matrix(1, 0, 0, 1, 2271.0041, 1149.6886)" opacity="1"><g transform="scale(1)"><path d="M2.7242,-0.2584 T3.142,3.7011 4.995,15.9313 7.9277,32.946 10.819,51.5872 13.3069,72.7438 15.4451,103.8327 17.0306,149.4062 17.8227,196.8112 18.104,238.2214 17.7796,284.8698 17.1503,333.4126 16.7661,373.3579 16.744,407.5542 17.664,442.3246 19.5153,482.3279 20.5345,503.4553 A2.659,2.659 0 0 1 15.2255,503.7647 T13.7841,482.6618 10.9663,442.5316 9.4363,407.5603 9.3876,373.2878 9.7875,333.3129 10.4756,284.8194 10.8918,238.2582 10.7296,196.9155 10.0877,149.6457 8.7008,104.31 6.7964,73.4804 4.5573,52.5194 1.9256,33.9281 -0.7484,16.6786 -2.39,4.2264 -2.7242,0.2584 A2.7365,2.7365 0 0 1 2.7242,-0.2584 Z" stroke-linecap="round" fill="#9fa8b2"/></g></g><g transform="matrix(1, 0, 0, 1, 1518.6214, 1247.3394)" opacity="1"><g transform="scale(1)"><path d="M0.5562,-3.2947 T3.3688,-3.0809 9.0937,-2.6734 15.4099,-2.2528 25.7071,-1.7743 39.549,-1.3995 53.9898,-1.2198 69.8156,-1.2744 87.4976,-1.6288 113.498,-2.5202 145.8078,-3.9386 177.1898,-5.433 209.2236,-6.8136 242.5829,-8.1331 277.6755,-9.4837 314.8524,-10.6737 365.0141,-11.8393 423.5313,-13.0073 477.0273,-13.8651 540.5056,-14.4506 609.9022,-14.8064 670.9451,-14.9115 740.1013,-14.0742 813.3839,-12.4923 876.1132,-10.8655 943.9811,-8.9043 1013.1709,-7.0351 1070.2662,-5.6628 1120.0502,-4.4143 1167.6891,-2.6277 1209.7539,-0.2656 1238.5129,1.8018 1261.4092,3.5843 1273.4679,4.523 A3.0662,3.0662 0 0 1 1272.9921,10.637 T1260.9333,9.6987 1238.066,7.9193 1209.3998,5.8591 1167.4587,3.4944 1119.8944,1.6878 1070.119,0.4084 1013.0079,-0.9966 943.806,-2.8896 875.9552,-4.8721 813.2528,-6.5282 740.0371,-8.1509 670.9538,-9.0234 609.9312,-8.9356 540.5632,-8.5931 477.1202,-8.0151 423.6461,-7.1677 365.1495,-6.0245 315.033,-4.9049 277.89,-3.778 242.8004,-2.4914 209.458,-1.239 177.4453,0.0706 146.0404,1.4911 113.6633,2.8304 87.59,3.6444 69.8173,3.9234 53.9089,3.8948 39.3941,3.6212 25.4331,3.1361 15.0693,2.566 8.7386,2.092 2.9952,1.6455 0.1838,1.4147 A2.3621,2.3621 0 0 1 0.5562,-3.2947 Z" stroke-linecap="round" fill="#9fa8b2"/></g></g></svg>